<svg width="25" height="25" viewBox="0 0 25 25" version="1.1" xmlns="http://www.w3.org/2000/svg" xmlns:xlink="http://www.w3.org/1999/xlink">
<title>food</title>
<desc>Created using Figma</desc>
<g id="Canvas" transform="translate(-5679 -5801)">
<g id="food">
<g id="Vector">
<use xlink:href="#path0_fill" transform="translate(5679 5801)" fill="#2B2A29"/>
</g>
</g>
</g>
<defs>
<path id="path0_fill" d="M 25 9.10943C 25 5.91355 22.3839 3.31355 19.1683 3.31355C 19.0285 3.31355 18.8875 3.31877 18.7457 3.32929C 17.362 1.26237 15.0177 0 12.5 0C 9.98243 0 7.63812 1.26263 6.25436 3.32929C 6.11262 3.31877 5.97154 3.31355 5.83183 3.31355C 2.61611 3.31355 6.46414e-10 5.91355 6.46414e-10 9.10943C 6.46414e-10 12.025 2.17782 14.4434 5.00151 14.8453L 5.00151 22.8551C 5.00151 24.0379 5.96993 25 7.16035 25L 17.8397 25C 19.0301 25 19.9985 24.0378 19.9985 22.8551L 19.9985 14.8453C 22.8223 14.4434 25 12.0249 25 9.10943ZM 17.8397 23.3501L 7.16043 23.3501C 6.89049 23.3501 6.66224 23.1234 6.66224 22.8551L 6.66224 14.846C 7.47578 14.7316 8.24815 14.4486 8.94486 14.0085C 10.0135 14.5827 11.2289 14.9051 12.5 14.9051C 13.7711 14.9051 14.9864 14.5827 16.0551 14.0086C 16.7519 14.4486 17.5244 14.7316 18.3378 14.846L 18.3378 22.8551C 18.3378 23.1234 18.1097 23.3501 17.8397 23.3501ZM 19.1683 13.2551C 18.6093 13.2551 18.069 13.1466 17.5669 12.9381C 18.5775 12.0178 19.3414 10.8215 19.7249 9.44663C 19.8473 9.00758 19.5884 8.55295 19.1465 8.43123C 18.7045 8.3096 18.247 8.56692 18.1244 9.00589C 17.4266 11.5078 15.1137 13.2551 12.5 13.2551C 9.88626 13.2551 7.57347 11.5078 6.87558 9.00589C 6.75315 8.56684 6.29579 8.3096 5.85352 8.43123C 5.41159 8.55286 5.15266 9.00758 5.27509 9.44663C 5.65856 10.8215 6.42255 12.0178 7.43308 12.9381C 6.93099 13.1466 6.39069 13.2551 5.83183 13.2551C 3.53184 13.2551 1.66073 11.3954 1.66073 9.10943C 1.66073 6.8234 3.53192 4.96347 5.83183 4.96347C 6.06432 4.96347 6.30367 4.98418 6.54328 5.02492C 6.88914 5.0835 7.2355 4.91995 7.40749 4.61574C 8.44158 2.78636 10.3929 1.64992 12.4999 1.64992C 14.6069 1.64992 16.5582 2.78645 17.5925 4.61583C 17.7644 4.92003 18.1106 5.08359 18.4567 5.02492C 18.6963 4.98418 18.9357 4.96347 19.1681 4.96347C 21.468 4.96347 23.3391 6.8234 23.3391 9.10943C 23.3394 11.3954 21.4682 13.2551 19.1683 13.2551Z"/>
</defs>
</svg>
