<svg width="21" height="21" viewBox="0 0 21 21" version="1.1" xmlns="http://www.w3.org/2000/svg" xmlns:xlink="http://www.w3.org/1999/xlink">
<title>gallery</title>
<desc>Created using Figma</desc>
<g id="Canvas" transform="translate(-5675 -3949)">
<g id="gallery">
<g id="Group">
<g id="Group">
<g id="Vector">
<use xlink:href="#path0_fill" transform="translate(5686.41 3954.3)" fill="#2B2A29"/>
</g>
<g id="Vector">
<use xlink:href="#path1_fill" transform="translate(5675 3949)" fill="#2B2A29"/>
</g>
</g>
</g>
</g>
</g>
<defs>
<path id="path0_fill" d="M 1.1938 2.3876C 1.85312 2.3876 2.3876 1.85312 2.3876 1.1938C 2.3876 0.534482 1.85312 0 1.1938 0C 0.534482 0 0 0.534482 0 1.1938C 0 1.85312 0.534482 2.3876 1.1938 2.3876Z"/>
<path id="path1_fill" d="M 0.0180879 20.4393C 0.0180879 20.4393 0.0180879 20.4574 0.0180879 20.4393C 0.0180879 20.4574 0.0180879 20.4574 0.0361757 20.4574C 0.0542636 20.4935 0.0723515 20.5478 0.0904393 20.584C 0.0904393 20.6021 0.108527 20.6021 0.108527 20.6202C 0.108527 20.6382 0.126615 20.6382 0.126615 20.6563L 0.144703 20.6744C 0.162791 20.7106 0.198966 20.7287 0.217054 20.7649L 0.235142 20.7829C 0.25323 20.801 0.25323 20.801 0.271318 20.8191C 0.289406 20.8191 0.289406 20.8372 0.289406 20.8372C 0.307494 20.8553 0.325581 20.8553 0.343669 20.8734L 0.361757 20.8915C 0.361757 20.8915 0.379845 20.8915 0.379845 20.9096C 0.397933 20.9276 0.434109 20.9276 0.452196 20.9457C 0.470284 20.9457 0.470284 20.9457 0.488372 20.9638C 0.50646 20.9638 0.524548 20.9819 0.524548 20.9819C 0.578811 21 0.633075 21 0.687339 21L 20.2584 21C 20.6744 21 21 20.6744 21 20.2584L 21 15.3747L 21 0.741602C 21 0.325581 20.6744 6.10479e-15 20.2584 6.10479e-15L 0.741602 6.10479e-15C 0.325581 6.10479e-15 3.44998e-08 0.325581 3.44998e-08 0.741602L 3.44998e-08 15.3385L 3.44998e-08 20.2222C 3.44998e-08 20.2765 0.0180879 20.3488 0.0180879 20.4031C 0.0180879 20.4212 0.0180879 20.4393 0.0180879 20.4393ZM 19.5711 19.4987L 3.21964 19.4987L 15.3023 11.5943L 19.5711 15.6641L 19.5711 19.4987ZM 1.4832 1.4832L 19.5711 1.4832L 19.5711 13.6202L 15.8992 10.1111C 15.646 9.87597 15.2661 9.83979 14.9767 10.0207L 11.522 12.2997L 9.11628 9.87597C 8.86305 9.62274 8.4832 9.58656 8.1938 9.76744L 1.4832 14L 1.4832 1.4832ZM 1.4832 15.7545L 8.4832 11.3411L 10.2558 13.1318L 1.4832 18.8656L 1.4832 15.7545Z"/>
</defs>
</svg>
