<svg width="40" height="36" viewBox="0 0 40 36" version="1.1" xmlns="http://www.w3.org/2000/svg" xmlns:xlink="http://www.w3.org/1999/xlink">
<title> heart icon</title>
<desc>Created using Figma</desc>
<g id="Canvas" transform="translate(-6779 -2818)">
<g id=" heart icon">
<g id="Group">
<g id="Group">
<g id="Vector">
<use xlink:href="#path0_fill" transform="translate(6779 2818)" fill="#000"/>
</g>
</g>
</g>
</g>
</g>
<defs>
<path id="path0_fill" d="M 19.9999 36C 19.6234 36 19.264 35.8489 19.0079 35.5831L 3.02138 18.9854C 3.01726 18.9811 3.01315 18.9769 3.00915 18.9726C 1.06862 16.9029 0 14.16 0 11.2492C 0 8.33825 1.06862 5.5955 3.00915 3.52591L 3.25208 3.26687C 5.22736 1.16025 7.86474 -3.34158e-08 10.6785 -3.34158e-08C 13.4922 -3.34158e-08 16.1297 1.16025 18.1051 3.26697L 19.9999 5.28797L 21.8948 3.26708C 23.8701 1.16036 26.5075 0.000104292 29.3213 0.000104292C 32.1352 0.000104292 34.7725 1.16036 36.7479 3.26718L 36.9905 3.52559C 38.9314 5.59571 40 8.33846 40 11.2493C 40 14.1601 38.9313 16.903 36.9909 18.9726C 36.9869 18.9771 36.9827 18.9814 36.9786 18.9856L 20.992 35.5833C 20.7359 35.8488 20.3765 36 19.9999 36ZM 5.01181 17.2188L 19.9999 32.7798L 34.9881 17.2187C 38.0718 13.923 38.0699 8.56631 34.9821 5.27317L 34.7397 5.01475C 33.2838 3.46188 31.3595 2.60686 29.3213 2.60686C 27.283 2.60686 25.3587 3.46188 23.9032 5.01423L 21.0043 8.10622C 20.7478 8.37986 20.3829 8.53597 20.0002 8.53597C 19.6175 8.53597 19.2525 8.37986 18.996 8.10622L 16.0969 5.01444C 14.6413 3.46198 12.7171 2.60697 10.6788 2.60697C 8.64052 2.60697 6.71623 3.46188 5.2607 5.01434L 5.01777 5.27337C 1.93003 8.56652 1.92797 13.9232 5.01181 17.2188Z"/>
</defs>
</svg>
