<svg width="21" height="29" viewBox="0 0 21 29" version="1.1" xmlns="http://www.w3.org/2000/svg" xmlns:xlink="http://www.w3.org/1999/xlink">
<title>pin</title>
<desc>Created using Figma</desc>
<g id="Canvas" transform="translate(-11874 -6211)">
<g id="pin">
<g id="Group">
<g id="Vector">
<use xlink:href="#path0_fill" transform="translate(11881.1 6217.92)" fill="#2F80ED"/>
<use xlink:href="#path1_stroke" transform="translate(11881.1 6217.92)" fill="#2F80ED"/>
</g>
<g id="Vector">
<use xlink:href="#path2_fill" transform="translate(11875 6212)" fill="#2F80ED"/>
<use xlink:href="#path3_stroke" transform="translate(11875 6212)" fill="#2F80ED"/>
</g>
</g>
</g>
</g>
<defs>
<path id="path0_fill" d="M 3.46797 0C 1.55613 0 -3.93097e-07 1.54879 -3.93097e-07 3.45161C -3.93097e-07 5.35444 1.55613 6.90323 3.46797 6.90323C 5.37981 6.90323 6.93593 5.35444 6.93593 3.45161C 6.93593 1.54879 5.37981 0 3.46797 0ZM 3.46797 5.91705C 2.10208 5.91705 0.990847 4.81106 0.990847 3.45161C 0.990847 2.09217 2.10208 0.986175 3.46797 0.986175C 4.83385 0.986175 5.94508 2.09217 5.94508 3.45161C 5.94508 4.81106 4.83385 5.91705 3.46797 5.91705Z"/>
<path id="path1_stroke" d="M 3.46797 -0.125C 1.48765 -0.125 -0.125 1.4792 -0.125 3.45161L 0.125 3.45161C 0.125 1.61838 1.6246 0.125 3.46797 0.125L 3.46797 -0.125ZM -0.125 3.45161C -0.125 5.42403 1.48765 7.02823 3.46797 7.02823L 3.46797 6.77823C 1.6246 6.77823 0.125 5.28485 0.125 3.45161L -0.125 3.45161ZM 3.46797 7.02823C 5.44828 7.02823 7.06093 5.42403 7.06093 3.45161L 6.81093 3.45161C 6.81093 5.28485 5.31133 6.77823 3.46797 6.77823L 3.46797 7.02823ZM 7.06093 3.45161C 7.06093 1.4792 5.44828 -0.125 3.46797 -0.125L 3.46797 0.125C 5.31133 0.125 6.81093 1.61838 6.81093 3.45161L 7.06093 3.45161ZM 3.46797 5.79205C 2.17056 5.79205 1.11585 4.74146 1.11585 3.45161L 0.865847 3.45161C 0.865847 4.88065 2.0336 6.04205 3.46797 6.04205L 3.46797 5.79205ZM 1.11585 3.45161C 1.11585 2.16176 2.17056 1.11118 3.46797 1.11118L 3.46797 0.861175C 2.0336 0.861175 0.865847 2.02258 0.865847 3.45161L 1.11585 3.45161ZM 3.46797 1.11118C 4.76537 1.11118 5.82008 2.16176 5.82008 3.45161L 6.07008 3.45161C 6.07008 2.02258 4.90233 0.861175 3.46797 0.861175L 3.46797 1.11118ZM 5.82008 3.45161C 5.82008 4.74146 4.76537 5.79205 3.46797 5.79205L 3.46797 6.04205C 4.90233 6.04205 6.07008 4.88065 6.07008 3.45161L 5.82008 3.45161Z"/>
<path id="path2_fill" d="M 16.2189 2.76967C 14.4245 0.98371 12.0385 0 9.50096 0C 6.96291 0 4.57744 0.98371 2.78302 2.76967C -0.537808 6.07435 -0.950496 12.2922 1.88927 16.0594L 9.50096 27L 17.1013 16.0747C 19.9524 12.2922 19.5397 6.07435 16.2189 2.76967ZM 16.2977 15.4982L 9.50096 25.2673L 2.69334 15.483C 0.117637 12.0649 0.486728 6.44959 3.48404 3.4669C 5.0912 1.86732 7.22796 0.986175 9.50096 0.986175C 11.774 0.986175 13.9107 1.86732 15.5184 3.4669C 18.5157 6.44959 18.8848 12.0649 16.2977 15.4982Z"/>
<path id="path3_stroke" d="M 16.2189 2.76967L 16.1307 2.85827L 16.1307 2.85828L 16.2189 2.76967ZM 2.78302 2.76967L 2.87119 2.85828L 2.8712 2.85827L 2.78302 2.76967ZM 1.88927 16.0594L 1.99196 15.9879L 1.98909 15.9841L 1.88927 16.0594ZM 9.50096 27L 9.39835 27.0714L 9.50097 27.2189L 9.60357 27.0714L 9.50096 27ZM 17.1013 16.0747L 17.0014 15.9994L 16.9986 16.0033L 17.1013 16.0747ZM 16.2977 15.4982L 16.1978 15.423L 16.1951 15.4268L 16.2977 15.4982ZM 9.50096 25.2673L 9.39835 25.3387L 9.50096 25.4862L 9.60357 25.3387L 9.50096 25.2673ZM 2.69334 15.483L 2.79603 15.4115L 2.79317 15.4077L 2.69334 15.483ZM 3.48404 3.4669L 3.57221 3.5555L 3.57222 3.5555L 3.48404 3.4669ZM 15.5184 3.4669L 15.6065 3.37829L 15.6065 3.37829L 15.5184 3.4669ZM 16.3071 2.68108C 14.4892 0.871739 12.0715 -0.125 9.50096 -0.125L 9.50096 0.125C 12.0056 0.125 14.3598 1.09568 16.1307 2.85827L 16.3071 2.68108ZM 9.50096 -0.125C 6.92994 -0.125 4.51274 0.871742 2.69484 2.68108L 2.8712 2.85827C 4.64214 1.09568 6.99587 0.125 9.50096 0.125L 9.50096 -0.125ZM 2.69484 2.68107C 1.009 4.35872 0.0661329 6.76998 -0.0987988 9.23273C -0.263734 11.6955 0.348389 14.2229 1.78946 16.1346L 1.98909 15.9841C 0.590387 14.1286 -0.0110305 11.6635 0.150642 9.24943C 0.312319 6.8353 1.23621 4.4853 2.87119 2.85828L 2.69484 2.68107ZM 1.78666 16.1308L 9.39835 27.0714L 9.60357 26.9286L 1.99188 15.988L 1.78666 16.1308ZM 9.60357 27.0714L 17.2039 16.146L 16.9986 16.0033L 9.39835 26.9286L 9.60357 27.0714ZM 17.2011 16.1499C 18.6478 14.2307 19.2628 11.6995 19.0993 9.23472C 18.9358 6.77001 17.9929 4.35873 16.3071 2.68107L 16.1307 2.85828C 17.7657 4.48529 18.6896 6.83526 18.8499 9.25126C 19.0101 11.6672 18.4059 14.1362 17.0014 15.9994L 17.2011 16.1499ZM 16.1951 15.4268L 9.39835 25.1959L 9.60357 25.3387L 16.4003 15.5696L 16.1951 15.4268ZM 9.60357 25.1959L 2.79595 15.4116L 2.59074 15.5543L 9.39835 25.3387L 9.60357 25.1959ZM 2.79317 15.4077C 1.52639 13.7267 0.980174 11.4993 1.12354 9.31986C 1.26691 7.14029 2.09904 5.02149 3.57221 3.5555L 3.39587 3.37829C 1.87173 4.89499 1.02065 7.07518 0.87408 9.30345C 0.727499 11.5318 1.28459 13.8212 2.59352 15.5582L 2.79317 15.4077ZM 3.57222 3.5555C 5.15589 1.97929 7.26093 1.11118 9.50096 1.11118L 9.50096 0.861175C 7.19499 0.861175 5.0265 1.75536 3.39586 3.3783L 3.57222 3.5555ZM 9.50096 1.11118C 11.741 1.11118 13.846 1.97929 15.4302 3.55551L 15.6065 3.37829C 13.9754 1.75536 11.8069 0.861175 9.50096 0.861175L 9.50096 1.11118ZM 15.4302 3.5555C 16.9034 5.02148 17.7355 7.14025 17.8774 9.32168C 18.0194 11.503 17.4704 13.7342 16.1978 15.423L 16.3975 15.5735C 17.7121 13.8289 18.2721 11.5358 18.1269 9.30545C 17.9818 7.07522 17.1307 4.895 15.6065 3.37829L 15.4302 3.5555Z"/>
</defs>
</svg>
