<svg width="29" height="25" viewBox="0 0 29 25" version="1.1" xmlns="http://www.w3.org/2000/svg" xmlns:xlink="http://www.w3.org/1999/xlink">
<title>home</title>
<desc>Created using Figma</desc>
<g id="Canvas" transform="translate(-5677 -5577)">
<g id="home">
<g id="Group">
<g id="Group">
<g id="Vector">
<use xlink:href="#path0_fill" transform="translate(5680.49 5587.07)" fill="#2B2A29"/>
</g>
</g>
</g>
<g id="Group">
<g id="Group">
<g id="Vector">
<use xlink:href="#path1_fill" transform="translate(5677 5577)" fill="#2B2A29"/>
</g>
</g>
</g>
</g>
</g>
<defs>
<path id="path0_fill" d="M 20.4051 -2.48635e-07L 20.4051 13.1311L 15.3038 13.1311L 15.3038 7.45196C 15.3038 6.95404 14.8885 6.55053 14.3763 6.55053L 7.85282 6.55053C 7.34051 6.55053 6.92533 6.95409 6.92533 7.45196L 6.92533 13.1311L 1.85498 13.1311L 1.85498 -2.48635e-07L -1.38283e-08 -2.48635e-07L -1.38283e-08 14.0325C -1.38283e-08 14.5304 0.415232 14.9339 0.92749 14.9339L 7.85288 14.9339C 8.36519 14.9339 8.78037 14.5303 8.78037 14.0325L 8.78037 8.35344L 13.4488 8.35344L 13.4488 14.0325C 13.4488 14.5305 13.864 14.934 14.3763 14.934L 21.3326 14.934C 21.8449 14.934 22.2601 14.5304 22.2601 14.0325L 22.2601 -2.48635e-07L 20.4051 -2.48635e-07Z"/>
<path id="path1_fill" d="M 28.7063 12.4729L 15.2574 0.243327C 14.9034 -0.0790967 14.3531 -0.0811886 13.9961 0.237601L 0.299907 12.4672C -0.0772627 12.8041 -0.102015 13.3741 0.244569 13.7407C 0.427292 13.9345 0.677077 14.0324 0.927825 14.0324C 1.15195 14.0324 1.37704 13.9537 1.55512 13.7947L 14.6181 2.13063L 27.439 13.7893C 27.8137 14.1298 28.3999 14.1103 28.7499 13.747C 29.0996 13.3834 29.0804 12.813 28.7063 12.4729Z"/>
</defs>
</svg>
