<svg width="24" height="24" viewBox="0 0 24 24" version="1.1" xmlns="http://www.w3.org/2000/svg" xmlns:xlink="http://www.w3.org/1999/xlink">
<title>resize</title>
<desc>Created using Figma</desc>
<g id="Canvas" transform="translate(-7233 -5882)">
<g id="resize">
<g id="Group">
<g id="Group">
<g id="Vector">
<use xlink:href="#path0_fill" transform="translate(7233 5882)" fill="#FFFFFF"/>
</g>
</g>
</g>
</g>
</g>
<defs>
<path id="path0_fill" d="M 23.25 0L 14.25 0C 13.836 0 13.5 0.336 13.5 0.75L 13.5 2.25C 13.5 2.664 13.836 3 14.25 3L 18.879 3L 3 18.879L 3 14.25C 3 13.836 2.664 13.5 2.25 13.5L 0.75 13.5C 0.336 13.5 0 13.836 0 14.25L 0 23.25C 0 23.664 0.336 24 0.75 24L 9.75 24C 10.164 24 10.5 23.664 10.5 23.25L 10.5 21.75C 10.5 21.336 10.164 21 9.75 21L 5.121 21L 21 5.121L 21 9.75C 21 10.164 21.336 10.5 21.75 10.5L 23.25 10.5C 23.664 10.5 24 10.164 24 9.75L 24 0.75C 24 0.336 23.664 0 23.25 0Z"/>
</defs>
</svg>
