<svg width="30" height="36" viewBox="0 0 30 36" version="1.1" xmlns="http://www.w3.org/2000/svg" xmlns:xlink="http://www.w3.org/1999/xlink">
<title>share icon</title>
<desc>Created using Figma</desc>
<g id="Canvas" transform="translate(-6697 -2818)">
<g id="share icon">
<g id="Group">
<g id="Group">
<g id="Vector">
<use xlink:href="#path0_fill" transform="translate(6697 2830.29)" fill="#FFFFFF"/>
</g>
</g>
</g>
<g id="Group">
<g id="Group">
<g id="Vector">
<use xlink:href="#path1_fill" transform="translate(6715.09 2818)" fill="#FFFFFF"/>
</g>
</g>
</g>
<g id="Group">
<g id="Group">
<g id="Vector">
<use xlink:href="#path2_fill" transform="translate(6715.09 2842.15)" fill="#FFFFFF"/>
</g>
</g>
</g>
<g id="Group">
<g id="Group">
<g id="Vector">
<use xlink:href="#path3_fill" transform="matrix(0.840906 -0.54123 0.544971 0.838487 6705.94 2832.79)" fill="#FFFFFF"/>
</g>
</g>
</g>
<g id="Group">
<g id="Group">
<g id="Vector">
<use xlink:href="#path4_fill" transform="matrix(0.546271 -0.837582 0.840011 0.54253 6705.94 2839.78)" fill="#FFFFFF"/>
</g>
</g>
</g>
</g>
</g>
<defs>
<path id="path0_fill" d="M 5.95587 -3.69072e-07C 2.67174 -3.69072e-07 5.17506e-08 2.65873 5.17506e-08 5.92685C 5.17506e-08 9.19498 2.67174 11.8537 5.95587 11.8537C 9.24 11.8537 11.9117 9.19498 11.9117 5.92685C 11.9117 2.65873 9.24 -3.69072e-07 5.95587 -3.69072e-07ZM 5.95587 9.21951C 4.13116 9.21951 2.64708 7.7426 2.64708 5.92685C 2.64708 4.1111 4.13123 2.63419 5.95587 2.63419C 7.78051 2.63419 9.26466 4.1111 9.26466 5.92685C 9.26466 7.7426 7.78058 9.21951 5.95587 9.21951Z"/>
<path id="path1_fill" d="M 5.95587 0C 2.67174 0 5.17506e-08 2.65873 5.17506e-08 5.92685C 5.17506e-08 9.19498 2.67174 11.8537 5.95587 11.8537C 9.24 11.8537 11.9117 9.19498 11.9117 5.92685C 11.9117 2.65873 9.24 0 5.95587 0ZM 5.95587 9.21951C 4.13116 9.21951 2.64708 7.74267 2.64708 5.92685C 2.64708 4.11103 4.13123 2.63419 5.95587 2.63419C 7.78051 2.63419 9.26466 4.11103 9.26466 5.92685C 9.26466 7.7426 7.78058 9.21951 5.95587 9.21951Z"/>
<path id="path2_fill" d="M 5.95587 6.00815e-07C 2.67174 6.00815e-07 5.17506e-08 2.65873 5.17506e-08 5.92685C 5.17506e-08 9.19498 2.67174 11.8536 5.95587 11.8536C 9.24 11.8536 11.9117 9.19491 11.9117 5.92678C 11.9117 2.65866 9.24 6.00815e-07 5.95587 6.00815e-07ZM 5.95587 9.21951C 4.13116 9.21951 2.64708 7.74267 2.64708 5.92685C 2.64708 4.11103 4.13123 2.63419 5.95587 2.63419C 7.78051 2.63419 9.26466 4.11103 9.26466 5.92685C 9.26466 7.7426 7.78058 9.21951 5.95587 9.21951Z"/>
<path id="path3_fill" d="M 13.221 0L 0 0L 0 2.638L 13.221 2.638L 13.221 0Z"/>
<path id="path4_fill" d="M 2.63795 0L 0 0L 0 12.8678L 2.63795 12.8678L 2.63795 0Z"/>
</defs>
</svg>
