<svg width="21" height="19" viewBox="0 0 21 19" version="1.1" xmlns="http://www.w3.org/2000/svg" xmlns:xlink="http://www.w3.org/1999/xlink">
<title>text</title>
<desc>Created using Figma</desc>
<g id="Canvas" transform="translate(-5675 -3240)">
<g id="text">
<g id="Group">
<g id="Vector">
<use xlink:href="#path0_fill" transform="translate(5675 3240)" fill="#2B2A29"/>
</g>
<g id="Vector">
<use xlink:href="#path1_fill" transform="translate(5675 3244.28)" fill="#2B2A29"/>
</g>
<g id="Vector">
<use xlink:href="#path2_fill" transform="translate(5675 3248.57)" fill="#2B2A29"/>
</g>
<g id="Vector">
<use xlink:href="#path3_fill" transform="translate(5675 3252.85)" fill="#2B2A29"/>
</g>
<g id="Vector">
<use xlink:href="#path4_fill" transform="translate(5675 3257.14)" fill="#2B2A29"/>
</g>
</g>
</g>
</g>
<defs>
<path id="path0_fill" d="M 21 0L 0 0L 0 1.86171L 21 1.86171L 21 0Z"/>
<path id="path1_fill" d="M 15.9643 0L 0 0L 0 1.86171L 15.9643 1.86171L 15.9643 0Z"/>
<path id="path2_fill" d="M 21 0L 0 0L 0 1.86171L 21 1.86171L 21 0Z"/>
<path id="path3_fill" d="M 15.9643 0L 0 0L 0 1.86171L 15.9643 1.86171L 15.9643 0Z"/>
<path id="path4_fill" d="M 21 0L 0 0L 0 1.86171L 21 1.86171L 21 0Z"/>
</defs>
</svg>
