<svg width="27" height="27" viewBox="0 0 27 27" version="1.1" xmlns="http://www.w3.org/2000/svg" xmlns:xlink="http://www.w3.org/1999/xlink">
<title>bus</title>
<desc>Created using Figma</desc>
<g id="Canvas" transform="translate(-5678 -5688)">
<g id="bus">
<g id="Group">
<g id="Group">
<g id="Vector">
<use xlink:href="#path0_fill" transform="translate(5681.08 5689)" fill="#2B2A29"/>
<use xlink:href="#path1_stroke" transform="translate(5681.08 5689)" fill="#2B2A29"/>
</g>
</g>
</g>
<g id="Group">
<g id="Group">
<g id="Vector">
<use xlink:href="#path2_fill" transform="translate(5679 5696.29)" fill="#2B2A29"/>
<use xlink:href="#path3_stroke" transform="translate(5679 5696.29)" fill="#2B2A29"/>
</g>
</g>
</g>
<g id="Group">
<g id="Group">
<g id="Vector">
<use xlink:href="#path4_fill" transform="translate(5700.88 5696.29)" fill="#2B2A29"/>
<use xlink:href="#path5_stroke" transform="translate(5700.88 5696.29)" fill="#2B2A29"/>
</g>
</g>
</g>
<g id="Group">
<g id="Group">
<g id="Vector">
<use xlink:href="#path6_fill" transform="translate(5684.21 5705.67)" fill="#2B2A29"/>
<use xlink:href="#path7_stroke" transform="translate(5684.21 5705.67)" fill="#2B2A29"/>
</g>
</g>
</g>
<g id="Group">
<g id="Group">
<g id="Vector">
<use xlink:href="#path8_fill" transform="translate(5695.67 5705.67)" fill="#2B2A29"/>
<use xlink:href="#path9_stroke" transform="translate(5695.67 5705.67)" fill="#2B2A29"/>
</g>
</g>
</g>
<g id="Group">
<g id="Group">
<g id="Vector">
<use xlink:href="#path10_fill" transform="translate(5683.17 5710.88)" fill="#2B2A29"/>
<use xlink:href="#path11_stroke" transform="translate(5683.17 5710.88)" fill="#2B2A29"/>
</g>
</g>
</g>
<g id="Group">
<g id="Group">
<g id="Vector">
<use xlink:href="#path12_fill" transform="translate(5694.62 5710.88)" fill="#2B2A29"/>
<use xlink:href="#path13_stroke" transform="translate(5694.62 5710.88)" fill="#2B2A29"/>
</g>
</g>
</g>
<g id="Group">
<g id="Group">
<g id="Vector">
<use xlink:href="#path14_fill" transform="translate(5683.17 5694.25)" fill="#2B2A29"/>
<use xlink:href="#path15_stroke" transform="translate(5683.17 5694.25)" fill="#2B2A29"/>
</g>
</g>
</g>
</g>
</g>
<defs>
<path id="path0_fill" d="M 18.2292 0L 2.60415 0C 1.16768 0 -8.9407e-09 1.16875 -8.9407e-09 2.60415L -8.9407e-09 20.3125C -8.9407e-09 21.7479 1.16772 22.9167 2.60415 22.9167L 18.2292 22.9167C 19.6656 22.9167 20.8333 21.7479 20.8333 20.3125L 20.8333 2.60415C 20.8333 1.16875 19.6656 0 18.2292 0ZM 19.7917 20.3125C 19.7917 21.174 19.0906 21.875 18.2292 21.875L 2.60415 21.875C 1.74268 21.875 1.04165 21.174 1.04165 20.3125L 1.04165 2.60415C 1.04165 1.74268 1.74268 1.04165 2.60415 1.04165L 18.2292 1.04165C 19.0906 1.04165 19.7917 1.74268 19.7917 2.60415L 19.7917 20.3125Z"/>
<path id="path1_stroke" d="M 20.8333 2.60415L 20.4583 2.60415L 20.8333 2.60415ZM 18.2292 -0.375L 2.60415 -0.375L 2.60415 0.375L 18.2292 0.375L 18.2292 -0.375ZM 2.60415 -0.375C 0.960468 -0.375 -0.375 0.961744 -0.375 2.60415L 0.375 2.60415C 0.375 1.37576 1.37488 0.375 2.60415 0.375L 2.60415 -0.375ZM -0.375 2.60415L -0.375 20.3125L 0.375 20.3125L 0.375 2.60415L -0.375 2.60415ZM -0.375 20.3125C -0.375 21.9549 0.960522 23.2917 2.60415 23.2917L 2.60415 22.5417C 1.37493 22.5417 0.375 21.5409 0.375 20.3125L -0.375 20.3125ZM 2.60415 23.2917L 18.2292 23.2917L 18.2292 22.5417L 2.60415 22.5417L 2.60415 23.2917ZM 18.2292 23.2917C 19.8728 23.2917 21.2083 21.9549 21.2083 20.3125L 20.4583 20.3125C 20.4583 21.5409 19.4584 22.5417 18.2292 22.5417L 18.2292 23.2917ZM 21.2083 20.3125L 21.2083 2.60415L 20.4583 2.60415L 20.4583 20.3125L 21.2083 20.3125ZM 21.2083 2.60415C 21.2083 0.961744 19.8728 -0.375 18.2292 -0.375L 18.2292 0.375C 19.4584 0.375 20.4583 1.37576 20.4583 2.60415L 21.2083 2.60415ZM 19.4167 20.3125C 19.4167 20.9669 18.8835 21.5 18.2292 21.5L 18.2292 22.25C 19.2977 22.25 20.1667 21.3811 20.1667 20.3125L 19.4167 20.3125ZM 18.2292 21.5L 2.60415 21.5L 2.60415 22.25L 18.2292 22.25L 18.2292 21.5ZM 2.60415 21.5C 1.94978 21.5 1.41665 20.9669 1.41665 20.3125L 0.66665 20.3125C 0.66665 21.3811 1.53557 22.25 2.60415 22.25L 2.60415 21.5ZM 1.41665 20.3125L 1.41665 2.60415L 0.66665 2.60415L 0.66665 20.3125L 1.41665 20.3125ZM 1.41665 2.60415C 1.41665 1.94978 1.94978 1.41665 2.60415 1.41665L 2.60415 0.66665C 1.53557 0.66665 0.66665 1.53557 0.66665 2.60415L 1.41665 2.60415ZM 2.60415 1.41665L 18.2292 1.41665L 18.2292 0.66665L 2.60415 0.66665L 2.60415 1.41665ZM 18.2292 1.41665C 18.8835 1.41665 19.4167 1.94978 19.4167 2.60415L 20.1667 2.60415C 20.1667 1.53557 19.2977 0.66665 18.2292 0.66665L 18.2292 1.41665ZM 19.4167 2.60415L 19.4167 20.3125L 20.1667 20.3125L 20.1667 2.60415L 19.4167 2.60415Z"/>
<path id="path2_fill" d="M 2.60415 4.1667L 1.5625 4.1667C 1.27603 4.1667 1.04165 3.93335 1.04165 3.64585L 1.04165 2.6042C 1.04165 1.74273 1.74268 1.0417 2.60415 1.0417C 2.89165 1.0417 3.125 0.80835 3.125 0.52085C 3.125 0.23335 2.89165 -3.63588e-07 2.60415 -3.63588e-07C 1.16772 -3.63588e-07 0 1.16875 0 2.6042L 0 3.64585C 0 4.50732 0.701025 5.20835 1.5625 5.20835L 2.60415 5.20835C 2.89165 5.20835 3.125 4.975 3.125 4.6875C 3.125 4.4 2.89165 4.1667 2.60415 4.1667Z"/>
<path id="path3_stroke" d="M 2.60415 3.9167L 1.5625 3.9167L 1.5625 4.4167L 2.60415 4.4167L 2.60415 3.9167ZM 1.5625 3.9167C 1.41378 3.9167 1.29165 3.79496 1.29165 3.64585L 0.79165 3.64585C 0.79165 4.07174 1.13827 4.4167 1.5625 4.4167L 1.5625 3.9167ZM 1.29165 3.64585L 1.29165 2.6042L 0.79165 2.6042L 0.79165 3.64585L 1.29165 3.64585ZM 1.29165 2.6042C 1.29165 1.8808 1.88075 1.2917 2.60415 1.2917L 2.60415 0.7917C 1.6046 0.7917 0.79165 1.60465 0.79165 2.6042L 1.29165 2.6042ZM 2.60415 1.2917C 3.02972 1.2917 3.375 0.946421 3.375 0.52085L 2.875 0.52085C 2.875 0.670279 2.75358 0.7917 2.60415 0.7917L 2.60415 1.2917ZM 3.375 0.52085C 3.375 0.0952786 3.02972 -0.25 2.60415 -0.25L 2.60415 0.25C 2.75358 0.25 2.875 0.371421 2.875 0.52085L 3.375 0.52085ZM 2.60415 -0.25C 1.02959 -0.25 -0.25 1.03075 -0.25 2.6042L 0.25 2.6042C 0.25 1.30675 1.30586 0.25 2.60415 0.25L 2.60415 -0.25ZM -0.25 2.6042L -0.25 3.64585L 0.25 3.64585L 0.25 2.6042L -0.25 2.6042ZM -0.25 3.64585C -0.25 4.6454 0.562954 5.45835 1.5625 5.45835L 1.5625 4.95835C 0.839097 4.95835 0.25 4.36925 0.25 3.64585L -0.25 3.64585ZM 1.5625 5.45835L 2.60415 5.45835L 2.60415 4.95835L 1.5625 4.95835L 1.5625 5.45835ZM 2.60415 5.45835C 3.02972 5.45835 3.375 5.11307 3.375 4.6875L 2.875 4.6875C 2.875 4.83693 2.75358 4.95835 2.60415 4.95835L 2.60415 5.45835ZM 3.375 4.6875C 3.375 4.2619 3.02969 3.9167 2.60415 3.9167L 2.60415 4.4167C 2.75361 4.4167 2.875 4.5381 2.875 4.6875L 3.375 4.6875Z"/>
<path id="path4_fill" d="M 0.520849 -3.63588e-07C 0.233349 -3.63588e-07 0 0.23335 0 0.52085C 0 0.80835 0.233349 1.0417 0.520849 1.0417C 1.38232 1.0417 2.08335 1.74273 2.08335 2.6042L 2.08335 3.64585C 2.08335 3.93335 1.84897 4.1667 1.5625 4.1667L 0.520849 4.1667C 0.233349 4.1667 0 4.40005 0 4.68755C 0 4.97505 0.233349 5.20835 0.520849 5.20835L 1.5625 5.20835C 2.42397 5.20835 3.125 4.50732 3.125 3.64585L 3.125 2.6042C 3.125 1.16875 1.95727 -3.63588e-07 0.520849 -3.63588e-07Z"/>
<path id="path5_stroke" d="M 0.520849 -0.25C 0.0952776 -0.25 -0.25 0.0952789 -0.25 0.52085L 0.25 0.52085C 0.25 0.37142 0.371421 0.25 0.520849 0.25L 0.520849 -0.25ZM -0.25 0.52085C -0.25 0.94642 0.0952776 1.2917 0.520849 1.2917L 0.520849 0.7917C 0.371421 0.7917 0.25 0.670279 0.25 0.52085L -0.25 0.52085ZM 0.520849 1.2917C 1.24425 1.2917 1.83335 1.8808 1.83335 2.6042L 2.33335 2.6042C 2.33335 1.60465 1.5204 0.7917 0.520849 0.7917L 0.520849 1.2917ZM 1.83335 2.6042L 1.83335 3.64585L 2.33335 3.64585L 2.33335 2.6042L 1.83335 2.6042ZM 1.83335 3.64585C 1.83335 3.79496 1.71122 3.9167 1.5625 3.9167L 1.5625 4.4167C 1.98673 4.4167 2.33335 4.07174 2.33335 3.64585L 1.83335 3.64585ZM 1.5625 3.9167L 0.520849 3.9167L 0.520849 4.4167L 1.5625 4.4167L 1.5625 3.9167ZM 0.520849 3.9167C 0.095278 3.9167 -0.25 4.26198 -0.25 4.68755L 0.25 4.68755C 0.25 4.53812 0.37142 4.4167 0.520849 4.4167L 0.520849 3.9167ZM -0.25 4.68755C -0.25 5.11315 0.0953083 5.45835 0.520849 5.45835L 0.520849 4.95835C 0.37139 4.95835 0.25 4.83695 0.25 4.68755L -0.25 4.68755ZM 0.520849 5.45835L 1.5625 5.45835L 1.5625 4.95835L 0.520849 4.95835L 0.520849 5.45835ZM 1.5625 5.45835C 2.56205 5.45835 3.375 4.6454 3.375 3.64585L 2.875 3.64585C 2.875 4.36925 2.2859 4.95835 1.5625 4.95835L 1.5625 5.45835ZM 3.375 3.64585L 3.375 2.6042L 2.875 2.6042L 2.875 3.64585L 3.375 3.64585ZM 3.375 2.6042C 3.375 1.03075 2.09541 -0.25 0.520849 -0.25L 0.520849 0.25C 1.81914 0.25 2.875 1.30675 2.875 2.6042L 3.375 2.6042Z"/>
<path id="path6_fill" d="M 1.5625 3.8147e-07C 0.701026 3.8147e-07 -8.9407e-09 0.701026 -8.9407e-09 1.5625C -8.9407e-09 2.42397 0.701026 3.125 1.5625 3.125C 2.42397 3.125 3.125 2.42397 3.125 1.5625C 3.125 0.701075 2.42393 3.8147e-07 1.5625 3.8147e-07ZM 1.5625 2.08335C 1.27603 2.08335 1.04165 1.85 1.04165 1.5625C 1.04165 1.275 1.27603 1.04165 1.5625 1.04165C 1.84897 1.04165 2.08335 1.275 2.08335 1.5625C 2.0833 1.85 1.84893 2.08335 1.5625 2.08335Z"/>
<path id="path7_stroke" d="M 2.08335 1.5625L 2.45835 1.56256L 2.45835 1.5625L 2.08335 1.5625ZM 1.5625 -0.375C 0.493919 -0.375 -0.375 0.493919 -0.375 1.5625L 0.375 1.5625C 0.375 0.908133 0.908132 0.375 1.5625 0.375L 1.5625 -0.375ZM -0.375 1.5625C -0.375 2.63108 0.493919 3.5 1.5625 3.5L 1.5625 2.75C 0.908132 2.75 0.375 2.21687 0.375 1.5625L -0.375 1.5625ZM 1.5625 3.5C 2.63108 3.5 3.5 2.63108 3.5 1.5625L 2.75 1.5625C 2.75 2.21687 2.21687 2.75 1.5625 2.75L 1.5625 3.5ZM 3.5 1.5625C 3.5 0.493968 2.63103 -0.375 1.5625 -0.375L 1.5625 0.375C 2.21682 0.375 2.75 0.908181 2.75 1.5625L 3.5 1.5625ZM 1.5625 1.70835C 1.48265 1.70835 1.41665 1.64241 1.41665 1.5625L 0.66665 1.5625C 0.66665 2.05759 1.0694 2.45835 1.5625 2.45835L 1.5625 1.70835ZM 1.41665 1.5625C 1.41665 1.48259 1.48265 1.41665 1.5625 1.41665L 1.5625 0.66665C 1.0694 0.66665 0.66665 1.06741 0.66665 1.5625L 1.41665 1.5625ZM 1.5625 1.41665C 1.64235 1.41665 1.70835 1.48259 1.70835 1.5625L 2.45835 1.5625C 2.45835 1.06741 2.0556 0.66665 1.5625 0.66665L 1.5625 1.41665ZM 1.70835 1.56244C 1.70834 1.64243 1.64226 1.70835 1.5625 1.70835L 1.5625 2.45835C 2.05559 2.45835 2.45827 2.05757 2.45835 1.56256L 1.70835 1.56244Z"/>
<path id="path8_fill" d="M 1.5625 3.8147e-07C 0.701026 3.8147e-07 3.8147e-07 0.701026 3.8147e-07 1.5625C 3.8147e-07 2.42397 0.701026 3.125 1.5625 3.125C 2.42397 3.125 3.125 2.42397 3.125 1.5625C 3.125 0.701075 2.42397 3.8147e-07 1.5625 3.8147e-07ZM 1.5625 2.08335C 1.27603 2.08335 1.04165 1.85 1.04165 1.5625C 1.04165 1.275 1.27603 1.04165 1.5625 1.04165C 1.84897 1.04165 2.08335 1.275 2.08335 1.5625C 2.08335 1.85 1.84897 2.08335 1.5625 2.08335Z"/>
<path id="path9_stroke" d="M 1.5625 -0.375C 0.493919 -0.375 -0.375 0.493919 -0.375 1.5625L 0.375 1.5625C 0.375 0.908133 0.908133 0.375 1.5625 0.375L 1.5625 -0.375ZM -0.375 1.5625C -0.375 2.63108 0.493919 3.5 1.5625 3.5L 1.5625 2.75C 0.908133 2.75 0.375 2.21687 0.375 1.5625L -0.375 1.5625ZM 1.5625 3.5C 2.63108 3.5 3.5 2.63108 3.5 1.5625L 2.75 1.5625C 2.75 2.21687 2.21687 2.75 1.5625 2.75L 1.5625 3.5ZM 3.5 1.5625C 3.5 0.493975 2.63109 -0.375 1.5625 -0.375L 1.5625 0.375C 2.21686 0.375 2.75 0.908174 2.75 1.5625L 3.5 1.5625ZM 1.5625 1.70835C 1.48265 1.70835 1.41665 1.64241 1.41665 1.5625L 0.66665 1.5625C 0.66665 2.05759 1.0694 2.45835 1.5625 2.45835L 1.5625 1.70835ZM 1.41665 1.5625C 1.41665 1.48259 1.48265 1.41665 1.5625 1.41665L 1.5625 0.66665C 1.0694 0.66665 0.66665 1.06741 0.66665 1.5625L 1.41665 1.5625ZM 1.5625 1.41665C 1.64235 1.41665 1.70835 1.48259 1.70835 1.5625L 2.45835 1.5625C 2.45835 1.06741 2.0556 0.66665 1.5625 0.66665L 1.5625 1.41665ZM 1.70835 1.5625C 1.70835 1.64241 1.64235 1.70835 1.5625 1.70835L 1.5625 2.45835C 2.0556 2.45835 2.45835 2.05759 2.45835 1.5625L 1.70835 1.5625Z"/>
<path id="path10_fill" d="M 4.6876 0C 4.4001 0 4.16675 0.233349 4.16675 0.520849L 4.16675 1.5625C 4.16675 1.85 3.93237 2.08335 3.6459 2.08335L 1.56255 2.08335C 1.27607 2.08335 1.0417 1.85 1.0417 1.5625L 1.0417 0.520849C 1.0417 0.233349 0.80835 0 0.52085 0C 0.23335 0 6.25849e-08 0.233349 6.25849e-08 0.520849L 6.25849e-08 1.5625C 6.25849e-08 2.42397 0.701025 3.125 1.5625 3.125L 3.64595 3.125C 4.50742 3.125 5.20845 2.42397 5.20845 1.5625L 5.20845 0.520849C 5.20845 0.233349 4.9751 0 4.6876 0Z"/>
<path id="path11_stroke" d="M 4.6876 -0.375C 4.19299 -0.375 3.79175 0.0262424 3.79175 0.520849L 4.54175 0.520849C 4.54175 0.440456 4.6072 0.375 4.6876 0.375L 4.6876 -0.375ZM 3.79175 0.520849L 3.79175 1.5625L 4.54175 1.5625L 4.54175 0.520849L 3.79175 0.520849ZM 3.79175 1.5625C 3.79175 1.64241 3.72575 1.70835 3.6459 1.70835L 3.6459 2.45835C 4.139 2.45835 4.54175 2.05759 4.54175 1.5625L 3.79175 1.5625ZM 3.6459 1.70835L 1.56255 1.70835L 1.56255 2.45835L 3.6459 2.45835L 3.6459 1.70835ZM 1.56255 1.70835C 1.4827 1.70835 1.4167 1.64241 1.4167 1.5625L 0.666699 1.5625C 0.666699 2.05759 1.06945 2.45835 1.56255 2.45835L 1.56255 1.70835ZM 1.4167 1.5625L 1.4167 0.520849L 0.666699 0.520849L 0.666699 1.5625L 1.4167 1.5625ZM 1.4167 0.520849C 1.4167 0.026242 1.01546 -0.375 0.52085 -0.375L 0.52085 0.375C 0.601243 0.375 0.666699 0.440456 0.666699 0.520849L 1.4167 0.520849ZM 0.52085 -0.375C 0.0262432 -0.375 -0.375 0.0262421 -0.375 0.520849L 0.375 0.520849C 0.375 0.440456 0.440456 0.375 0.52085 0.375L 0.52085 -0.375ZM -0.375 0.520849L -0.375 1.5625L 0.375 1.5625L 0.375 0.520849L -0.375 0.520849ZM -0.375 1.5625C -0.375 2.63108 0.493919 3.5 1.5625 3.5L 1.5625 2.75C 0.908132 2.75 0.375 2.21687 0.375 1.5625L -0.375 1.5625ZM 1.5625 3.5L 3.64595 3.5L 3.64595 2.75L 1.5625 2.75L 1.5625 3.5ZM 3.64595 3.5C 4.71453 3.5 5.58345 2.63108 5.58345 1.5625L 4.83345 1.5625C 4.83345 2.21687 4.30032 2.75 3.64595 2.75L 3.64595 3.5ZM 5.58345 1.5625L 5.58345 0.520849L 4.83345 0.520849L 4.83345 1.5625L 5.58345 1.5625ZM 5.58345 0.520849C 5.58345 0.0262417 5.1822 -0.375 4.6876 -0.375L 4.6876 0.375C 4.76799 0.375 4.83345 0.440457 4.83345 0.520849L 5.58345 0.520849Z"/>
<path id="path12_fill" d="M 4.6875 0C 4.4 0 4.16665 0.233349 4.16665 0.520849L 4.16665 1.5625C 4.16665 1.85 3.93227 2.08335 3.6458 2.08335L 1.5625 2.08335C 1.27603 2.08335 1.04165 1.85 1.04165 1.5625L 1.04165 0.520849C 1.04165 0.233349 0.8083 0 0.5208 0C 0.2333 0 0 0.233349 0 0.520849L 0 1.5625C 0 2.42397 0.701025 3.125 1.5625 3.125L 3.64585 3.125C 4.50732 3.125 5.20835 2.42397 5.20835 1.5625L 5.20835 0.520849C 5.20835 0.233349 4.975 0 4.6875 0Z"/>
<path id="path13_stroke" d="M 5.20835 0.520849L 5.58335 0.520849L 5.20835 0.520849ZM 4.6875 -0.375C 4.19289 -0.375 3.79165 0.0262424 3.79165 0.520849L 4.54165 0.520849C 4.54165 0.440456 4.60711 0.375 4.6875 0.375L 4.6875 -0.375ZM 3.79165 0.520849L 3.79165 1.5625L 4.54165 1.5625L 4.54165 0.520849L 3.79165 0.520849ZM 3.79165 1.5625C 3.79165 1.64241 3.72565 1.70835 3.6458 1.70835L 3.6458 2.45835C 4.1389 2.45835 4.54165 2.05759 4.54165 1.5625L 3.79165 1.5625ZM 3.6458 1.70835L 1.5625 1.70835L 1.5625 2.45835L 3.6458 2.45835L 3.6458 1.70835ZM 1.5625 1.70835C 1.48265 1.70835 1.41665 1.64241 1.41665 1.5625L 0.666651 1.5625C 0.666651 2.05759 1.0694 2.45835 1.5625 2.45835L 1.5625 1.70835ZM 1.41665 1.5625L 1.41665 0.520849L 0.666651 0.520849L 0.666651 1.5625L 1.41665 1.5625ZM 1.41665 0.520849C 1.41665 0.026241 1.01541 -0.375 0.5208 -0.375L 0.5208 0.375C 0.601195 0.375 0.666651 0.440457 0.666651 0.520849L 1.41665 0.520849ZM 0.5208 -0.375C 0.0261472 -0.375 -0.375 0.0262886 -0.375 0.520849L 0.375 0.520849C 0.375 0.44041 0.440453 0.375 0.5208 0.375L 0.5208 -0.375ZM -0.375 0.520849L -0.375 1.5625L 0.375 1.5625L 0.375 0.520849L -0.375 0.520849ZM -0.375 1.5625C -0.375 2.63108 0.493919 3.5 1.5625 3.5L 1.5625 2.75C 0.908132 2.75 0.375 2.21687 0.375 1.5625L -0.375 1.5625ZM 1.5625 3.5L 3.64585 3.5L 3.64585 2.75L 1.5625 2.75L 1.5625 3.5ZM 3.64585 3.5C 4.71443 3.5 5.58335 2.63108 5.58335 1.5625L 4.83335 1.5625C 4.83335 2.21687 4.30022 2.75 3.64585 2.75L 3.64585 3.5ZM 5.58335 1.5625L 5.58335 0.520849L 4.83335 0.520849L 4.83335 1.5625L 5.58335 1.5625ZM 5.58335 0.520849C 5.58335 0.0262424 5.18211 -0.375 4.6875 -0.375L 4.6875 0.375C 4.76789 0.375 4.83335 0.440456 4.83335 0.520849L 5.58335 0.520849Z"/>
<path id="path14_fill" d="M 15.1042 0L 1.5625 0C 0.701025 0 8.9407e-09 0.701025 8.9407e-09 1.5625L 8.9407e-09 6.77085C 8.9407e-09 7.63232 0.701025 8.33335 1.5625 8.33335L 15.1041 8.33335C 15.9656 8.33335 16.6666 7.63232 16.6666 6.77085L 16.6666 1.5625C 16.6667 0.701025 15.9656 0 15.1042 0ZM 15.625 6.77085C 15.625 7.05835 15.3906 7.2917 15.1041 7.2917L 1.5625 7.2917C 1.27603 7.2917 1.04165 7.05835 1.04165 6.77085L 1.04165 1.5625C 1.04165 1.275 1.27603 1.04165 1.5625 1.04165L 15.1041 1.04165C 15.3906 1.04165 15.625 1.275 15.625 1.5625L 15.625 6.77085Z"/>
<path id="path15_stroke" d="M 16.6666 1.5625L 16.2916 1.56248L 16.2916 1.5625L 16.6666 1.5625ZM 15.1042 -0.375L 1.5625 -0.375L 1.5625 0.375L 15.1042 0.375L 15.1042 -0.375ZM 1.5625 -0.375C 0.493919 -0.375 -0.375 0.493919 -0.375 1.5625L 0.375 1.5625C 0.375 0.908132 0.908132 0.375 1.5625 0.375L 1.5625 -0.375ZM -0.375 1.5625L -0.375 6.77085L 0.375 6.77085L 0.375 1.5625L -0.375 1.5625ZM -0.375 6.77085C -0.375 7.83943 0.493919 8.70835 1.5625 8.70835L 1.5625 7.95835C 0.908132 7.95835 0.375 7.42522 0.375 6.77085L -0.375 6.77085ZM 1.5625 8.70835L 15.1041 8.70835L 15.1041 7.95835L 1.5625 7.95835L 1.5625 8.70835ZM 15.1041 8.70835C 16.1727 8.70835 17.0416 7.83943 17.0416 6.77085L 16.2916 6.77085C 16.2916 7.42522 15.7585 7.95835 15.1041 7.95835L 15.1041 8.70835ZM 17.0416 6.77085L 17.0416 1.5625L 16.2916 1.5625L 16.2916 6.77085L 17.0416 6.77085ZM 17.0416 1.56252C 17.0417 0.493912 16.1727 -0.375 15.1042 -0.375L 15.1042 0.375C 15.7585 0.375 16.2917 0.908139 16.2916 1.56248L 17.0416 1.56252ZM 15.25 6.77085C 15.25 6.85076 15.184 6.9167 15.1041 6.9167L 15.1041 7.6667C 15.5972 7.6667 16 7.26594 16 6.77085L 15.25 6.77085ZM 15.1041 6.9167L 1.5625 6.9167L 1.5625 7.6667L 15.1041 7.6667L 15.1041 6.9167ZM 1.5625 6.9167C 1.48265 6.9167 1.41665 6.85076 1.41665 6.77085L 0.66665 6.77085C 0.66665 7.26593 1.0694 7.6667 1.5625 7.6667L 1.5625 6.9167ZM 1.41665 6.77085L 1.41665 1.5625L 0.66665 1.5625L 0.66665 6.77085L 1.41665 6.77085ZM 1.41665 1.5625C 1.41665 1.48259 1.48265 1.41665 1.5625 1.41665L 1.5625 0.66665C 1.0694 0.66665 0.66665 1.06741 0.66665 1.5625L 1.41665 1.5625ZM 1.5625 1.41665L 15.1041 1.41665L 15.1041 0.66665L 1.5625 0.66665L 1.5625 1.41665ZM 15.1041 1.41665C 15.184 1.41665 15.25 1.48259 15.25 1.5625L 16 1.5625C 16 1.06741 15.5972 0.66665 15.1041 0.66665L 15.1041 1.41665ZM 15.25 1.5625L 15.25 6.77085L 16 6.77085L 16 1.5625L 15.25 1.5625Z"/>
</defs>
</svg>
