<svg width="28" height="27" viewBox="0 0 28 27" version="1.1" xmlns="http://www.w3.org/2000/svg" xmlns:xlink="http://www.w3.org/1999/xlink">
<title>company</title>
<desc>Created using Figma</desc>
<g id="Canvas" transform="translate(-9805 -5789)">
<g id="company">
<g id="Group">
<g id="Vector">
<use xlink:href="#path0_fill" transform="translate(9810.37 5805.39)" fill="#2F80ED"/>
</g>
<g id="Vector">
<use xlink:href="#path1_fill" transform="translate(9813.56 5805.39)" fill="#2F80ED"/>
</g>
<g id="Vector">
<use xlink:href="#path2_fill" transform="translate(9816.76 5805.39)" fill="#2F80ED"/>
</g>
<g id="Vector">
<use xlink:href="#path3_fill" transform="translate(9819.64 5805.39)" fill="#2F80ED"/>
</g>
<g id="Vector">
<use xlink:href="#path4_fill" transform="translate(9822.84 5805.39)" fill="#2F80ED"/>
</g>
<g id="Vector">
<use xlink:href="#path5_fill" transform="translate(9826.03 5805.39)" fill="#2F80ED"/>
</g>
<g id="Vector">
<use xlink:href="#path6_fill" transform="translate(9810.37 5800.83)" fill="#2F80ED"/>
</g>
<g id="Vector">
<use xlink:href="#path7_fill" transform="translate(9813.56 5800.83)" fill="#2F80ED"/>
</g>
<g id="Vector">
<use xlink:href="#path8_fill" transform="translate(9816.76 5800.83)" fill="#2F80ED"/>
</g>
<g id="Vector">
<use xlink:href="#path9_fill" transform="translate(9819.64 5800.83)" fill="#2F80ED"/>
</g>
<g id="Vector">
<use xlink:href="#path10_fill" transform="translate(9822.84 5800.83)" fill="#2F80ED"/>
</g>
<g id="Vector">
<use xlink:href="#path11_fill" transform="translate(9826.03 5800.83)" fill="#2F80ED"/>
</g>
<g id="Vector">
<use xlink:href="#path12_fill" transform="translate(9815 5792.47)" fill="#2F80ED"/>
</g>
<g id="Vector">
<use xlink:href="#path13_fill" transform="translate(9818.2 5792.47)" fill="#2F80ED"/>
</g>
<g id="Vector">
<use xlink:href="#path14_fill" transform="translate(9821.4 5792.47)" fill="#2F80ED"/>
</g>
<g id="Vector">
<use xlink:href="#path15_fill" transform="translate(9805 5789)" fill="#2F80ED"/>
</g>
</g>
</g>
</g>
<defs>
<path id="path0_fill" d="M 0.799064 8.84353e-07C 0.357752 8.84353e-07 4.8771e-08 0.366205 4.8771e-08 0.817942L 4.8771e-08 2.23777C 4.8771e-08 2.68951 0.357752 3.05571 0.799064 3.05571C 1.24038 3.05571 1.59813 2.68951 1.59813 2.23777L 1.59813 0.817942C 1.59813 0.366205 1.24049 8.84353e-07 0.799064 8.84353e-07Z"/>
<path id="path1_fill" d="M 0.799064 8.84353e-07C 0.357752 8.84353e-07 -1.39346e-08 0.366205 -1.39346e-08 0.817942L -1.39346e-08 2.23777C -1.39346e-08 2.68951 0.357752 3.05571 0.799064 3.05571C 1.24038 3.05571 1.59813 2.68951 1.59813 2.23777L 1.59813 0.817942C 1.59813 0.366205 1.24049 8.84353e-07 0.799064 8.84353e-07Z"/>
<path id="path2_fill" d="M 0.799064 8.84353e-07C 0.357752 8.84353e-07 -1.39346e-07 0.366205 -1.39346e-07 0.817942L -1.39346e-07 2.23777C -1.39346e-07 2.68951 0.357752 3.05571 0.799064 3.05571C 1.24038 3.05571 1.59813 2.68951 1.59813 2.23777L 1.59813 0.817942C 1.59813 0.366205 1.24038 8.84353e-07 0.799064 8.84353e-07Z"/>
<path id="path3_fill" d="M 0.799064 8.84353e-07C 0.357753 8.84353e-07 4.31972e-07 0.366205 4.31972e-07 0.817942L 4.31972e-07 2.23777C 4.31972e-07 2.68951 0.357753 3.05571 0.799064 3.05571C 1.24038 3.05571 1.59813 2.68951 1.59813 2.23777L 1.59813 0.817942C 1.59813 0.366205 1.24038 8.84353e-07 0.799064 8.84353e-07Z"/>
<path id="path4_fill" d="M 0.799064 8.84353e-07C 0.357753 8.84353e-07 3.06561e-07 0.366205 3.06561e-07 0.817942L 3.06561e-07 2.23777C 3.06561e-07 2.68951 0.357753 3.05571 0.799064 3.05571C 1.24038 3.05571 1.59813 2.68951 1.59813 2.23777L 1.59813 0.817942C 1.59813 0.366205 1.24038 8.84353e-07 0.799064 8.84353e-07Z"/>
<path id="path5_fill" d="M 0.799063 8.84353e-07C 0.357752 8.84353e-07 -6.27056e-07 0.366205 -6.27056e-07 0.817942L -6.27056e-07 2.23777C -6.27056e-07 2.68951 0.357752 3.05571 0.799063 3.05571C 1.24037 3.05571 1.59813 2.68951 1.59813 2.23777L 1.59813 0.817942C 1.59813 0.366205 1.24037 8.84353e-07 0.799063 8.84353e-07Z"/>
<path id="path6_fill" d="M 0.799064 3.49462e-07C 0.357752 3.49462e-07 4.8771e-08 0.366204 4.8771e-08 0.817941L 4.8771e-08 2.23777C 4.8771e-08 2.68951 0.357752 3.05571 0.799064 3.05571C 1.24038 3.05571 1.59813 2.68951 1.59813 2.23777L 1.59813 0.817941C 1.59813 0.366204 1.24049 3.49462e-07 0.799064 3.49462e-07Z"/>
<path id="path7_fill" d="M 0.799064 3.49462e-07C 0.357752 3.49462e-07 -1.39346e-08 0.366204 -1.39346e-08 0.817941L -1.39346e-08 2.23777C -1.39346e-08 2.68951 0.357752 3.05571 0.799064 3.05571C 1.24038 3.05571 1.59813 2.68951 1.59813 2.23777L 1.59813 0.817941C 1.59813 0.366204 1.24049 3.49462e-07 0.799064 3.49462e-07Z"/>
<path id="path8_fill" d="M 0.799064 3.49462e-07C 0.357752 3.49462e-07 -1.39346e-07 0.366204 -1.39346e-07 0.817941L -1.39346e-07 2.23777C -1.39346e-07 2.68951 0.357752 3.05571 0.799064 3.05571C 1.24038 3.05571 1.59813 2.68951 1.59813 2.23777L 1.59813 0.817941C 1.59813 0.366204 1.24038 3.49462e-07 0.799064 3.49462e-07Z"/>
<path id="path9_fill" d="M 0.799064 3.49462e-07C 0.357753 3.49462e-07 4.31972e-07 0.366204 4.31972e-07 0.817941L 4.31972e-07 2.23777C 4.31972e-07 2.68951 0.357753 3.05571 0.799064 3.05571C 1.24038 3.05571 1.59813 2.68951 1.59813 2.23777L 1.59813 0.817941C 1.59813 0.366204 1.24038 3.49462e-07 0.799064 3.49462e-07Z"/>
<path id="path10_fill" d="M 0.799064 3.49462e-07C 0.357753 3.49462e-07 3.06561e-07 0.366204 3.06561e-07 0.817941L 3.06561e-07 2.23777C 3.06561e-07 2.68951 0.357753 3.05571 0.799064 3.05571C 1.24038 3.05571 1.59813 2.68951 1.59813 2.23777L 1.59813 0.817941C 1.59813 0.366204 1.24038 3.49462e-07 0.799064 3.49462e-07Z"/>
<path id="path11_fill" d="M 0.799063 3.49462e-07C 0.357752 3.49462e-07 -6.27056e-07 0.366204 -6.27056e-07 0.817941L -6.27056e-07 2.23777C -6.27056e-07 2.68951 0.357752 3.05571 0.799063 3.05571C 1.24037 3.05571 1.59813 2.68951 1.59813 2.23777L 1.59813 0.817941C 1.59813 0.366204 1.24037 3.49462e-07 0.799063 3.49462e-07Z"/>
<path id="path12_fill" d="M 0.799064 -9.62804e-08C 0.357752 -9.62804e-08 -1.95084e-07 0.366204 -1.95084e-07 0.817941L -1.95084e-07 2.23777C -1.95084e-07 2.68951 0.357752 3.05571 0.799064 3.05571C 1.24038 3.05571 1.59813 2.68951 1.59813 2.23777L 1.59813 0.817941C 1.59813 0.366204 1.24038 -9.62804e-08 0.799064 -9.62804e-08Z"/>
<path id="path13_fill" d="M 0.799064 -9.62804e-08C 0.357752 -9.62804e-08 -3.20495e-07 0.366204 -3.20495e-07 0.817941L -3.20495e-07 2.23777C -3.20495e-07 2.68951 0.357752 3.05571 0.799064 3.05571C 1.24038 3.05571 1.59813 2.68951 1.59813 2.23777L 1.59813 0.817941C 1.59813 0.366204 1.24038 -9.62804e-08 0.799064 -9.62804e-08Z"/>
<path id="path14_fill" d="M 0.799064 -9.62804e-08C 0.357752 -9.62804e-08 -4.45906e-07 0.366204 -4.45906e-07 0.817941L -4.45906e-07 2.23777C -4.45906e-07 2.68951 0.357752 3.05571 0.799064 3.05571C 1.24038 3.05571 1.59813 2.68951 1.59813 2.23777L 1.59813 0.817941C 1.59813 0.366204 1.24038 -9.62804e-08 0.799064 -9.62804e-08Z"/>
<path id="path15_fill" d="M 27.2009 7.84861L 21.2838 7.84861L 21.2838 0.817941C 21.2838 0.366204 20.926 2.40701e-08 20.4847 2.40701e-08L 7.51531 2.40701e-08C 7.074 2.40701e-08 6.71625 0.366204 6.71625 0.817941L 6.71625 7.8485L 0.799064 7.8485C 0.357752 7.8485 0 8.2147 0 8.66644C 0 9.11817 0.357752 9.48438 0.799064 9.48438L 1.5503 9.48438L 1.5503 26.1821C 1.5503 26.6338 1.90805 27 2.34936 27L 25.6506 27C 26.0919 27 26.4497 26.6338 26.4497 26.1821L 26.4497 9.48438L 27.2009 9.48438C 27.6422 9.48438 28 9.11817 28 8.66644C 28 8.2147 27.6422 7.84861 27.2009 7.84861ZM 17.9376 25.3642L 14.7936 25.3642C 14.797 25.3339 14.7991 25.303 14.7991 25.2717L 14.7991 24.0427L 17.9376 24.0427L 17.9376 25.3642ZM 13.2064 25.3642L 10.0624 25.3642L 10.0624 24.0427L 13.2009 24.0427L 13.2009 25.2717C 13.201 25.303 13.203 25.3337 13.2064 25.3642ZM 19.5357 25.3642L 19.5357 23.2247C 19.5357 22.773 19.178 22.4068 18.7367 22.4068L 9.26332 22.4068C 8.82201 22.4068 8.46426 22.773 8.46426 23.2247L 8.46426 25.3642L 3.14843 25.3642L 3.14843 9.48449L 24.8516 9.48449L 24.8516 25.3642L 19.5357 25.3642ZM 8.31437 1.63588L 19.6856 1.63588L 19.6856 7.8485L 8.31437 7.8485L 8.31437 1.63588Z"/>
</defs>
</svg>
