<svg width="30" height="27" viewBox="0 0 30 27" version="1.1" xmlns="http://www.w3.org/2000/svg" xmlns:xlink="http://www.w3.org/1999/xlink">
<title>shake hands</title>
<desc>Created using Figma</desc>
<g id="Canvas" transform="translate(-10095 -5789)">
<g id="shake hands">
<g id="Group">
<g id="Vector">
<use xlink:href="#path0_fill" transform="translate(10095 5789)" fill="#2B2A29"/>
</g>
<g id="Vector">
<use xlink:href="#path1_fill" transform="translate(10121.1 5797.04)" fill="#2B2A29"/>
</g>
</g>
</g>
</g>
<defs>
<path id="path0_fill" d="M 29.4015 6.96021L 23.2947 0.622232C 22.908 0.220955 22.3941 -9.34534e-08 21.8473 -9.34534e-08C 21.3005 -9.34534e-08 20.7866 0.220955 20.4 0.622232L 18.9649 2.11156C 18.7441 2.34076 18.5867 2.61036 18.4879 2.89715L 11.7733 1.64951C 11.7729 1.64939 11.7723 1.64939 11.7718 1.64927C 8.75271 1.02728 5.80496 3.0644 5.19612 6.19817L 4.88642 7.79256C 4.54438 9.55325 5.64643 11.2744 7.3429 11.6294C 9.03949 11.9841 10.6978 10.8406 11.0399 9.07989L 11.2292 8.10491L 14.2402 8.37816L 22.1035 16.5391L 23.5287 18.0182C 23.8173 18.3177 23.8171 18.8051 23.5287 19.1046C 23.2402 19.404 22.7706 19.4041 22.482 19.1046L 18.6645 15.1426C 18.3986 14.8667 17.9674 14.8667 17.7016 15.1426C 17.4357 15.4186 17.4357 15.866 17.7016 16.142L 21.5191 20.104C 21.6589 20.2491 21.7359 20.442 21.7359 20.6472C 21.7359 20.8524 21.6589 21.0452 21.5191 21.1903C 21.2304 21.4898 20.7609 21.4897 20.4724 21.1903L 16.6549 17.2283C 16.3891 16.9523 15.9578 16.9523 15.692 17.2283C 15.4261 17.5042 15.4261 17.9517 15.692 18.2276L 19.5095 22.1896C 19.7981 22.489 19.7981 22.9764 19.5095 23.2759C 19.3697 23.421 19.1838 23.5009 18.9862 23.5009C 18.7886 23.5009 18.6027 23.421 18.4629 23.2759L 14.6454 19.3139C 14.3795 19.038 13.9482 19.038 13.6825 19.3139C 13.4166 19.5899 13.4166 20.0373 13.6825 20.3133L 17.4999 24.2753C 17.7885 24.5748 17.7884 25.0622 17.4999 25.3617C 17.2115 25.6611 16.7419 25.6612 16.4533 25.3617L 2.94607 11.3434L 1.16233 9.49212C 0.896439 9.21617 0.465199 9.21617 0.19942 9.49212C -0.0664733 9.76808 -0.0664733 10.2155 0.19942 10.4915L 1.98316 12.3428L 3.92431 14.3574L 2.85427 15.4679C 2.50394 15.8315 2.3109 16.315 2.3109 16.8293C 2.3109 17.3437 2.50383 17.8272 2.85427 18.1908L 3.20346 18.5532C 3.50975 18.8711 3.90433 19.064 4.32978 19.1076C 4.37177 19.5491 4.55766 19.9586 4.86395 20.2764L 5.21314 20.6389C 5.52761 20.9653 5.92787 21.1494 6.33925 21.1919C 6.3809 21.6339 6.56701 22.0441 6.87364 22.3622L 7.22283 22.7246C 7.52913 23.0425 7.92371 23.2354 8.34916 23.279C 8.39115 23.7205 8.57704 24.1301 8.88333 24.4479L 9.23252 24.8104C 9.5942 25.1857 10.0692 25.3733 10.5443 25.3733C 11.0193 25.3733 11.4944 25.1857 11.856 24.8104L 12.9261 23.6998L 15.4903 26.361C 15.8873 26.7732 16.4152 27 16.9766 27C 17.538 27 18.0659 26.773 18.4629 26.361C 18.8389 25.9707 19.0525 25.458 19.0742 24.9099C 19.6025 24.8874 20.0963 24.6657 20.4725 24.2754C 20.8602 23.8731 21.0621 23.3514 21.0831 22.8233C 21.5918 22.8015 22.0946 22.592 22.4821 22.1897C 22.8698 21.7874 23.0717 21.2658 23.0927 20.7376C 23.6015 20.7158 24.1043 20.5063 24.4918 20.104C 25.3114 19.2534 25.3114 17.8695 24.4918 17.0189L 23.5482 16.0395L 27.0007 12.4563L 29.4016 9.96454C 30.1995 9.13619 30.1995 7.78844 29.4015 6.96021ZM 3.81718 17.1913C 3.62482 16.9916 3.62482 16.6669 3.81718 16.4673L 4.8206 15.4259L 5.86738 16.5123L 4.86395 17.5537C 4.67171 17.7533 4.35861 17.7532 4.16637 17.5537L 3.81718 17.1913ZM 5.82687 19.277C 5.63451 19.0774 5.63451 18.7527 5.82687 18.5532L 6.83029 17.5118L 7.87707 18.5982L 6.87376 19.6396C 6.6814 19.8391 6.3683 19.8392 6.17617 19.6396L 5.82687 19.277ZM 7.83644 21.3628C 7.74327 21.2661 7.69198 21.1375 7.69198 21.0009C 7.69198 20.8643 7.74327 20.7356 7.83644 20.6389L 8.83987 19.5975L 9.88653 20.6838L 8.88311 21.7252C 8.69086 21.9247 8.37787 21.9247 8.18563 21.7252L 7.83644 21.3628ZM 10.8929 23.811C 10.7007 24.0106 10.3876 24.0105 10.1953 23.811L 9.84613 23.4486C 9.65378 23.2489 9.65378 22.9242 9.84613 22.7246L 10.8496 21.6832L 11.8963 22.7696L 10.8929 23.811ZM 22.5851 15.04L 15.0279 7.19683C 14.9147 7.07928 14.7653 7.00697 14.6058 6.9926L 10.7413 6.64197C 10.7212 6.64008 10.7012 6.63926 10.6815 6.63926C 10.3604 6.63926 10.0791 6.87423 10.0145 7.20637L 9.70484 8.80076C 9.51124 9.79741 8.57295 10.4447 7.61197 10.2439C 7.1468 10.1466 6.74586 9.86702 6.48326 9.45679C 6.22066 9.04656 6.1276 8.55471 6.22145 8.07181L 6.53115 6.47755C 6.99257 4.10204 9.22912 2.55842 11.5189 3.0379C 11.5237 3.03884 11.5285 3.0399 11.5334 3.04073L 18.1502 4.27023L 18.9649 5.11577L 25.5562 11.9566L 22.5851 15.04ZM 28.4384 8.96506L 26.519 10.9572L 19.9277 4.11641C 19.7983 3.98214 19.7271 3.80359 19.7271 3.61361C 19.7271 3.42363 19.7983 3.24519 19.9277 3.11081L 21.3628 1.62136C 21.4922 1.48709 21.6642 1.41312 21.8472 1.41312C 22.0301 1.41312 22.2022 1.48709 22.3316 1.62136L 28.4384 7.95934C 28.5678 8.09361 28.6391 8.27216 28.6391 8.46214C 28.6391 8.65212 28.5678 8.83079 28.4384 8.96506Z"/>
<path id="path1_fill" d="M 0.680904 1.41336C 1.05696 1.41336 1.36181 1.09697 1.36181 0.70668C 1.36181 0.316392 1.05696 0 0.680904 0C 0.304851 0 0 0.316392 0 0.70668C 0 1.09697 0.304851 1.41336 0.680904 1.41336Z"/>
</defs>
</svg>
