<svg width="25" height="23" viewBox="0 0 25 23" version="1.1" xmlns="http://www.w3.org/2000/svg" xmlns:xlink="http://www.w3.org/1999/xlink">
<title>list</title>
<desc>Created using Figma</desc>
<g id="Canvas" transform="translate(-14702 -5651)">
<g id="list">
<g id="Group">
<g id="Group">
<g id="Vector">
<use xlink:href="#path0_fill" transform="translate(14710.5 5651.82)" fill="#2B2A29"/>
</g>
<g id="Vector">
<use xlink:href="#path1_fill" transform="translate(14710.5 5654.46)" fill="#2B2A29"/>
</g>
<g id="Vector">
<use xlink:href="#path2_fill" transform="translate(14710.5 5660.39)" fill="#2B2A29"/>
</g>
<g id="Vector">
<use xlink:href="#path3_fill" transform="translate(14710.5 5663.03)" fill="#2B2A29"/>
</g>
<g id="Vector">
<use xlink:href="#path4_fill" transform="translate(14710.5 5668.96)" fill="#2B2A29"/>
</g>
<g id="Vector">
<use xlink:href="#path5_fill" transform="translate(14710.5 5671.6)" fill="#2B2A29"/>
</g>
<g id="Vector">
<use xlink:href="#path6_fill" transform="translate(14702 5651)" fill="#2B2A29"/>
</g>
<g id="Vector">
<use xlink:href="#path7_fill" transform="translate(14702 5659.57)" fill="#2B2A29"/>
</g>
<g id="Vector">
<use xlink:href="#path8_fill" transform="translate(14702 5668.14)" fill="#2B2A29"/>
</g>
</g>
</g>
</g>
</g>
<defs>
<path id="path0_fill" d="M 16.4815 7.8972e-08L 0.0622927 7.8972e-08C 0.0311465 7.8972e-08 -3.16835e-07 0.0258775 -3.16835e-07 0.062106L -3.16835e-07 1.5216C -3.16835e-07 1.55265 0.0259555 1.58371 0.0622927 1.58371L 16.4815 1.58371C 16.5127 1.58371 16.5438 1.55783 16.5438 1.5216L 16.5438 0.062106C 16.5438 0.0258775 16.5179 7.8972e-08 16.4815 7.8972e-08Z"/>
<path id="path1_fill" d="M 0.0622927 1.58371L 8.23816 1.58371C 8.26931 1.58371 8.30045 1.55783 8.30045 1.5216L 8.30045 0.062106C 8.30045 0.031053 8.2745 7.8972e-08 8.23816 7.8972e-08L 0.0622927 7.8972e-08C 0.0311465 7.8972e-08 -3.16835e-07 0.0258775 -3.16835e-07 0.062106L -3.16835e-07 1.5216C -3.16835e-07 1.55783 0.0259555 1.58371 0.0622927 1.58371Z"/>
<path id="path2_fill" d="M 16.4815 0L 0.0622927 0C 0.0311465 0 -3.16835e-07 0.0258774 -3.16835e-07 0.062106L -3.16835e-07 1.5216C -3.16835e-07 1.55265 0.0259555 1.58371 0.0622927 1.58371L 16.4815 1.58371C 16.5127 1.58371 16.5438 1.55783 16.5438 1.5216L 16.5438 0.062106C 16.5438 0.0258774 16.5179 0 16.4815 0Z"/>
<path id="path3_fill" d="M 0.0622927 1.58371L 8.23816 1.58371C 8.26931 1.58371 8.30045 1.55783 8.30045 1.5216L 8.30045 0.062106C 8.30045 0.0310529 8.2745 -2.94194e-15 8.23816 -2.94194e-15L 0.0622927 -2.94194e-15C 0.0311465 -2.94194e-15 -3.16835e-07 0.0258774 -3.16835e-07 0.062106L -3.16835e-07 1.5216C -3.16835e-07 1.55783 0.0259555 1.58371 0.0622927 1.58371Z"/>
<path id="path4_fill" d="M 16.4815 3.15888e-07L 0.0622927 3.15888e-07C 0.0311465 3.15888e-07 -3.16835e-07 0.0258769 -3.16835e-07 0.0621055L -3.16835e-07 1.5216C -3.16835e-07 1.55265 0.0259555 1.58371 0.0622927 1.58371L 16.4815 1.58371C 16.5127 1.58371 16.5438 1.55783 16.5438 1.5216L 16.5438 0.0621055C 16.5438 0.0258769 16.5179 3.15888e-07 16.4815 3.15888e-07Z"/>
<path id="path5_fill" d="M 8.23816 6.31776e-07L 0.0622927 6.31776e-07C 0.0311465 6.31776e-07 -3.16835e-07 0.0258772 -3.16835e-07 0.0621058L -3.16835e-07 1.5216C -3.16835e-07 1.55265 0.0259555 1.58371 0.0622927 1.58371L 8.23816 1.58371C 8.26931 1.58371 8.30045 1.55783 8.30045 1.5216L 8.30045 0.0621058C 8.29526 0.0258772 8.26931 6.31776e-07 8.23816 6.31776e-07Z"/>
<path id="path6_fill" d="M 2.69414 3.12601L 1.37562 1.80108L 0 3.16741L 1.31852 4.48717L 2.68895 5.85868L 4.06458 4.49752L 7.21034 1.37151L 5.8451 1.9743e-08L 2.69414 3.12601Z"/>
<path id="path7_fill" d="M 2.69414 3.12601L 1.37562 1.80108L 0 3.16741L 1.31852 4.48717L 2.68895 5.85868L 4.06458 4.49752L 7.21034 1.37151L 5.8451 -1.57944e-07L 2.69414 3.12601Z"/>
<path id="path8_fill" d="M 2.69414 3.12601L 1.37562 1.80108L 0 3.16741L 1.31852 4.48717L 2.68895 5.85868L 4.06458 4.49234L 7.21034 1.37151L 5.8451 -6.31776e-07L 2.69414 3.12601Z"/>
</defs>
</svg>
