<svg width="18" height="23" viewBox="0 0 18 23" version="1.1" xmlns="http://www.w3.org/2000/svg" xmlns:xlink="http://www.w3.org/1999/xlink">
<title>pin_my tours</title>
<desc>Created using Figma</desc>
<g id="Canvas" transform="translate(-14456 -5651)">
<g id="pin_my tours">
<g id="Group">
<g id="Group">
<g id="Vector">
<use xlink:href="#path0_fill" transform="translate(14460.8 5655.94)" fill="#2B2A29"/>
</g>
</g>
</g>
<g id="Group">
<g id="Group">
<g id="Vector">
<use xlink:href="#path1_fill" transform="translate(14456 5651)" fill="#2B2A29"/>
</g>
</g>
</g>
</g>
</g>
<defs>
<path id="path0_fill" d="M 4.17072 -1.59025e-07C 1.87099 -1.59025e-07 2.73165e-07 1.91551 2.73165e-07 4.26996C 2.73165e-07 6.6244 1.87099 8.53992 4.17072 8.53992C 6.47044 8.53992 8.34144 6.6244 8.34144 4.26996C 8.34144 1.91551 6.47049 -1.59025e-07 4.17072 -1.59025e-07ZM 4.17072 6.74205C 2.83929 6.74205 1.75608 5.63307 1.75608 4.26996C 1.75608 2.90685 2.83929 1.79786 4.17072 1.79786C 5.50215 1.79786 6.58536 2.90685 6.58536 4.26996C 6.58536 5.63307 5.50215 6.74205 4.17072 6.74205Z"/>
<path id="path1_fill" d="M 9 0C 4.03737 0 -7.36475e-08 4.13349 -7.36475e-08 9.21415L -7.36475e-08 9.46886C -7.36475e-08 12.0384 1.43893 15.0327 4.27695 18.3685C 6.33429 20.7867 8.36289 22.4729 8.44819 22.5435L 9 23L 9.55181 22.5435C 9.63715 22.4729 11.6658 20.7867 13.7231 18.3685C 16.561 15.0327 18 12.0384 18 9.4689L 18 9.2142C 18 4.13349 13.9626 0 9 0ZM 16.2439 9.4689C 16.2439 13.8113 10.7789 19.0678 9 20.6635C 7.22062 19.0673 1.75608 13.811 1.75608 9.4689L 1.75608 9.2142C 1.75608 5.12487 5.00571 1.79791 9 1.79791C 12.9943 1.79791 16.2439 5.12487 16.2439 9.2142L 16.2439 9.4689Z"/>
</defs>
</svg>
