<svg width="23" height="23" viewBox="0 0 23 23" version="1.1" xmlns="http://www.w3.org/2000/svg" xmlns:xlink="http://www.w3.org/1999/xlink">
<title>user</title>
<desc>Created using Figma</desc>
<g id="Canvas" transform="translate(-14982 -5651)">
<g id="user">
<g id="Group">
<g id="Group">
<g id="Vector">
<use xlink:href="#path0_fill" transform="translate(14982 5651)" fill="#2B2A29"/>
</g>
</g>
</g>
</g>
</g>
<defs>
<path id="path0_fill" d="M 15.525 14.1833C 17.7292 12.8416 19.1666 10.4458 19.1666 7.66668C 19.1667 3.45 15.7166 0 11.5 0C 7.28336 0 3.83332 3.45 3.83332 7.66668C 3.83332 10.4458 5.2708 12.8417 7.47496 14.1833C 3.64164 15.6208 0.766637 18.975 0 23L 1.91668 23C 2.875 18.5917 6.8042 15.3333 11.5 15.3333C 16.1958 15.3333 20.125 18.5916 21.0833 23L 23 23C 22.2334 18.8792 19.3584 15.525 15.525 14.1833ZM 5.75 7.66668C 5.75 4.5042 8.33752 1.91668 11.5 1.91668C 14.6625 1.91668 17.25 4.5042 17.25 7.66668C 17.25 10.8292 14.6625 13.4167 11.5 13.4167C 8.33752 13.4167 5.75 10.8292 5.75 7.66668Z"/>
</defs>
</svg>
