<svg width="25" height="23" viewBox="0 0 25 23" version="1.1" xmlns="http://www.w3.org/2000/svg" xmlns:xlink="http://www.w3.org/1999/xlink">
<title>heart</title>
<desc>Created using Figma</desc>
<g id="Canvas" transform="translate(-13895 -5651)">
<g id="heart">
<g id="Group">
<g id="Group">
<g id="Vector">
<use xlink:href="#path0_fill" transform="translate(13895 5651)" fill="#2F80ED"/>
</g>
</g>
</g>
</g>
</g>
<defs>
<path id="path0_fill" d="M 12.5 23C 12.2646 23 12.04 22.9035 11.8799 22.7336L 1.88836 12.1296C 1.88579 12.1268 1.88322 12.1241 1.88072 12.1214C 0.667886 10.7991 0 9.0467 0 7.18699C 0 5.32721 0.667886 3.57491 1.88072 2.25266L 2.03255 2.08717C 3.2671 0.741271 4.91546 -2.1349e-08 6.67405 -2.1349e-08C 8.43264 -2.1349e-08 10.0811 0.741271 11.3157 2.08723L 12.5 3.37843L 13.6842 2.0873C 14.9188 0.741338 16.5672 6.66307e-05 18.3258 6.66307e-05C 20.0845 6.66307e-05 21.7328 0.741338 22.9675 2.08737L 23.1191 2.25246C 24.3321 3.57504 25 5.32735 25 7.18705C 25 9.04676 24.332 10.7991 23.1193 12.1214C 23.1168 12.1242 23.1142 12.127 23.1116 12.1297L 13.12 22.7338C 12.9599 22.9034 12.7353 23 12.5 23ZM 3.13238 11.0009L 12.5 20.9426L 21.8675 11.0008C 23.7949 8.89526 23.7937 5.47292 21.8638 3.36897L 21.7123 3.20387C 20.8024 2.21175 19.5997 1.6655 18.3258 1.6655C 17.0519 1.6655 15.8492 2.21176 14.9395 3.20354L 13.1277 5.17897C 12.9674 5.3538 12.7393 5.45353 12.5001 5.45353C 12.2609 5.45353 12.0328 5.3538 11.8725 5.17897L 10.0606 3.20367C 9.1508 2.21182 7.94818 1.66556 6.67425 1.66556C 5.40033 1.66556 4.19764 2.21176 3.28794 3.2036L 3.13611 3.3691C 1.20627 5.47306 1.20498 8.89539 3.13238 11.0009Z"/>
</defs>
</svg>
