<svg width="14" height="25" viewBox="0 0 14 25" version="1.1" xmlns="http://www.w3.org/2000/svg" xmlns:xlink="http://www.w3.org/1999/xlink">
<title>facebook-logo</title>
<desc>Created using Figma</desc>
<g id="Canvas" transform="translate(-4627 -2233)">
<g id="facebook-logo">
<g id="Group">
<g id="Vector">
<use xlink:href="#path0_fill" transform="translate(4627.49 2233)" fill="#000"/>
</g>
</g>
</g>
</g>
<defs>
<path id="path0_fill" d="M 13.0001 0.00520167L 9.75993 0C 6.11974 0 3.7673 2.41487 3.7673 6.15253L 3.7673 8.98926L 0.509481 8.98926C 0.227967 8.98926 -8.72598e-08 9.21762 -8.72598e-08 9.49929L -8.72598e-08 13.6094C -8.72598e-08 13.8911 0.228227 14.1191 0.509481 14.1191L 3.7673 14.1191L 3.7673 24.4902C 3.7673 24.7719 3.99526 25 4.27678 25L 8.5273 25C 8.80881 25 9.03678 24.7716 9.03678 24.4902L 9.03678 14.1191L 12.8459 14.1191C 13.1274 14.1191 13.3554 13.8911 13.3554 13.6094L 13.357 9.49929C 13.357 9.36404 13.3032 9.23452 13.2078 9.13881C 13.1124 9.0431 12.9824 8.98926 12.8472 8.98926L 9.03678 8.98926L 9.03678 6.58453C 9.03678 5.42872 9.31205 4.84197 10.8168 4.84197L 12.9995 4.84119C 13.2808 4.84119 13.5088 4.61284 13.5088 4.33143L 13.5088 0.514965C 13.5088 0.233815 13.2811 0.00572184 13.0001 0.00520167Z"/>
</defs>
</svg>
