<svg width="23" height="23" viewBox="0 0 23 23" version="1.1" xmlns="http://www.w3.org/2000/svg" xmlns:xlink="http://www.w3.org/1999/xlink">
<title>instagram-logo</title>
<desc>Created using Figma</desc>
<g id="Canvas" transform="translate(-4511 -2234)">
<g id="instagram-logo">
<g id="Group">
<g id="Vector">
<use xlink:href="#path0_fill" transform="translate(4527.44 2236.85)" fill="#000"/>
</g>
<g id="Vector">
<use xlink:href="#path1_fill" transform="translate(4518.95 2242.2)" fill="#000"/>
</g>
<g id="Group">
<g id="Vector">
<use xlink:href="#path2_fill" transform="translate(4515.33 2238.58)" fill="#000"/>
</g>
</g>
<g id="Vector">
<use xlink:href="#path3_fill" transform="translate(4511 2234.25)" fill="#000"/>
</g>
</g>
</g>
</g>
<defs>
<path id="path0_fill" d="M 0.865384 3.46154C 0.388558 3.46154 0 3.07298 0 2.59615L 0 0.865385C 0 0.388558 0.388558 0 0.865384 0L 2.59615 0C 3.07298 0 3.46154 0.388558 3.46154 0.865385L 3.46154 2.59615C 3.46154 3.07298 3.07298 3.46154 2.59615 3.46154L 0.865384 3.46154Z"/>
<path id="path1_fill" d="M 3.29885 -2.37685e-07C 2.67058 -2.37685e-07 2.09077 0.184327 1.59144 0.487212C 1.74721 0.43875 1.90904 0.406731 2.07952 0.406731C 3.00375 0.406731 3.75231 1.15529 3.75231 2.08038C 3.75231 3.00288 3.00375 3.75317 2.07952 3.75317C 1.15529 3.75317 0.406731 3.00375 0.406731 2.08038C 0.406731 1.90817 0.440481 1.74635 0.488077 1.59144C 0.183461 2.09077 -2.37685e-07 2.67058 -2.37685e-07 3.29885C -2.37685e-07 5.12221 1.47548 6.59856 3.29971 6.59856C 5.12135 6.59856 6.59942 5.12308 6.59942 3.29885C 6.59942 1.47462 5.12048 -2.37685e-07 3.29885 -2.37685e-07Z"/>
<path id="path2_fill" d="M 6.92308 1.73077C 9.79009 1.73077 12.1154 4.05519 12.1154 6.92308C 12.1154 9.79096 9.78923 12.1154 6.92308 12.1154C 4.05606 12.1154 1.73077 9.79096 1.73077 6.92308C 1.73077 4.05519 4.05606 1.73077 6.92308 1.73077ZM 6.92308 0C 3.10587 0 0 3.10587 0 6.92308C 0 10.7403 3.10587 13.8462 6.92308 13.8462C 10.7403 13.8462 13.8462 10.7403 13.8462 6.92308C 13.8462 3.10587 10.7403 0 6.92308 0Z"/>
<path id="path3_fill" d="M 18.2812 0L 4.21875 0C 1.88827 0 0 1.88827 0 4.21875L 0 18.2812C 0 20.6117 1.88827 22.5 4.21875 22.5L 18.2812 22.5C 20.6117 22.5 22.5 20.6117 22.5 18.2812L 22.5 4.21875C 22.5 1.88827 20.6117 0 18.2812 0ZM 20.7692 7.78846L 15.1122 7.78846C 15.9369 8.70837 16.4423 9.91817 16.4423 11.25C 16.4423 14.1179 14.1162 16.4423 11.25 16.4423C 8.38298 16.4423 6.05769 14.1179 6.05769 11.25C 6.05769 9.91817 6.56308 8.7075 7.38779 7.78846L 1.73077 7.78846L 1.73077 4.21875C 1.73077 2.84712 2.84712 1.73077 4.21875 1.73077L 18.2812 1.73077C 19.6537 1.73077 20.7692 2.84712 20.7692 4.21875L 20.7692 7.78846Z"/>
</defs>
</svg>
