<svg width="31" height="31" viewBox="0 0 31 31" version="1.1" xmlns="http://www.w3.org/2000/svg" xmlns:xlink="http://www.w3.org/1999/xlink">
<title>phone</title>
<desc>Created using Figma</desc>
<g id="Canvas" transform="translate(-4261 -5107)">
<g id="phone">
<g id="Group">
<g id="Vector">
<use xlink:href="#path0_fill" transform="translate(4261 5107)" fill="#FFFFFF"/>
</g>
</g>
</g>
</g>
<defs>
<path id="path0_fill" d="M 6.28201 20.6067C 9.35121 24.2617 13.0458 27.1395 17.2628 29.1757C 18.8683 29.9337 21.0154 30.833 23.4076 30.9872C 23.5559 30.9936 23.6978 31 23.8461 31C 25.4516 31 26.7412 30.4476 27.7922 29.3106C 27.7986 29.3042 27.8115 29.2913 27.818 29.2785C 28.1919 28.8288 28.6175 28.4242 29.0624 27.9938C 29.3655 27.7047 29.675 27.4028 29.9716 27.0945C 31.345 25.6685 31.345 23.857 29.9587 22.476L 26.0835 18.6154C 25.4258 17.9345 24.6392 17.5748 23.8138 17.5748C 22.9885 17.5748 22.1954 17.9345 21.5184 18.609L 19.21 20.9086C 18.9972 20.7866 18.778 20.6774 18.5717 20.5746C 18.3138 20.4461 18.0752 20.3241 17.8624 20.1892C 15.7604 18.8595 13.8518 17.1252 12.0271 14.8962C 11.105 13.7335 10.486 12.7571 10.054 11.7615C 10.6601 11.2155 11.2275 10.6438 11.7756 10.085C 11.969 9.88583 12.1689 9.6867 12.3688 9.48757C 13.0652 8.79382 13.4392 7.99088 13.4392 7.17509C 13.4392 6.3593 13.0716 5.55636 12.3688 4.86262L 10.4473 2.9484C 10.2217 2.72358 10.0089 2.50518 9.78966 2.28036C 9.3641 1.84356 8.9192 1.39391 8.48074 0.989225C 7.81661 0.340448 7.03641 0 6.21108 0C 5.3922 0 4.60556 0.340448 3.91564 0.995649L 1.50412 3.39805C 0.627212 4.27165 0.130724 5.33154 0.0275577 6.55843C -0.0949522 8.09366 0.188755 9.72524 0.923814 11.6973C 2.0522 14.7484 3.75444 17.5812 6.28201 20.6067ZM 1.60084 6.69333C 1.67822 5.839 2.00706 5.12598 2.62606 4.50932L 5.02467 2.11977C 5.39865 1.76005 5.81132 1.57377 6.21108 1.57377C 6.60441 1.57377 7.00417 1.76005 7.3717 2.13262C 7.80371 2.53087 8.20993 2.9484 8.64839 3.39163C 8.86761 3.61645 9.09329 3.84128 9.31897 4.07252L 11.2404 5.98674C 11.6402 6.385 11.8465 6.78968 11.8465 7.18794C 11.8465 7.5862 11.6402 7.99088 11.2404 8.38914C 11.0406 8.58827 10.8407 8.79383 10.6408 8.99295C 10.0411 9.59677 9.48016 10.1685 8.86117 10.7145C 8.84827 10.7273 8.84182 10.7337 8.82893 10.7466C 8.29375 11.2797 8.37757 11.7872 8.50653 12.1726C 8.51298 12.1919 8.51943 12.2047 8.52588 12.224C 9.02236 13.4123 9.71229 14.5429 10.7891 15.8918C 12.7235 18.2685 14.761 20.1121 17.0049 21.5317C 17.2821 21.7116 17.5787 21.8529 17.856 21.9942C 18.1139 22.1227 18.3525 22.2447 18.5652 22.3796C 18.591 22.3925 18.6104 22.4053 18.6362 22.4181C 18.8489 22.5274 19.0553 22.5787 19.2616 22.5787C 19.7774 22.5787 20.1127 22.2511 20.2223 22.1419L 22.6339 19.7395C 23.0078 19.367 23.4141 19.1678 23.8138 19.1678C 24.3039 19.1678 24.7036 19.4697 24.9551 19.7395L 28.8432 23.6065C 29.6169 24.3773 29.6105 25.2124 28.8238 26.0282C 28.553 26.3172 28.2693 26.5935 27.9663 26.8825C 27.5149 27.3193 27.0442 27.769 26.6187 28.2764C 25.8771 29.0729 24.9938 29.4455 23.8525 29.4455C 23.7429 29.4455 23.6268 29.4391 23.5172 29.4327C 21.4023 29.2978 19.4357 28.4755 17.9591 27.7754C 13.9486 25.8419 10.428 23.099 7.50711 19.6175C 5.10205 16.7333 3.48363 14.0483 2.41328 11.1705C 1.74914 9.40406 1.49768 7.98446 1.60084 6.69333Z"/>
</defs>
</svg>
