<svg width="35" height="35" viewBox="0 0 35 35" version="1.1" xmlns="http://www.w3.org/2000/svg" xmlns:xlink="http://www.w3.org/1999/xlink">
<title>skype</title>
<desc>Created using Figma</desc>
<g id="Canvas" transform="translate(-3770 -5180)">
<use xlink:href="#path0_fill" transform="translate(3770 5180)" fill="#2f80ed"/>
</g>
<defs>
<path id="path0_fill" d="M 24.95 16.4045C 24.1449 15.8886 23.1649 15.4452 22.034 15.0874C 20.9559 14.7485 19.7444 14.436 18.4447 14.1606C 17.4403 13.9314 16.7057 13.7544 16.2678 13.6341C 15.8845 13.529 15.4995 13.3822 15.1231 13.1968C 14.8156 13.044 14.5787 12.87 14.4214 12.6824C 14.3203 12.559 14.2773 12.4282 14.2773 12.2428C 14.2773 12.028 14.3509 11.7344 14.9215 11.3653C 15.4842 11.0006 16.2733 10.8153 17.2647 10.8153C 18.6556 10.8153 19.2422 11.099 19.4668 11.2677C 19.93 11.615 20.3395 12.1188 20.6991 12.7959C 21.0909 13.4601 21.4435 13.9171 21.8062 14.2317C 22.2709 14.6388 22.9051 14.8453 23.6894 14.8453C 24.5435 14.8453 25.302 14.532 25.8808 13.9382C 26.4498 13.3549 26.7503 12.6475 26.7503 11.8932C 26.7503 11.1821 26.5517 10.4574 26.1599 9.73859C 25.7811 9.04408 25.1899 8.38441 24.4032 7.77771C 23.6303 7.18385 22.6619 6.70569 21.5232 6.3562C 20.4 6.012 19.0711 5.8372 17.5721 5.8372C 15.6973 5.8372 14.0312 6.09899 12.6218 6.61411C 11.1419 7.15348 9.98487 7.95087 9.17978 8.9851C 8.35631 10.045 7.93838 11.2721 7.93838 12.6324C 7.93838 14.0561 8.34176 15.2764 9.13909 16.2615C 9.89359 17.192 10.9173 17.9342 12.1808 18.4645C 13.3448 18.9532 14.7986 19.3829 16.5069 19.743C 17.6947 19.9881 18.6562 20.2234 19.3647 20.4413C 19.9483 20.6198 20.4213 20.874 20.771 21.1963C 21.031 21.4361 21.146 21.7274 21.146 22.1396C 21.146 22.4982 21.0493 22.9741 20.2979 23.4795C 19.6155 23.9387 18.68 24.1724 17.5153 24.1724C 16.6688 24.1724 15.9987 24.0605 15.5248 23.8388C 15.0655 23.6247 14.7105 23.3577 14.4713 23.0476C 14.1822 22.6701 13.9039 22.1813 13.647 21.6026C 13.3465 20.9059 12.9623 20.3573 12.5007 19.9692C 11.9731 19.5312 11.3345 19.3096 10.5999 19.3096C 9.74577 19.3096 8.98817 19.591 8.40929 20.1259C 7.81657 20.6774 7.50219 21.3818 7.50219 22.164C 7.50219 23.2444 7.89173 24.3474 8.66079 25.4413C 9.40384 26.4966 10.3776 27.3485 11.5591 27.9779C 13.1717 28.823 15.2151 29.2519 17.6334 29.2519C 19.6462 29.2519 21.4236 28.941 22.9165 28.3282C 24.4638 27.6942 25.6669 26.7895 26.4919 25.638C 27.3254 24.4721 27.7487 23.1422 27.7487 21.6858C 27.7487 20.4694 27.4972 19.411 27.0011 18.5424C 26.5103 17.6846 25.8202 16.9659 24.95 16.4045ZM 25.2382 24.7657C 24.5834 25.6804 23.6035 26.4089 22.3261 26.9317C 21.0218 27.4673 19.4423 27.7388 17.6326 27.7388C 15.4673 27.7388 13.6661 27.3704 12.2821 26.6449C 11.3182 26.1312 10.5232 25.436 9.91972 24.5803C 9.33237 23.7443 9.03482 22.9311 9.03482 22.1655C 9.03482 21.7956 9.16975 21.4975 9.45729 21.2304C 9.754 20.9573 10.1274 20.8242 10.5991 20.8242C 10.9671 20.8242 11.2661 20.9233 11.5093 21.1253C 11.7845 21.3568 12.0299 21.7169 12.2385 22.2033C 12.5468 22.8985 12.8871 23.4895 13.2491 23.963C 13.6402 24.4706 14.1853 24.8898 14.8685 25.2083C 15.5494 25.5269 16.4397 25.688 17.5146 25.688C 18.9937 25.688 20.2205 25.3657 21.1621 24.731C 22.1688 24.0539 22.6796 23.1823 22.6796 22.1414C 22.6796 21.3107 22.3905 20.6223 21.8185 20.0927C 21.2971 19.6123 20.6246 19.2447 19.8211 18.998C 19.0666 18.7657 18.0575 18.5191 16.8253 18.2648C 15.2158 17.9244 13.8556 17.5242 12.7829 17.0741C 11.7554 16.642 10.9334 16.0504 10.3384 15.3181C 9.76486 14.6085 9.47351 13.7059 9.47351 12.634C 9.47351 11.6142 9.78479 10.6973 10.3983 9.90751C 11.0232 9.10329 11.9509 8.47317 13.1563 8.03433C 14.3946 7.58113 15.8821 7.35194 17.5744 7.35194C 18.9193 7.35194 20.0955 7.5032 21.0708 7.80279C 22.0316 8.09707 22.8367 8.49118 23.4623 8.97239C 24.0811 9.44819 24.5343 9.94836 24.8118 10.4566C 25.0825 10.9522 25.219 11.4364 25.219 11.8941C 25.219 12.2594 25.0749 12.5855 24.7789 12.8897C 24.4867 13.1886 24.1309 13.333 23.6917 13.333C 23.418 13.333 23.0452 13.2928 22.8237 13.0977C 22.5921 12.8972 22.3238 12.5401 22.0423 12.0643C 21.593 11.2192 21.0394 10.5467 20.3969 10.064C 19.7137 9.55178 18.69 9.30293 17.2661 9.30293C 15.971 9.30293 14.899 9.57155 14.0817 10.101C 13.1953 10.6745 12.7459 11.3954 12.7459 12.2435C 12.7459 12.7761 12.9108 13.2452 13.2381 13.6416C 13.5349 13.9972 13.9382 14.3021 14.4389 14.5503C 14.9043 14.7803 15.3827 14.9626 15.8604 15.0927C 16.3075 15.2161 17.0611 15.3983 18.1132 15.6389C 19.3761 15.9067 20.5393 16.2063 21.569 16.5301C 22.569 16.8471 23.4262 17.2321 24.1156 17.6747C 24.7765 18.1006 25.2987 18.6424 25.666 19.287C 26.0309 19.927 26.2157 20.735 26.2157 21.6889C 26.2136 22.8252 25.8846 23.8608 25.2382 24.7657ZM 34.0738 20.9604C 34.2947 19.88 34.4074 18.7763 34.4074 17.6756C 34.4074 8.57534 26.9031 1.17196 17.6788 1.17196C 16.8124 1.17196 15.9474 1.23706 15.1047 1.36713C 13.5665 0.472033 11.8167 0 10.024 0C 4.49635 0 -6.94062e-09 4.43629 -6.94062e-09 9.88938C -6.94062e-09 11.55 0.425571 13.1856 1.23221 14.6389C 1.04358 15.6458 0.948497 16.6664 0.948497 17.6756C 0.948497 26.7766 8.45367 34.1815 17.6787 34.1815C 18.6211 34.1815 19.5611 34.1036 20.4781 33.95C 21.8667 34.6377 23.4149 35 24.976 35C 30.5036 35 35 30.5644 35 25.1121C 35 23.6604 34.6887 22.2654 34.0738 20.9604ZM 24.976 33.4877C 23.5766 33.4877 22.1887 33.1442 20.9634 32.4945L 20.7249 32.3682L 20.4589 32.4165C 19.5518 32.5837 18.6163 32.6684 17.6778 32.6684C 9.29777 32.6684 2.48124 25.9421 2.48124 17.6756C 2.48124 16.6731 2.58552 15.658 2.78953 14.6586L 2.84704 14.3749L 2.6991 14.1252C 1.93613 12.8436 1.53287 11.3782 1.53287 9.88938C 1.53287 5.27076 5.34224 1.51309 10.0233 1.51309C 11.6251 1.51309 13.187 1.95794 14.5396 2.79924L 14.7888 2.95427L 15.0801 2.90436C 15.9266 2.7591 16.8008 2.68494 17.6788 2.68494C 26.058 2.68494 32.8739 9.4097 32.8739 17.6756C 32.8739 18.7559 32.7551 19.8384 32.5213 20.8946L 32.4638 21.1548L 32.5834 21.3931C 33.1701 22.5552 33.4668 23.8065 33.4668 25.1121C 33.4664 29.7308 29.6572 33.4877 24.976 33.4877Z"/>
</defs>
</svg>
