<svg width="35" height="38" viewBox="0 0 35 38" version="1.1" xmlns="http://www.w3.org/2000/svg" xmlns:xlink="http://www.w3.org/1999/xlink">
<title>viber</title>
<desc>Created using Figma</desc>
<g id="Canvas" transform="translate(-4259 -5177)">
<g id="viber">
<g id="Group">
<g id="Group">
<g id="Vector">
<use xlink:href="#path0_fill" transform="translate(4259 5177)" fill="#FFFFFF"/>
</g>
<g id="Vector">
<use xlink:href="#path1_fill" transform="translate(4265.87 5184.24)" fill="#FFFFFF"/>
</g>
<g id="Vector">
<use xlink:href="#path2_fill" transform="translate(4277.24 5188.73)" fill="#FFFFFF"/>
</g>
<g id="Vector">
<use xlink:href="#path3_fill" transform="translate(4277.15 5185.83)" fill="#FFFFFF"/>
</g>
<g id="Vector">
<use xlink:href="#path4_fill" transform="translate(4276.84 5182.46)" fill="#FFFFFF"/>
</g>
</g>
</g>
</g>
</g>
<defs>
<path id="path0_fill" d="M 21.1466 0L 13.8534 0C 6.21469 0 8.34465e-08 6.16629 8.34465e-08 13.7459L 8.34465e-08 20.266C 8.34465e-08 25.9106 3.4949 30.9834 8.75 33.0495L 8.75 37.2763C 8.75 37.5629 8.9199 37.822 9.18386 37.9378C 9.27865 37.9797 9.37927 38 9.47917 38C 9.65635 38 9.83208 37.9356 9.96844 37.8126L 14.1969 34.0119L 21.1466 34.0119C 28.7853 34.0119 35 27.8456 35 20.266L 35 13.7459C 35 6.16629 28.7853 0 21.1466 0ZM 33.5417 20.266C 33.5417 27.0474 27.9818 32.5646 21.1466 32.5646L 13.9154 32.5646C 13.7346 32.5646 13.5603 32.6312 13.4261 32.752L 10.2083 35.6445L 10.2083 32.548C 10.2083 32.2411 10.0136 31.9676 9.72198 31.8663C 4.77969 30.1317 1.45833 25.4699 1.45833 20.266L 1.45833 13.7459C 1.45833 6.96448 7.01896 1.44732 13.8534 1.44732L 21.1466 1.44732C 27.9818 1.44732 33.5417 6.96448 33.5417 13.7459L 33.5417 20.266Z"/>
<path id="path1_fill" d="M 20.271 14.8297L 15.7896 11.9408C 15.2996 11.6246 14.7162 11.5175 14.1453 11.6347C 13.5736 11.7541 13.0822 12.0892 12.7635 12.5777L 12.5528 12.899C 10.6132 12.2629 8.47456 11.4502 7.19415 7.77185L 7.72425 7.3145C 8.63425 6.52933 8.72977 5.15583 7.93863 4.25126L 4.43279 0.248704C 4.16884 -0.0530609 3.708 -0.0841782 3.40394 0.177062L 1.20258 2.07594C -0.728248 3.7418 0.173731 6.20586 0.470502 7.01563C 0.483627 7.05181 0.499668 7.08655 0.518627 7.12056C 0.595189 7.25661 2.42321 10.4943 5.37561 13.4786C 8.33967 16.4753 13.691 19.2426 13.8551 19.3229C 14.4661 19.7165 15.1537 19.9054 15.834 19.9054C 17.0284 19.9054 18.1995 19.3243 18.898 18.2591L 20.4861 15.832C 20.7049 15.4955 20.6086 15.0475 20.271 14.8297ZM 17.6745 17.4703C 17.0175 18.4748 15.6598 18.7599 14.5879 18.0738C 14.5347 18.0463 9.21831 15.2986 6.41613 12.4655C 3.79696 9.81763 2.0579 6.87596 1.82092 6.46565C 1.24342 4.8584 1.3455 3.87061 2.15925 3.16866L 3.81081 1.74451L 6.83831 5.2007C 7.10738 5.50753 7.07602 5.95619 6.76831 6.22178L 5.87363 6.9932C 5.65561 7.18135 5.56956 7.47877 5.65488 7.75231C 7.18029 12.6717 10.1465 13.6378 12.3122 14.3434L 12.6279 14.4469C 12.9436 14.5525 13.2893 14.4317 13.4701 14.1552L 13.9871 13.365C 14.0935 13.2015 14.2569 13.0907 14.4464 13.0509C 14.6368 13.0104 14.8307 13.048 14.9955 13.1544L 18.8659 15.6489L 17.6745 17.4703Z"/>
<path id="path2_fill" d="M 0.929235 0.0283405C 0.541319 -0.0823792 0.138089 0.141231 0.0279852 0.526217C -0.0821189 0.910479 0.142464 1.31066 0.529652 1.41993C 1.61611 1.72677 2.48163 2.58719 2.78788 3.66617C 2.8783 3.98458 3.17069 4.19372 3.48934 4.19372C 3.55496 4.19372 3.62132 4.18503 3.68767 4.16694C 4.07486 4.05839 4.3009 3.65893 4.19153 3.27395C 3.74892 1.71519 2.4984 0.471219 0.929235 0.0283405Z"/>
<path id="path3_fill" d="M 6.56205 7.25034C 6.62767 7.25034 6.69403 7.24165 6.76038 7.22356C 7.1483 7.11501 7.37361 6.71483 7.26424 6.33057C 6.40382 3.30351 3.97642 0.889383 0.928507 0.0282296C 0.541319 -0.08249 0.13809 0.142568 0.0279854 0.52683C -0.0821187 0.911092 0.142464 1.31127 0.529652 1.42055C 3.09413 2.14421 5.13653 4.17696 5.86059 6.72351C 5.95174 7.04192 6.2434 7.25034 6.56205 7.25034Z"/>
<path id="path4_fill" d="M 0.929235 0.0283367C 0.541318 -0.0823829 0.138089 0.141227 0.0279846 0.526937C -0.0821196 0.911199 0.142465 1.31138 0.529652 1.42065C 4.87476 2.64725 8.33611 6.09042 9.56257 10.4056C 9.65299 10.724 9.94538 10.9331 10.264 10.9331C 10.3297 10.9331 10.396 10.9245 10.4624 10.9064C 10.8495 10.7978 11.0756 10.3976 10.9662 10.0134C 9.6034 5.21769 5.75778 1.39243 0.929235 0.0283367Z"/>
</defs>
</svg>
