<svg width="23" height="25" viewBox="0 0 23 25" version="1.1" xmlns="http://www.w3.org/2000/svg" xmlns:xlink="http://www.w3.org/1999/xlink">
<title>youtube</title>
<desc>Created using Figma</desc>
<g id="Canvas" transform="translate(-4569 -2233)">
<g id="youtube">
<g id="Group">
<g id="Group">
<g id="Group">
<g id="Vector">
<use xlink:href="#path0_fill" transform="translate(4582.08 2249.2)" fill="#FFFFFF"/>
</g>
<g id="Vector">
<use xlink:href="#path1_fill" transform="translate(4586.78 2249.2)" fill="#FFFFFF"/>
</g>
<g id="Group">
<g id="Vector">
<use xlink:href="#path2_fill" transform="translate(4569.93 2243.26)" fill="#FFFFFF"/>
</g>
<g id="Vector">
<use xlink:href="#path3_fill" transform="translate(4573.89 2233)" fill="#FFFFFF"/>
</g>
<g id="Vector">
<use xlink:href="#path4_fill" transform="translate(4578.6 2235.35)" fill="#FFFFFF"/>
</g>
<g id="Vector">
<use xlink:href="#path5_fill" transform="translate(4583.45 2235.43)" fill="#FFFFFF"/>
</g>
</g>
</g>
</g>
</g>
</g>
</g>
<defs>
<path id="path0_fill" d="M 0.642738 -5.36442e-07C 0.429671 -5.36442e-07 0.215032 0.10039 0 0.308594L 0 4.60508C 0.215032 4.81758 0.429671 4.91992 0.642738 4.91992C 1.01266 4.91992 1.20214 4.60508 1.20214 3.96914L 1.20214 0.962109C 1.20253 0.324609 1.01266 -5.36442e-07 0.642738 -5.36442e-07Z"/>
<path id="path1_fill" d="M 0.645491 -5.36442e-07C 0.215819 -5.36442e-07 -1.43962e-07 0.32461 -1.43962e-07 0.977344L -1.43962e-07 1.63008L 1.28705 1.63008L 1.28705 0.977344C 1.28744 0.32461 1.07241 -5.36442e-07 0.645491 -5.36442e-07Z"/>
<path id="path2_fill" d="M 20.173 1.09805C 19.3651 0.2625 18.4602 0.258984 18.0446 0.210937C 15.0743 -4.65661e-08 10.6191 3.39746e-07 10.6191 3.39746e-07L 10.6093 3.39746e-07C 10.6093 3.39746e-07 6.15417 -4.65661e-08 3.18107 0.210937C 2.76673 0.258984 1.86335 0.262891 1.05472 1.09805C 0.418665 1.73555 0.210708 3.17891 0.210708 3.17891C 0.210708 3.17891 -2.99921e-08 4.87539 -2.99921e-08 6.57148L -2.99921e-08 8.1625C -2.99921e-08 9.8582 0.210708 11.5555 0.210708 11.5555C 0.210708 11.5555 0.418665 12.9988 1.05472 13.634C 1.86335 14.4695 2.92318 14.4434 3.39453 14.5305C 5.09434 14.6918 10.614 14.7406 10.614 14.7406C 10.614 14.7406 15.0747 14.7344 18.045 14.5211C 18.4606 14.4738 19.3655 14.4691 20.1733 13.634C 20.8098 12.9988 21.0174 11.5555 21.0174 11.5555C 21.0174 11.5555 21.2281 9.8582 21.2281 8.1625L 21.2281 6.57148C 21.2281 4.87539 21.0174 3.17891 21.0174 3.17891C 21.0174 3.17891 20.8094 1.73555 20.173 1.09805ZM 4.67764 11.9207L 3.24593 11.9207L 3.24593 3.79492L 1.73205 3.79492L 1.73205 2.46445L 6.21904 2.46445L 6.21904 3.79492L 4.67804 3.79492L 4.67804 11.9207L 4.67764 11.9207ZM 9.75351 11.9207L 8.46489 11.9207L 8.46489 11.1516C 7.95424 11.7332 7.46638 12.0191 6.99386 12.0191C 6.57952 12.0191 6.29373 11.8504 6.16361 11.4934C 6.09364 11.2801 6.05118 10.943 6.05118 10.4453L 6.05118 4.87461L 7.33862 4.87461L 7.33862 10.0621C 7.33862 10.3609 7.33862 10.5168 7.34806 10.5582C 7.38068 10.7562 7.48014 10.8586 7.65115 10.8586C 7.90981 10.8586 8.17831 10.6605 8.4645 10.2598L 8.4645 4.87461L 9.75312 4.87461L 9.75312 11.9207L 9.75351 11.9207ZM 14.6438 9.80781C 14.6438 10.4574 14.6006 10.9273 14.5137 11.2262C 14.3415 11.7512 13.9976 12.0191 13.4865 12.0191C 13.0274 12.0191 12.5847 11.7664 12.155 11.2383L 12.155 11.9207L 10.8668 11.9207L 10.8668 2.46445L 12.155 2.46445L 12.155 5.55234C 12.5702 5.04492 13.0116 4.78828 13.4865 4.78828C 13.9972 4.78828 14.3411 5.05703 14.5137 5.58359C 14.6006 5.86836 14.6438 6.33281 14.6438 7.00078L 14.6438 9.80781ZM 19.4315 8.62969L 16.8567 8.62969L 16.8567 9.8793C 16.8567 10.532 17.0725 10.8582 17.5143 10.8582C 17.8312 10.8582 18.0156 10.6863 18.0895 10.3461C 18.1009 10.2766 18.1182 9.99141 18.1182 9.4793L 19.4315 9.4793L 19.4315 9.66641C 19.4315 10.077 19.4146 10.3602 19.4036 10.4891C 19.3612 10.7715 19.259 11.0273 19.1025 11.2527C 18.7463 11.7652 18.218 12.0184 17.5446 12.0184C 16.872 12.0184 16.3598 11.777 15.9879 11.2945C 15.7143 10.9422 15.5747 10.3859 15.5747 9.63789L 15.5747 7.16953C 15.5747 6.4168 15.6997 5.86758 15.9725 5.50976C 16.3444 5.02773 16.8567 4.7875 17.5143 4.7875C 18.1602 4.7875 18.6728 5.02734 19.0329 5.50976C 19.3022 5.86758 19.4319 6.4168 19.4319 7.16953L 19.4319 8.62969L 19.4315 8.62969Z"/>
<path id="path3_fill" d="M 3.25065 9.55469L 3.25065 5.68437L 4.98506 -2.09548e-10L 3.52661 -2.09548e-10L 2.54265 3.75195L 1.51859 -2.09548e-10L -7.1981e-08 -2.09548e-10C 0.305448 0.885937 0.621511 1.775 0.926173 2.6625C 1.38769 3.99492 1.67702 4.99922 1.80832 5.68398L 1.80832 9.5543L 3.25065 9.5543L 3.25065 9.55469Z"/>
<path id="path4_fill" d="M 1.92153 7.30351C 2.57253 7.30351 3.07807 7.05976 3.43816 6.57539C 3.71019 6.21992 3.84267 5.65898 3.84267 4.90078L 3.84267 2.40586C 3.84267 1.64609 3.71019 1.09062 3.43816 0.730469C 3.07768 0.242187 2.57253 -3.27826e-08 1.92153 -3.27826e-08C 1.27133 -3.27826e-08 0.764604 0.242187 0.406478 0.730469C 0.128548 1.09062 1.55959e-07 1.64609 1.55959e-07 2.40586L 1.55959e-07 4.90078C 1.55959e-07 5.65898 0.128548 6.21992 0.406478 6.57539C 0.764604 7.05976 1.27133 7.30351 1.92153 7.30351ZM 1.30002 2.14766C 1.30002 1.48906 1.50208 1.15977 1.92153 1.15977C 2.33902 1.15977 2.5399 1.48945 2.5399 2.14766L 2.5399 5.14336C 2.5399 5.80234 2.33902 6.13164 1.92153 6.13164C 1.50208 6.13164 1.30002 5.80195 1.30002 5.14336L 1.30002 2.14766Z"/>
<path id="path5_fill" d="M 3.74007 7.12148L 3.74007 2.68221e-08L 2.43966 2.68221e-08L 2.43966 5.44336C 2.1515 5.84727 1.87868 6.04805 1.61884 6.04805C 1.4439 6.04805 1.34051 5.94453 1.31339 5.74609C 1.29688 5.70352 1.29688 5.54688 1.29688 5.24414L 1.29688 2.68221e-08L -3.83899e-07 2.68221e-08L -3.83899e-07 5.63203C -3.83899e-07 6.13555 0.0424555 6.47617 0.115181 6.69102C 0.245695 7.05039 0.535026 7.21953 0.953691 7.21953C 1.427 7.21953 1.92075 6.93359 2.44005 6.34453L 2.44005 7.12148L 3.74007 7.12148Z"/>
</defs>
</svg>
