<svg width="139" height="105" viewBox="0 0 139 105" version="1.1" xmlns="http://www.w3.org/2000/svg" xmlns:xlink="http://www.w3.org/1999/xlink">
<title>Logo</title>
<desc>Created using Figma</desc>
<g id="Canvas" transform="translate(-4042 -2187)">
<g id="Logo">
<g id="XMLID 13">
<g id="XMLID 22">
<use xlink:href="#path0_fill" transform="translate(4042 2187)" fill="#2f80ed"/>
</g>
<g id="XMLID 21">
<use xlink:href="#path1_fill" transform="translate(4149.7 2238.9)" fill="#2f80ed"/>
</g>
<g id="XMLID 20">
<use xlink:href="#path2_fill" transform="translate(4148.01 2192.57)" fill="#2f80ed"/>
</g>
<g id="Vector">
<use xlink:href="#path3_fill" transform="translate(4048.44 2257.65)" fill="#2f80ed"/>
</g>
<g id="XMLID 131">
<g id="XMLID 132">
<use xlink:href="#path4_fill" transform="translate(4074.63 2209.11)" fill="#2f80ed"/>
</g>
<g id="XMLID 136">
<use xlink:href="#path5_fill" transform="translate(4084.48 2209.72)" fill="#2f80ed"/>
</g>
</g>
<g id="XMLID 128">
<g id="XMLID 129">
<use xlink:href="#path6_fill" transform="translate(4091.58 2209.99)" fill="#2f80ed"/>
</g>
</g>
<g id="XMLID 117">
<g id="XMLID 118">
<use xlink:href="#path7_fill" transform="translate(4101.87 2204.24)" fill="#2f80ed"/>
</g>
<g id="XMLID 122">
<use xlink:href="#path8_fill" transform="translate(4114.83 2207.51)" fill="#2f80ed"/>
</g>
<g id="XMLID 124">
<use xlink:href="#path9_fill" transform="translate(4123.52 2204.24)" fill="#2f80ed"/>
</g>
</g>
<g id="XMLID 12">
<g id="XMLID 88">
<use xlink:href="#path10_fill" transform="translate(4130 2209.37)" fill="#2f80ed"/>
</g>
<g id="XMLID 103">
<use xlink:href="#path11_fill" transform="translate(4138.79 2209.11)" fill="#2f80ed"/>
</g>
</g>
<g id="XMLID 2">
<g id="XMLID 3">
<use xlink:href="#path12_fill" transform="translate(4063.36 2233.51)" fill="#2f80ed"/>
</g>
<g id="XMLID 5">
<use xlink:href="#path13_fill" transform="translate(4078.98 2233.51)" fill="#2f80ed"/>
</g>
<g id="XMLID 7">
<use xlink:href="#path14_fill" transform="translate(4094.51 2233.51)" fill="#2f80ed"/>
</g>
<g id="XMLID 10">
<use xlink:href="#path15_fill" transform="translate(4109.41 2233.51)" fill="#2f80ed"/>
</g>
<g id="XMLID 82">
<use xlink:href="#path16_fill" transform="translate(4126.19 2233.51)" fill="#2f80ed"/>
</g>
<g id="XMLID 84">
<use xlink:href="#path17_fill" transform="translate(4133.11 2233.42)" fill="#2f80ed"/>
</g>
<g id="XMLID 86">
<use xlink:href="#path18_fill" transform="translate(4148.63 2233.51)" fill="#2f80ed"/>
</g>
</g>
<g id="XMLID 72">
<g id="XMLID 73">
<use xlink:href="#path19_fill" transform="translate(4049.52 2270.21)" fill="#2f80ed"/>
</g>
<g id="XMLID 75">
<use xlink:href="#path20_fill" transform="translate(4055.11 2270.12)" fill="#2f80ed"/>
</g>
<g id="XMLID 78">
<use xlink:href="#path21_fill" transform="translate(4060.26 2270.2)" fill="#2f80ed"/>
</g>
</g>
<g id="XMLID 64">
<g id="XMLID 65">
<use xlink:href="#path22_fill" transform="translate(4069.4 2270.2)" fill="#2f80ed"/>
</g>
<g id="XMLID 68">
<use xlink:href="#path23_fill" transform="translate(4074.81 2270.2)" fill="#2f80ed"/>
</g>
<g id="XMLID 70">
<use xlink:href="#path24_fill" transform="translate(4079.51 2270.2)" fill="#2f80ed"/>
</g>
</g>
<g id="XMLID 53">
<g id="XMLID 54">
<use xlink:href="#path25_fill" transform="translate(4089.09 2270.29)" fill="#2f80ed"/>
</g>
<g id="XMLID 56">
<use xlink:href="#path26_fill" transform="translate(4093.44 2270.12)" fill="#2f80ed"/>
</g>
<g id="XMLID 59">
<use xlink:href="#path27_fill" transform="translate(4098.86 2270.12)" fill="#2f80ed"/>
</g>
<g id="XMLID 61">
<use xlink:href="#path28_fill" transform="translate(4103.2 2270.2)" fill="#2f80ed"/>
</g>
</g>
<g id="XMLID 38">
<g id="XMLID 39">
<use xlink:href="#path29_fill" transform="translate(4112.39 2270.21)" fill="#2f80ed"/>
</g>
<g id="XMLID 41">
<use xlink:href="#path30_fill" transform="translate(4117.49 2270.2)" fill="#2f80ed"/>
</g>
<g id="XMLID 44">
<use xlink:href="#path31_fill" transform="translate(4122.81 2270.2)" fill="#2f80ed"/>
</g>
<g id="XMLID 47">
<use xlink:href="#path32_fill" transform="translate(4128.05 2270.12)" fill="#2f80ed"/>
</g>
<g id="XMLID 49">
<use xlink:href="#path33_fill" transform="translate(4133.11 2270.2)" fill="#2f80ed"/>
</g>
<g id="XMLID 51">
<use xlink:href="#path34_fill" transform="translate(4137.99 2270.2)" fill="#2f80ed"/>
</g>
</g>
<g id="XMLID 26">
<g id="XMLID 27">
<use xlink:href="#path35_fill" transform="translate(4147.48 2270.12)" fill="#2f80ed"/>
</g>
<g id="XMLID 29">
<use xlink:href="#path36_fill" transform="translate(4152.27 2270.2)" fill="#2f80ed"/>
</g>
<g id="XMLID 31">
<use xlink:href="#path37_fill" transform="translate(4157.06 2270.2)" fill="#2f80ed"/>
</g>
<g id="XMLID 33">
<use xlink:href="#path38_fill" transform="translate(4161.94 2270.12)" fill="#2f80ed"/>
</g>
<g id="XMLID 36">
<use xlink:href="#path39_fill" transform="translate(4167 2270.12)" fill="#2f80ed"/>
</g>
</g>
<g id="XMLID 1">
<g id="XMLID 23">
<use xlink:href="#path40_fill" transform="translate(4172.5 2270.03)" fill="#2f80ed"/>
</g>
</g>
</g>
</g>
</g>
<defs>
<path id="path0_fill" fill-rule="evenodd" d="M 52.5077 20.7789L 15.1511 0.795786C 14.2638 0.265262 13.1103 6.58786e-09 12.0455 0.0884207L 12.0455 -1.05406e-08C 9.47223 -1.05406e-08 5.83418 2.65262 1.48628 4.86314C -0.732046 5.83577 -0.0221833 7.33892 0.776412 9.37259C 3.34966 16.2694 6.63278 25.4652 9.73843 30.063C 10.0934 30.7704 10.6258 31.3893 11.2469 32.0083C 11.6906 32.4504 12.1342 32.7157 12.4891 32.8925C 13.6427 33.5999 15.2399 34.2188 17.3695 34.9262L 37.0681 44.2988L 39.109 44.2988C 37.4231 43.2377 35.6484 41.9998 33.8738 40.6735C 26.4202 35.0146 21.0075 33.6883 18.7004 29.9746C 16.0385 25.642 16.3047 12.9978 16.0385 10.8757C 15.861 9.01891 16.2159 7.6926 18.3455 7.95786C 22.6934 9.46101 38.0442 15.9157 50.1119 21.0441L 50.2006 21.0441L 50.4668 21.1325C 50.733 21.0441 50.9992 21.0441 51.3541 21.0441L 51.4429 21.0441C 51.7091 20.8673 52.064 20.7789 52.5077 20.7789Z"/>
<path id="path1_fill" fill-rule="evenodd" d="M 11.8015 3.80209C 13.0437 4.42104 14.286 5.03998 15.5283 5.74735C 16.593 7.16208 15.7944 12.6442 15.8832 18.0378C 15.9719 24.2273 11.1803 21.0441 7.80849 19.8947L -1.35396e-06 19.8947L 11.8902 25.0231C 14.5522 26.1725 15.1733 26.1725 16.948 25.9073C 19.1663 25.5536 20.3198 25.2883 23.3367 23.7852C 26.7973 22.0168 25.9987 19.1873 24.579 14.8547C 23.248 10.7873 22.9818 8.31155 20.2311 5.30524C 19.3438 3.97893 18.1015 2.82946 16.593 2.1221L 11.8015 1.34919e-06L 11.8015 3.80209Z"/>
<path id="path2_fill" fill-rule="evenodd" d="M 2.75072 36.0756L 21.7395 23.2546C 22.7156 22.5473 23.6029 21.9283 24.3128 21.221C 24.6677 20.9557 24.9339 20.602 25.2889 20.1599C 25.9987 19.3641 26.4424 18.5683 26.8861 17.7726C 28.9269 14.2357 30.9678 9.01891 32.4762 4.77472C 33.0086 3.44841 33.4523 2.38736 32.0326 1.85684C 29.1931 0.707366 26.4424 0.0884207 24.7565 1.57067e-15L 24.7565 0.0884206C 23.5142 0.176841 21.8283 0.795786 19.8762 2.21052L -2.70791e-06 16.2694L 0.266199 16.4463C 0.354931 16.5347 0.443667 16.5347 0.5324 16.6231L 16.6818 6.89681C 21.5621 3.89051 22.4494 5.03998 22.0945 10.08C 21.7396 14.6778 22.3607 17.5957 19.61 21.3094C 17.5691 24.0504 11.9789 27.9409 10.293 29.4441C 5.41271 33.9535 7.63103 31.743 2.75072 36.0756Z"/>
<path id="path3_fill" fill-rule="evenodd" d="M 38.3441 11.8484L 46.33 5.65893L 37.0131 11.8484L 38.3441 11.8484ZM 1.78611 19.0989C 1.43118 20.9557 1.07625 22.901 0.45512 25.3767C 0.0114562 27.322 -0.520941 28.0294 1.07625 29.4441C 4.09317 32.2736 5.24669 34.3072 7.55375 34.3072C 8.61854 34.4841 9.68334 34.1304 10.7481 33.3346L 29.2046 18.922L 26.4538 18.922L 14.9186 26.6146C 9.15094 30.5936 9.32841 25.1115 10.2157 18.922L 2.58471 18.922C 2.49598 18.922 2.40724 19.0104 2.40724 19.0104C 2.14104 19.0989 1.96358 19.0989 1.78611 19.0989ZM 16.8707 -1.34919e-06L 12.789 2.47578C 10.5707 3.89051 8.70727 5.03998 7.37628 6.27787C 6.93262 6.54313 6.57769 6.89681 6.13402 7.42734C 4.80303 8.75365 4.27063 10.2568 3.73824 11.8484L 11.2805 11.8484C 12.2566 7.6926 19.0003 4.33261 21.751 2.21052C 22.1947 1.85683 22.7271 1.50315 23.1707 1.14947C 22.7271 1.23789 22.1059 1.23789 21.5735 1.23789C 20.42 1.23789 19.2665 1.06105 18.2017 0.618948C 17.758 0.442106 17.3144 0.265261 16.8707 -1.34919e-06Z"/>
<path id="path4_fill" d="M 9.31695 14.1473L 9.05075 14.1473C 7.98596 14.1473 7.18736 13.1747 6.65496 11.141C 6.38877 9.90312 6.2113 8.57681 6.2113 7.2505L 6.2113 5.03998C 6.2113 4.59788 6.12257 3.97893 5.9451 3.18314C 5.50144 3.44841 5.14651 4.24419 4.79158 5.30524C 4.34791 6.80839 3.99298 7.6926 3.90425 7.86944C 3.63805 9.28417 3.19438 10.8757 2.66199 12.5557C 2.57325 12.821 2.57325 13.0863 2.48452 13.3515C 2.30705 13.7052 2.21832 13.8821 2.04085 13.8821C 1.77466 13.8821 1.41973 13.7052 1.06479 13.5284C 0.709863 13.2631 0.532396 13.0863 0.532396 12.9094C 0.621129 12.5557 0.621131 12.0252 0.621131 11.2294C 0.443665 10.3452 0.354931 9.63786 0.443664 9.10733C 0.443664 9.10733 0.177466 8.93049 0.177466 8.75365L 0.177466 6.45471C 0.266199 6.45471 0.35493 6.27787 0.532396 6.10103C 0.532396 6.01261 0.443664 5.92419 0.266198 5.92419C 0.266198 5.65893 0.2662 5.39366 0.354933 5.21682C 0.354933 5.1284 0.354932 4.95156 0.177466 4.6863C 0.177466 4.50946 0.266198 3.89051 0.266198 3.80209C 0.266198 3.62525 0.177464 3.44841 0.0887315 3.27157C 0.0887315 3.0063 0 2.65262 0 2.21052C 0 1.94526 0.62113 1.32631 0.887329 1.32631C 0.976061 1.32631 1.24226 1.41473 1.68593 1.50315C 2.12959 1.67999 2.39579 1.76841 2.48452 1.76841C 2.30705 2.21052 2.21832 3.09473 2.21832 4.33261C 2.12959 5.74735 2.04086 6.71997 1.95212 7.33892L 2.12959 7.51576C 2.39579 7.2505 2.57325 6.98524 2.75072 6.8084C 2.75072 6.54313 3.01692 6.10103 3.63805 5.21682C 3.63805 4.95156 3.81551 4.59788 4.08171 4.24419C 4.52537 3.27157 5.05777 2.1221 5.6789 0.795787C 5.9451 0.442104 6.03384 0.265262 6.12257 0.265262C 6.2113 0.265262 6.2113 0.353683 6.30003 0.353683C 6.38876 0.353683 6.56623 0.265262 7.0099 0.176841C 7.36483 -3.42568e-07 7.63103 6.74596e-07 7.71976 6.74596e-07C 7.89722 6.74596e-07 8.25216 0.08842 8.42962 0.08842C 8.42962 0.265261 8.25215 0.707366 8.25215 0.884208C 8.25215 0.972628 8.51835 1.59157 8.51835 1.85683C 8.51835 2.1221 8.51835 2.5642 8.51835 3.09473C 8.51835 3.62525 8.51835 3.97893 8.51835 4.06735L 8.51835 6.10103C 8.51835 6.10103 8.51835 6.36629 8.42962 6.89681C 8.42962 7.42734 8.42962 7.95786 8.42962 8.39997C 8.42962 9.01891 8.42962 9.54944 8.51835 9.99154C 8.60709 10.7873 8.60709 11.141 8.60709 11.141C 8.60709 11.2294 8.69582 11.6715 8.96202 12.3789C 9.22822 13.1747 9.31695 13.6168 9.40568 13.7052L 9.40568 14.1473L 9.31695 14.1473ZM 0.532396 9.10733C 0.621129 9.19575 0.621131 9.28417 0.621131 9.46102C 0.709863 9.3726 0.709862 9.19575 0.709862 9.01891C 0.709862 9.01891 0.621129 9.10733 0.532396 9.10733ZM 0.887329 6.98523L 0.709862 6.98523L 0.621131 7.16208L 0.709862 7.2505L 0.887329 6.98523Z"/>
<path id="path5_fill" d="M 7.09863 6.98523C 6.03383 7.42734 5.32397 7.6926 4.96904 7.86944C 4.08171 8.22312 3.37185 8.48839 2.75072 8.57681C 2.66199 8.66523 2.57325 8.75365 2.57325 8.84207C 2.57325 8.93049 2.57325 9.01891 2.57325 9.19575C 2.57325 9.37259 2.57325 9.46102 2.57325 9.54944C 2.57325 10.3452 2.83945 11.0526 3.28311 11.6715C 3.81551 12.3789 4.43664 12.7326 5.32397 12.7326C 5.4127 12.7326 5.76764 12.4673 6.4775 11.9368C 6.65497 12.1136 6.7437 12.2905 6.65496 12.4673C 6.38876 12.9094 6.2113 13.3515 5.85637 13.3515C 5.76764 13.3515 5.76763 13.3515 5.76763 13.3515C 5.76763 13.3515 5.76764 13.2631 5.6789 13.2631C 5.50144 13.2631 5.50144 13.4399 5.4127 13.4399C 5.4127 13.4399 4.96904 13.6168 4.79157 13.6168C 4.61411 13.6168 4.52537 13.5284 4.43664 13.3515C 4.43664 13.4399 4.34791 13.5284 4.17044 13.6168C 4.08171 13.6168 3.81551 13.5284 3.63805 13.5284C 3.46058 13.5284 3.28312 13.4399 3.19438 13.1747C 3.19438 13.1747 3.19438 13.2631 3.19438 13.4399C 3.01692 13.4399 2.75072 13.3515 2.39579 13.1747C 2.21832 13.0863 1.77466 12.6442 1.06479 11.9368C 1.06479 11.76 0.887329 11.4947 0.798596 11.141C 0.62113 10.9642 0.532397 10.7873 0.354931 10.5221C 0.0887328 9.90312 -1.35396e-06 9.10733 -1.35396e-06 8.1347C -1.35396e-06 6.01261 0.621129 3.62525 1.95212 0.972628C 2.39579 0.707366 2.92818 0.442104 3.54931 0.265263C 4.17044 0.0884214 4.79157 -3.37298e-07 5.23524 -3.37298e-07C 5.32397 -3.37298e-07 6.03383 0.176842 6.30003 0.265263C 6.38877 0.442104 6.56623 0.618945 6.7437 1.06105C 6.83243 1.32631 6.92116 2.38736 6.92116 4.33261C 6.92116 4.59788 6.92116 4.95156 7.0099 5.5705C 7.09863 6.18945 7.18736 6.45471 7.18736 6.45471C 7.36483 6.63155 7.27609 6.80839 7.09863 6.98523ZM 4.96904 1.59157C 4.70284 1.59157 4.61411 1.59157 4.43664 1.76841C 4.25918 2.03368 3.99298 2.38736 3.81551 2.74104C 3.72678 2.91788 3.54931 3.62525 3.10565 4.86314C 2.75072 6.10103 2.57325 6.71997 2.57325 6.89681C 2.57325 7.16208 2.57325 7.2505 2.66198 7.2505L 2.92819 7.2505C 3.01692 7.2505 3.46058 7.16208 4.08171 6.98523C 4.43664 6.89681 4.79157 6.89681 4.96904 6.71997C 4.96904 6.45471 4.96904 6.01261 5.05777 5.48208C 5.05777 5.48208 5.14651 5.39366 5.23524 5.39366C 5.23524 5.21682 5.23524 5.03998 5.23524 4.6863C 5.23524 4.50946 5.50144 4.06735 5.50144 3.97893C 5.32397 3.35999 5.23524 2.5642 4.96904 1.59157Z"/>
<path id="path6_fill" d="M 9.84934 13.6168C 9.67188 13.6168 9.76062 13.7052 9.58315 13.7052C 9.49442 13.7052 9.22822 13.5284 9.13949 13.5284C 9.13949 13.5284 8.87328 13.4399 8.42962 13.2631C 7.98596 13.0863 7.63103 12.9978 7.2761 12.9094C 6.92116 12.6442 6.7437 12.3789 6.65496 11.9368C 6.56623 11.5831 6.56623 11.2294 6.4775 10.7873C 6.4775 10.7873 6.12257 10.1684 5.32397 8.93049L 5.05777 8.93049C 4.79157 9.28417 4.34791 9.90312 3.72678 10.7873C 3.72678 10.8757 3.63805 11.0526 3.54931 11.2294C 3.46058 11.4063 3.10565 12.1136 2.30705 13.1747C 1.50846 14.3242 1.06479 14.9431 0.887327 14.9431C 0.798594 14.9431 0.443666 14.7663 0.2662 14.7663C 0.0887342 14.2357 -1.35396e-06 14.0589 -1.35396e-06 14.0589C -1.35396e-06 13.882 0.2662 13.5284 0.709864 12.821C 1.15353 12.1136 1.41973 11.6715 1.59719 11.6715C 1.68593 11.4063 1.77466 11.0526 1.86339 10.8757C 2.04086 10.6989 2.12959 10.6105 2.39579 10.3452C 2.39579 9.63786 2.66199 8.93049 3.37185 8.31155C 3.37185 8.31155 3.28311 8.22313 3.10565 8.13471C 3.19438 7.95787 3.37185 7.86944 3.46058 7.60418C 3.72678 6.98524 3.90425 6.54313 3.90425 6.27787C 3.90425 6.18945 3.46058 5.21682 2.66198 3.53683C 2.57325 3.35999 2.39579 3.27157 2.21832 3.09473C 2.04085 2.74104 1.86339 2.38736 1.77466 2.03368C 1.50846 1.50315 1.24226 1.14947 0.887327 1.06105C 0.97606 0.530524 1.15353 0.265262 1.59719 0.265262C 1.68593 0.265262 1.86339 0.442104 2.04086 0.442104C 2.12959 0.442104 2.57325 0.08842 2.75072 0.08842C 3.01692 0.08842 3.19438 0.0884204 3.37185 0.176841C 3.37185 0.442103 3.46058 0.795786 3.72678 1.14947C 4.17044 1.85683 4.43664 2.29894 4.43664 2.29894C 4.61411 2.74104 4.96904 3.35999 5.4127 4.15577C 5.6789 3.89051 5.9451 3.27157 6.30003 2.38736C 6.30003 2.29894 6.2113 2.1221 6.30003 1.94526C 6.65496 1.23789 7.0099 0.530525 7.36483 6.74596e-07C 7.80849 6.74596e-07 8.51835 0.0884204 9.40568 0.176841C 9.49441 0.265262 9.49442 0.442104 9.49442 0.707366C 9.49442 0.884207 9.49442 0.972627 9.49442 1.06105C 9.22822 1.32631 8.78455 1.85683 8.34089 2.47578C 7.0099 5.03998 6.38877 6.36629 6.38877 6.36629C 6.38877 6.18945 6.65496 6.80839 7.0099 8.04628C 7.09863 8.1347 7.18736 8.22312 7.2761 8.31155C 7.2761 8.48839 7.27609 8.66523 7.45356 9.01891C 7.63103 9.28418 7.63102 9.46102 7.63102 9.46102C 7.71976 9.54944 7.98596 9.90312 8.60709 10.6105C 8.87329 10.9642 9.05075 11.3179 9.05075 11.5831C 9.22822 11.6715 9.49441 12.1136 9.84934 12.9094C 9.84934 12.9094 9.93808 13.2631 10.1155 13.9705C 10.0268 13.7052 9.93808 13.6168 9.84934 13.6168Z"/>
<path id="path7_fill" d="M 7.36483 6.18945C 7.27609 6.27787 7.09863 6.45471 6.92116 6.63155C 6.65496 6.8084 6.2113 6.89682 5.50144 7.07366C 4.96904 7.16208 4.43664 7.33892 3.90424 7.33892C 3.72678 8.39997 3.72678 9.28417 3.81551 9.99154C 3.90425 10.5221 3.90424 10.7873 3.90424 10.7873C 3.90424 10.6989 3.90425 10.5221 3.81551 10.3452L 3.72678 10.3452C 3.72678 10.6105 3.81551 11.141 3.81551 11.141C 3.81551 11.3179 3.81551 11.5831 3.72678 12.0252C 3.63805 12.5557 3.63805 12.821 3.63805 12.9094C 3.63805 13.6168 3.81551 14.6778 3.81551 14.9431C 3.81551 15.1199 3.81551 15.3852 3.72678 15.562C 3.81551 15.6505 3.81551 16.0041 3.90424 16.6231C 3.90424 16.6231 3.90424 17.242 3.90424 18.4799C 3.90424 19.1873 3.90425 19.8947 4.08171 21.221C 4.17045 22.0168 4.25917 22.5473 4.43664 22.7241C 4.43664 22.7241 4.43664 22.8125 4.25918 22.9894C 4.25918 23.1662 4.25918 23.4315 4.25918 23.6967C 3.99298 23.6967 3.81551 23.5199 3.54931 23.1662C 3.28311 22.8125 3.10565 22.4589 3.10565 22.1936C 3.10565 22.1052 3.10565 21.9283 3.10565 21.6631C 3.01691 21.4862 2.83945 21.3094 2.75072 20.9557C 2.39579 19.4526 2.12959 17.9494 2.04086 16.5347C 2.04086 15.7389 1.95213 14.5894 1.86339 13.0863C 1.86339 12.7326 1.86339 11.4063 1.95212 9.10733C 1.95212 8.93049 1.86339 8.75365 1.77465 8.48839C 1.86339 8.22313 1.86339 7.78102 1.86339 7.16208C 1.86339 7.16208 1.33099 6.80839 0.266199 6.10103C 0.266199 6.01261 0.177463 5.83577 -2.70791e-06 5.5705C 0.354929 5.48208 0.976061 5.48208 1.59719 5.48208C 1.59719 5.48208 1.68592 5.48208 1.68592 5.39366C 1.68592 5.30524 1.68592 5.1284 1.59719 4.6863C 1.59719 4.24419 1.50846 3.97893 1.59719 3.89051C 1.68592 3.71367 1.68592 3.44841 1.77465 3.18314C 1.77465 1.50315 1.86339 0.530524 1.77465 0.176841C 1.95212 0.176841 2.21832 0.176841 2.57325 0.08842C 3.01692 -6.78549e-07 3.19439 6.74596e-07 3.19439 6.74596e-07C 3.81552 6.74596e-07 4.34791 0.265262 4.34791 0.707366C 4.25918 1.06105 4.17045 1.50315 4.08171 2.5642C 4.08171 2.74104 4.08171 3.0063 3.99298 3.35999C 3.99298 4.42104 3.99298 5.03998 4.17045 5.39366L 6.30004 5.48208C 6.12257 5.48208 6.7437 5.57051 8.07469 5.65893C 7.89723 6.01261 7.71976 6.18945 7.36483 6.18945ZM 3.01692 21.3978L 2.92818 21.3978L 2.92818 21.7515L 3.10565 21.7515L 3.10565 21.3978L 3.01692 21.3978ZM 3.28312 22.282L 3.01692 22.3704L 3.10565 22.4589L 3.28312 22.282Z"/>
<path id="path8_fill" d="M 7.80849 1.85683C 7.63102 2.21052 7.54229 2.47578 7.45356 2.65262C 7.27609 3.53683 7.0099 4.95156 6.65497 6.71997C 6.65497 6.89681 6.65497 6.98523 6.65497 7.2505C 6.56623 7.42734 6.30003 7.6926 5.85637 7.95786C 5.76764 7.78102 5.6789 7.60418 5.59017 7.33892C 5.50143 7.2505 5.32397 7.07366 5.23523 6.89682C 5.05777 6.54313 4.96904 6.10103 4.88031 5.39366C 4.79158 4.86314 4.70284 4.24419 4.61411 3.71367C 4.61411 3.71367 4.43664 3.62525 4.17044 3.53683C 3.90424 3.44841 3.81551 3.27157 3.72678 3.27157C 3.46058 3.27157 3.28312 3.44841 3.10565 3.80209C 2.92819 4.06735 2.92818 4.24419 2.92818 4.50946C 2.92818 5.21682 3.19438 6.01261 3.72678 6.80839C 4.08171 7.2505 4.61411 7.95786 5.50144 8.84207C 6.38876 9.72628 6.92116 10.3452 7.18736 10.6989C 7.71976 11.4947 7.98596 12.2021 7.98596 12.9094C 7.98596 13.5284 7.63102 14.1473 7.00989 14.8547C 6.38876 15.562 5.76763 16.0041 5.05777 16.2694C 4.88031 16.3578 4.52538 16.3578 3.99298 16.3578C 3.81551 16.3578 3.37185 16.4463 3.28312 16.4463C 3.19438 16.4463 3.01692 16.3578 2.75072 16.181C 2.48452 16.0041 2.30706 16.0041 2.30706 16.0041C 2.12959 16.0041 2.21832 16.0926 2.12959 16.0926C 2.04085 16.0926 1.77466 16.0041 1.41973 15.7389L 0.709861 15.2968C 0.266197 15.0315 2.70791e-06 14.9431 2.70791e-06 14.7663C 2.70791e-06 14.4126 0.621131 13.0863 1.86339 10.6989C 1.95212 10.9642 2.12959 11.3179 2.21832 11.76C 2.21832 12.0252 2.21832 12.3789 2.12959 12.821C 2.04085 13.2631 2.04085 13.5284 2.04085 13.5284C 2.04085 13.8821 2.12959 14.0589 2.30706 14.0589L 2.57325 14.0589C 3.01691 14.0589 3.54931 13.8821 4.17044 13.7052C 4.25918 13.5284 4.43664 13.3515 4.61411 13.1747C 4.88031 12.9978 5.1465 12.7326 5.59017 12.4673C 5.59017 12.1136 5.9451 11.6715 5.9451 11.4947C 5.9451 11.3179 5.6789 10.8757 5.23523 10.2568C 4.43664 9.28417 3.54932 8.31155 2.75072 7.42734C 1.77466 6.10103 1.24226 4.95156 1.15353 3.80209C 1.15353 3.80209 0.976063 3.53683 0.976063 3.35999C 0.976063 3.18315 1.24226 2.91788 1.68592 2.5642C 2.12959 2.21052 2.39578 2.03368 2.57325 2.03368C 2.75072 2.03368 2.75072 2.1221 2.83945 2.1221C 3.10565 2.1221 3.19438 2.03368 3.19438 1.94526L 3.10565 1.85683C 3.63805 1.67999 4.17044 1.76841 4.79157 1.94526C 4.96904 2.03368 5.14651 1.76841 5.32397 1.14947C 5.50144 0.530525 5.6789 0.265263 5.85637 0.265263C 6.03383 0.265263 6.12257 0.353682 6.2113 0.353682C 6.30003 0.353682 6.38876 0.265262 6.4775 0.0884207C 6.65496 0.0884207 7.0099 0.0884204 7.63103 -3.37298e-07C 7.63103 0.0884204 7.98596 0.795786 7.98596 0.884207C 8.07469 1.32631 7.98595 1.50315 7.80849 1.85683Z"/>
<path id="path9_fill" d="M 7.36483 6.18945C 7.27609 6.27787 7.09863 6.45471 6.92116 6.63155C 6.65497 6.8084 6.2113 6.89682 5.50144 7.07366C 4.96904 7.16208 4.43664 7.33892 3.90425 7.33892C 3.72678 8.39997 3.72678 9.28417 3.81551 9.99154C 3.90425 10.5221 3.90425 10.7873 3.90425 10.7873C 3.90425 10.6989 3.90425 10.5221 3.81551 10.3452L 3.72678 10.3452C 3.72678 10.6105 3.81551 11.141 3.81551 11.141C 3.81551 11.3179 3.81552 11.5831 3.72678 12.0252C 3.63805 12.5557 3.63804 12.821 3.63804 12.9094C 3.63804 13.6168 3.81551 14.6778 3.81551 14.9431C 3.81551 15.1199 3.81552 15.3852 3.72678 15.562C 3.81552 15.6505 3.81551 16.0041 3.90425 16.6231C 3.90425 16.6231 3.90425 17.242 3.90425 18.4799C 3.90425 19.1873 3.90424 19.8947 4.08171 21.221C 4.17044 22.0168 4.25918 22.5473 4.43664 22.7241C 4.43664 22.7241 4.43664 22.8125 4.25918 22.9894C 4.25918 23.1662 4.25918 23.4315 4.25918 23.6967C 3.99298 23.6967 3.81551 23.5199 3.54931 23.1662C 3.28311 22.8125 3.10565 22.4589 3.10565 22.1936C 3.10565 22.1052 3.10565 21.9283 3.10565 21.6631C 3.01692 21.4862 2.83945 21.3094 2.75072 20.9557C 2.39578 19.4526 2.12959 17.9494 2.04086 16.5347C 2.04086 15.7389 1.95212 14.5894 1.86339 13.0863C 1.86339 12.7326 1.86339 11.4063 1.95213 9.10733C 1.95213 8.93049 1.86339 8.75365 1.77466 8.48839C 1.86339 8.22313 1.86339 7.78102 1.86339 7.16208C 1.86339 7.16208 1.33099 6.80839 0.2662 6.10103C 0.2662 6.01261 0.177464 5.83577 -1.35396e-06 5.5705C 0.35493 5.48208 0.976063 5.48208 1.59719 5.48208C 1.59719 5.48208 1.68592 5.48208 1.68592 5.39366C 1.68592 5.30524 1.68593 5.1284 1.59719 4.6863C 1.59719 4.24419 1.50846 3.97893 1.59719 3.89051C 1.68593 3.71367 1.68592 3.44841 1.77466 3.18314C 1.77466 1.50315 1.86339 0.530524 1.77466 0.176841C 1.95212 0.176841 2.21832 0.176841 2.57325 0.08842C 3.01692 -6.78549e-07 3.19438 6.74596e-07 3.19438 6.74596e-07C 3.81551 6.74596e-07 4.34791 0.265262 4.34791 0.707366C 4.25918 1.06105 4.17044 1.50315 4.08171 2.5642C 4.08171 2.74104 4.08171 3.0063 3.99298 3.35999C 3.99298 4.42104 3.99298 5.03998 4.17045 5.39366L 6.30003 5.48208C 6.12256 5.48208 6.74369 5.57051 8.07469 5.65893C 7.89722 6.01261 7.71976 6.18945 7.36483 6.18945ZM 3.01692 21.3978L 2.92819 21.3978L 2.92819 21.7515L 3.01692 21.7515L 3.01692 21.3978ZM 3.28312 22.282L 3.01692 22.3704L 3.10565 22.4589L 3.28312 22.282Z"/>
<path id="path10_fill" d="M 7.27609 10.6105L 6.2113 12.4673C 6.03383 12.2905 5.9451 12.2021 5.9451 12.2021C 5.85637 12.6442 5.59017 12.9978 5.23524 13.2631L 4.43664 13.7936C 4.34791 13.7936 4.25917 13.7052 4.17044 13.4399C 4.08171 13.5284 4.08171 13.6168 4.08171 13.7936C 4.08171 13.7936 3.81551 13.882 3.72678 13.882C 3.28311 13.882 2.57325 13.4399 1.77466 12.6442C 1.0648 11.9368 0.621131 11.4947 0.443666 11.141C 0.443666 10.9642 0.35493 10.6105 0.177464 10.1684C 0.266197 9.99154 0.354934 9.90312 0.354934 9.72628C 0.354934 9.46101 0.266199 9.19575 0.0887328 8.84207L 0.266196 9.01891L 0.354934 8.84207C 0.0887355 8.66523 1.35396e-06 8.22313 1.35396e-06 7.42734C 1.35396e-06 6.89682 0.177466 6.01261 0.532397 4.77472C 0.798596 3.89051 0.976059 3.18315 1.15352 2.74104C 1.33099 2.29894 1.59719 1.85684 1.86339 1.50315C 1.86339 1.32631 1.77465 1.23789 1.59719 1.14947C 1.68592 0.972627 1.86339 0.795787 2.12959 0.530524C 2.30706 0.442104 2.48452 0.353682 2.83945 0.265261C 3.46058 0.08842 3.90424 -6.28267e-15 4.17044 -6.28267e-15C 4.96904 -6.28267e-15 5.4127 0.265261 5.4127 0.707365C 5.4127 0.795786 5.23524 0.972628 4.88031 1.32631C 4.96904 1.50315 5.14651 1.59157 5.23524 1.67999C 5.23524 1.76841 5.23524 1.85684 5.4127 1.94526C 5.4127 1.94526 5.4127 1.76841 5.4127 1.59157C 5.6789 1.67999 6.30003 2.1221 7.09863 2.82946C 7.27609 3.0063 7.27609 3.18314 7.27609 3.53683C 7.45356 3.71367 7.45356 3.80209 7.45356 3.80209C 7.36483 3.71367 7.27609 3.71367 7.27609 3.80209C 7.27609 3.97893 7.63102 4.24419 7.63102 4.33261C 7.89722 5.5705 7.98596 6.54313 7.98596 7.2505C 8.25216 8.22312 7.89722 9.37259 7.27609 10.6105ZM 0.354934 7.51576L 0.177464 7.51576L 0.0887328 8.22312L 0.266196 8.22312L 0.354934 7.51576ZM 1.41973 2.1221L 1.33099 2.47578L 1.24226 2.38736L 1.33099 2.1221L 1.41973 2.1221ZM 1.86339 1.50315L 1.59719 1.85683L 1.50846 1.76841L 1.77466 1.41473L 1.86339 1.50315ZM 5.6789 5.74734C 5.6789 5.48208 5.59017 5.1284 5.50143 4.59788C 5.50143 4.42104 5.4127 4.33261 5.32397 4.33261C 5.14651 4.33261 5.23523 3.97893 5.1465 3.97893C 5.32397 3.97893 5.4127 3.89051 5.4127 3.80209C 5.4127 3.80209 5.32397 3.71367 5.1465 3.53683C 4.96904 3.35999 4.61411 2.91788 4.17044 2.03368C 3.81551 2.38736 3.37185 3.27157 2.83945 4.59788C 2.30705 6.10103 2.04085 7.42734 2.04085 8.48839C 2.04085 9.01891 2.12959 9.72628 2.30705 10.5221C 2.57325 11.4947 2.83945 12.1136 3.28311 12.3789C 3.81551 12.2905 4.34791 11.6715 5.05777 10.3452C 5.4127 9.54943 5.6789 8.84207 5.85637 8.1347C 5.9451 7.60418 5.85637 6.71997 5.6789 5.74734ZM 4.52537 1.85683C 4.52537 1.85683 4.52538 1.94525 4.43664 2.03368C 4.52538 2.1221 4.6141 2.1221 4.70284 2.1221C 4.6141 2.03368 4.61411 1.94526 4.52537 1.85683ZM 4.88031 1.59157L 4.70284 1.85683C 4.8803 2.03368 4.96904 2.03368 5.1465 2.03368C 5.05777 1.85683 4.88031 1.67999 4.88031 1.59157ZM 5.76764 9.46101L 5.6789 9.46101L 5.50143 9.8147L 5.59017 9.90312L 5.76764 9.46101ZM 6.03383 5.83576C 5.9451 5.92418 5.9451 6.01261 5.9451 6.18945C 5.9451 6.36629 6.03383 6.45471 6.30003 6.54313C 6.2113 6.18945 6.12256 6.01261 6.03383 5.83576ZM 6.2113 2.29894L 6.12257 2.29894L 6.03383 2.5642L 6.2113 2.65262L 6.2113 2.29894ZM 6.30003 10.5221L 6.30003 10.2568L 6.12257 10.2568L 6.12257 10.5221L 6.30003 10.5221ZM 6.7437 7.16207L 6.56623 7.07366L 6.47749 7.33892L 6.65496 7.42734L 6.7437 7.16207ZM 7.27609 3.62525L 7.18736 3.09472L 7.0099 3.09472L 7.09863 3.62525L 7.27609 3.62525ZM 7.63102 4.50946L 7.63102 4.24419L 7.45356 4.24419L 7.45356 4.50946L 7.63102 4.50946Z"/>
<path id="path11_fill" d="M 9.31695 7.42734C 9.13949 8.31154 8.78455 9.28417 8.16342 10.2568C 7.63102 11.3178 7.18736 11.8484 6.7437 12.0252C 6.65496 12.0252 6.4775 12.2021 6.2113 12.4673C 5.9451 12.7326 5.85637 12.821 5.76764 12.821C 5.6789 12.821 5.59017 12.9094 5.50144 12.9094C 5.4127 12.9094 5.14651 12.6442 4.96904 12.6442C 4.88031 12.6442 4.70284 12.821 4.61411 12.821C 4.43664 12.821 4.34791 12.6442 4.25917 12.6442C 4.08171 12.6442 3.90425 12.4673 3.54932 12.2021C 3.37185 12.2905 3.28312 12.4673 3.28312 12.821C 3.28312 12.821 3.19439 12.9094 3.10565 12.9094C 3.01692 13.5284 2.92818 14.4126 2.92818 15.4736C 2.92818 16.0041 2.83945 16.6231 2.75072 17.4189L 2.75072 18.0378C 2.75072 18.1262 2.83945 18.4799 2.92818 19.2757C 3.01692 20.0715 3.10565 20.5136 3.10565 20.5136C 3.10565 21.0441 3.01692 21.3978 2.75072 21.6631C 2.66199 21.5746 2.48452 21.5746 2.21832 21.5746C 1.95213 21.5746 1.33099 20.9557 1.24226 20.7789C 1.06479 20.3368 1.06479 19.7178 1.06479 19.0105L 0.976063 18.922C 0.976063 18.922 0.976061 18.6568 1.06479 18.1262C 1.15353 17.5957 1.15353 17.242 1.15353 16.9768C 1.15353 16.181 1.24226 15.2084 1.331 14.0589L 1.24226 9.72628C 1.24226 9.8147 1.15353 9.8147 1.15353 9.90312C 0.97606 8.93049 0.887327 7.60418 0.709861 5.83577C 0.709861 4.95156 0.62113 4.33261 0.62113 3.89051C 0.532397 3.09472 0.443662 2.5642 0.354929 2.21052C 0.266196 1.85684 0.0887356 1.23789 2.70791e-06 0.442104C 0.443667 0.265263 0.887329 6.74596e-07 1.50846 6.74596e-07C 1.50846 6.74596e-07 1.86339 0.088421 2.66199 0.353683C 2.83945 0.530524 2.92818 0.707365 2.92818 1.06105C 2.92818 1.32631 2.83945 1.76841 2.83945 1.94525C 2.83945 2.1221 2.92818 2.29894 3.01691 2.38736C 3.10565 2.29894 3.19438 2.21052 3.28312 2.21052C 3.46058 2.21052 3.46058 2.29894 3.54932 2.29894C 3.54932 2.29894 3.54931 2.21052 3.46058 2.03368C 3.54931 2.03368 3.72678 1.85683 4.08171 1.50315C 4.34791 1.23789 4.43664 1.14947 4.52538 1.14947C 4.70284 1.14947 4.61411 1.23789 4.70284 1.23789C 4.79157 1.23789 4.96904 0.884208 5.1465 0.884208C 5.32397 0.884208 5.32397 1.06105 5.4127 1.06105C 5.50144 1.06105 5.9451 0.795787 6.12256 0.795787C 6.56623 0.795787 7.0099 0.884207 7.63103 1.14947C 7.71976 1.23789 7.89722 1.41473 8.25215 1.59157C 8.34089 1.59157 8.34088 1.76841 8.34088 1.94525C 8.96201 2.21052 9.31695 3.18315 9.31695 4.86314C 9.40568 6.36629 9.40568 7.07365 9.31695 7.42734ZM 1.24226 5.74735L 1.24226 5.48208L 1.06479 5.48208L 1.06479 5.74735L 1.24226 5.74735ZM 1.50846 6.89681C 1.50846 6.89681 1.41972 7.16208 1.24226 7.78102C 1.41972 7.78102 1.50846 7.78102 1.50846 7.6926C 1.59719 7.42734 1.50846 7.16208 1.50846 6.89681ZM 1.59719 9.46102L 1.41973 9.46102L 1.331 9.63785L 1.41973 9.72628L 1.59719 9.46102ZM 1.77466 14.3242L 1.68592 14.3242L 1.59719 14.501L 1.68592 14.5894L 1.77466 14.3242ZM 3.19438 12.7326L 3.19438 12.4673L 3.01691 12.4673L 3.01691 12.7326L 3.19438 12.7326ZM 7.00989 6.63155C 6.92116 6.27787 6.92116 5.92419 7.00989 5.74735C 6.92116 5.48208 6.92116 5.30524 7.00989 5.21682C 7.09862 5.21682 7.09863 5.30524 7.09863 5.48208C 7.09863 5.39366 7.18736 5.21682 7.18736 5.03998C 7.18736 4.86314 7.18736 4.77472 7.09863 4.59788C 7.09863 4.6863 7.09862 4.6863 7.00989 4.77472L 6.7437 3.62525C 6.65496 3.09472 6.38876 2.74104 6.03383 2.5642C 5.85637 2.5642 5.6789 2.65262 5.32397 2.74104C 4.61411 3.44841 4.17044 4.42103 3.90424 5.5705C 3.81551 5.83577 3.63805 6.80839 3.37185 8.48839C 3.37185 8.66523 3.19438 8.84207 3.19438 9.01891C 3.19438 9.46102 3.37185 10.1684 3.72678 11.141C 3.90424 11.141 4.08171 11.141 4.43664 11.141C 4.79158 11.141 4.96904 11.0526 4.96904 11.0526C 4.96904 11.0526 5.1465 10.8757 5.23523 10.6105C 5.4127 10.3452 5.59017 10.1684 5.85637 10.08C 5.9451 9.90312 6.38876 9.54944 6.56623 9.54944L 6.7437 9.37259L 6.7437 8.93049C 6.65496 9.01891 6.4775 9.10733 6.38876 9.19575C 6.38876 9.10733 6.38877 9.01891 6.30003 8.93049C 6.7437 7.95786 7.00989 7.51576 7.00989 7.42734C 7.09862 7.33892 7.09862 7.07366 7.00989 6.63155ZM 7.63103 5.21682L 7.63103 4.95156L 7.45356 4.95156L 7.45356 5.21682L 7.63103 5.21682ZM 7.71976 8.13471L 7.54229 8.13471L 7.45356 8.31154L 7.54229 8.39997L 7.71976 8.13471ZM 8.42962 5.03998L 8.25215 5.03998L 8.16342 5.30524L 8.25215 5.39366L 8.42962 5.03998ZM 8.34088 8.93049C 8.34088 9.10733 8.42962 9.19575 8.42962 9.19575C 8.60709 8.84207 8.69582 8.48839 8.69582 8.22312C 8.69582 8.31155 8.34088 8.75365 8.34088 8.93049ZM 8.96202 5.65892L 8.96202 5.21682L 8.78455 5.21682L 8.78455 5.65892L 8.96202 5.65892ZM 9.05075 7.51576L 9.05075 7.07366L 8.87329 7.07366L 8.87329 7.51576L 9.05075 7.51576Z"/>
<path id="path12_fill" d="M 4.52537 15.7389C 4.52537 16.7999 4.70284 17.5073 5.14651 18.0378C 5.59017 18.5683 6.03383 18.7452 6.65496 18.7452C 7.27609 18.7452 7.71976 18.4799 8.16342 18.0378C 8.60709 17.5073 8.78455 16.7999 8.78455 15.7389L 8.78455 -6.74596e-07L 13.3099 -6.74596e-07L 13.3099 15.8273C 13.3099 17.0652 13.1325 18.2147 12.7775 19.0989C 12.4226 20.0715 11.9789 20.7789 11.3578 21.3978C 10.7367 22.0168 10.0268 22.4589 9.22822 22.8125C 8.42962 23.1662 7.54229 23.2546 6.65496 23.2546C 5.76763 23.2546 4.88031 23.0778 4.08171 22.8125C 3.28311 22.4589 2.57325 22.0168 1.95212 21.3978C 1.33099 20.7789 0.887328 19.9831 0.532397 19.0989C 0.177465 18.2147 -6.76978e-07 17.0652 -6.76978e-07 15.8273L -6.76978e-07 -6.74596e-07L 4.52537 -6.74596e-07L 4.52537 15.7389Z"/>
<path id="path13_fill" d="M 8.78455 23.0778L 6.03383 13.7936L 4.52538 16.7999L 4.52538 23.0778L 1.35396e-06 23.0778L 1.35396e-06 -6.74596e-07L 4.52538 -6.74596e-07L 4.52538 7.6926L 8.34089 -6.74596e-07L 13.5761 -6.74596e-07L 8.78455 8.66523L 13.6649 23.0778L 8.78455 23.0778Z"/>
<path id="path14_fill" d="M 5.76764 14.501L 4.52538 14.501L 4.52538 23.0778L 1.35396e-06 23.0778L 1.35396e-06 -6.74596e-07L 7.27609 -6.74596e-07C 8.16342 -6.74596e-07 9.05075 0.176841 9.84935 0.442103C 10.6479 0.707365 11.3578 1.14947 11.8902 1.76841C 12.4226 2.38736 12.8663 3.09472 13.2212 3.97893C 13.5761 4.86314 13.6649 5.83577 13.6649 6.98524C 13.6649 7.95786 13.5761 8.75365 13.3099 9.46101C 13.0437 10.1684 12.7775 10.8757 12.4226 11.4063C 12.0677 11.9368 11.7127 12.4673 11.2691 12.821C 10.8254 13.1747 10.4705 13.4399 10.0268 13.6168L 13.9311 23.0778L 8.87329 23.0778L 5.76764 14.501ZM 4.43664 10.2568L 6.83243 10.2568C 7.63102 10.2568 8.16342 9.99154 8.60709 9.3726C 9.05075 8.84207 9.22822 8.1347 9.22822 7.2505C 9.22822 6.45471 9.05075 5.74734 8.60709 5.1284C 8.16342 4.59788 7.63102 4.24419 6.83243 4.24419L 4.43664 4.24419L 4.43664 10.2568Z"/>
<path id="path15_fill" d="M -2.70791e-06 23.0778L 5.14651 -6.74596e-07L 10.2043 -6.74596e-07L 15.4395 23.0778L 10.6479 23.0778L 9.84935 18.7452L 5.59017 18.7452L 4.79157 23.0778L -2.70791e-06 23.0778ZM 7.71976 6.80839L 6.2113 14.6778L 9.31695 14.6778L 7.71976 6.80839Z"/>
<path id="path16_fill" d="M -1.35396e-06 -6.74596e-07L 4.52537 -6.74596e-07L 4.52537 23.0778L -1.35396e-06 23.0778L -1.35396e-06 -6.74596e-07Z"/>
<path id="path17_fill" d="M 9.22822 13.2631L 9.22822 6.74596e-07L 13.2212 6.74596e-07L 13.2212 23.0778L 9.13948 23.0778L 3.99298 9.8147L 3.99298 23.0778L 1.35396e-06 23.0778L 1.35396e-06 0.08842L 4.08171 0.08842L 9.22822 13.2631Z"/>
<path id="path18_fill" d="M 1.35396e-06 -6.74596e-07L 10.7367 -6.74596e-07L 10.7367 4.50946L 4.52538 4.50946L 4.52538 9.01891L 8.34089 9.01891L 8.34089 13.5284L 4.52538 13.5284L 4.52538 18.6568L 10.9141 18.6568L 10.9141 23.0778L 1.35396e-06 23.0778L 1.35396e-06 -6.74596e-07Z"/>
<path id="path19_fill" d="M 0.177465 3.53683C 0.0887325 3.53683 0.088733 3.44841 0.088733 3.35999C 0.088733 3.27156 0.177466 3.27157 0.266199 3.18315C 0.354931 3.09473 0.443664 3.0063 0.532397 2.91788C 0.532397 2.65262 0.532397 2.47578 0.443664 2.21052C 0.443664 2.03368 0.354931 1.76841 0.266199 1.59157C 0.177466 1.41473 0.177466 1.14947 0.088733 0.972629C 1.65278e-07 0.795788 -1.69244e-07 0.530522 -1.69244e-07 0.35368C -1.69244e-07 0.176839 1.65278e-07 0.0884221 0.088733 0.0884221C 0.177466 1.35051e-06 0.266199 2.69839e-06 0.354932 2.69839e-06C 0.443665 2.69839e-06 0.443664 2.69839e-06 0.532397 2.69839e-06L 0.62113 0.0884221C 0.62113 0.0884221 0.62113 0.17684 0.62113 0.265261C 0.62113 0.353681 0.62113 0.353685 0.62113 0.442106C 0.62113 0.442106 0.62113 0.530526 0.709863 0.530526C 0.798596 0.530526 0.798595 0.530526 0.887328 0.530526C 1.24226 0.530526 1.59719 0.530527 1.95212 0.442106C 2.30705 0.353685 2.66199 0.353681 3.01692 0.265261C 3.37185 0.17684 3.72678 0.176843 4.08171 0.0884221C 4.43664 1.35051e-06 4.79157 0.0884221 5.14651 0.0884221C 5.14651 0.176843 5.14651 0.265259 5.14651 0.35368C 5.14651 0.442101 5.14651 0.530526 5.14651 0.530526C 5.14651 0.530526 5.14651 0.618945 5.05777 0.618945C 5.05777 0.618945 4.96904 0.618945 4.88031 0.618945C 4.79157 0.618945 4.61411 0.618945 4.43664 0.618945C 4.25918 0.618945 4.08171 0.618945 3.81551 0.618945C 3.63805 0.618945 3.37185 0.618945 3.10565 0.618945C 2.83945 0.618945 2.66199 0.618944 2.39579 0.707364C 2.12959 0.707364 1.95212 0.795784 1.77466 0.795784C 1.59719 0.795784 1.41973 0.88421 1.24226 0.88421C 1.06479 0.88421 1.15353 1.06105 1.06479 1.06105C 0.976061 1.06105 0.887328 1.14947 0.887328 1.23789C 0.887328 1.23789 0.887328 1.32631 0.887328 1.41473C 0.887328 1.50315 0.887328 1.59157 0.887328 1.67999C 0.887328 1.76841 0.887328 1.85683 0.887328 2.03367C 0.887328 2.21052 0.887329 2.29894 0.976061 2.38736C 0.976061 2.47578 0.976061 2.5642 1.06479 2.65262C 1.06479 2.74104 1.15353 2.74104 1.15353 2.74104C 1.41973 2.74104 1.77466 2.74104 2.04086 2.65262C 2.30705 2.5642 2.66199 2.5642 2.92818 2.47578C 3.19438 2.38736 3.54931 2.38736 3.81551 2.29894C 4.08171 2.21052 4.43664 2.21052 4.70284 2.21052C 4.70284 2.21052 4.70284 2.21052 4.70284 2.29894L 4.70284 2.38736L 4.70284 2.47578L 4.70284 2.5642C 4.61411 2.65262 4.43664 2.65262 4.17044 2.74104C 3.99298 2.82946 3.72678 2.82946 3.46058 2.82946C 3.19438 2.82946 2.92818 2.91788 2.66199 2.91788C 2.39579 2.91788 2.12959 3.0063 1.95212 3.0063C 1.68592 3.0063 1.50846 3.09473 1.33099 3.09473C 1.15353 3.18315 1.06479 3.18315 0.976061 3.27157L 0.887328 5.21682L 0.798596 5.30524C 0.798596 5.30524 0.709862 5.30524 0.62113 5.30524C 0.532397 5.30524 0.532397 5.30524 0.443664 5.30524C 0.354931 5.30524 0.354931 5.30524 0.266199 5.30524L 0.266199 3.53683C 0.354931 3.62525 0.177465 3.53683 0.177465 3.53683Z"/>
<path id="path20_fill" d="M 0 3.09472C 0 2.74104 6.74334e-07 2.38736 0.177466 1.94526C 0.266199 1.59157 0.443664 1.23789 0.709862 0.97263C 0.887328 0.707368 1.15353 0.442104 1.50846 0.265262C 1.86339 0.0884207 2.12959 -2.69839e-06 2.48452 -2.69839e-06C 2.75072 -2.69839e-06 3.10565 1.34392e-06 3.37185 0.176843C 3.63805 0.265263 3.90425 0.442104 4.17044 0.707366C 4.43664 0.972628 4.61411 1.23789 4.79157 1.59157C 4.96904 1.94526 5.05777 2.29894 5.05777 2.74104C 5.05777 3.62525 4.88031 4.24419 4.43664 4.6863C 3.99298 5.1284 3.37185 5.30524 2.57325 5.30524C 2.21832 5.30524 1.86339 5.30524 1.59719 5.21682C 1.33099 5.1284 1.06479 5.03998 0.798595 4.86314C 0.532397 4.68629 0.354931 4.42104 0.266198 4.15577C 0.177465 3.89051 0 3.53683 0 3.09472ZM 0.621131 3.0063C 0.621131 3.62525 0.798596 4.06735 1.06479 4.42103C 1.33099 4.77472 1.86339 4.86314 2.48452 4.86314C 2.83945 4.86314 3.10565 4.77472 3.28312 4.6863C 3.54931 4.59788 3.72678 4.42104 3.90425 4.24419C 4.08171 4.06735 4.17044 3.89051 4.25918 3.62525C 4.34791 3.35999 4.34791 3.09473 4.34791 2.82946C 4.34791 2.47578 4.25918 2.21052 4.17044 1.85684C 4.08171 1.59158 3.90425 1.32631 3.72678 1.14947C 3.54931 0.972628 3.37185 0.795786 3.10565 0.707366C 2.83945 0.618945 2.66199 0.530527 2.39579 0.530527C 2.21832 0.530527 2.04086 0.530526 1.86339 0.618946C 1.68592 0.707367 1.50846 0.795784 1.41973 0.884204C 1.24226 0.972625 1.15353 1.14947 1.06479 1.32631C 0.976062 1.50315 0.887328 1.68 0.798595 1.85684C 0.709863 2.03368 0.621131 2.21052 0.621131 2.38736C 0.621131 2.65262 0.621131 2.82946 0.621131 3.0063Z"/>
<path id="path21_fill" d="M 0.798596 5.21682C 0.798596 5.21682 0.798596 5.30524 0.709863 5.30524L 0.62113 5.30524L 0.532397 5.30524L 0.443664 5.30524C 0.354931 5.30524 0.266199 5.21682 0.177466 5.1284C 0.0887329 5.03998 0.0887325 4.77472 0.0887325 4.59788C 0.0887325 4.33261 0.0887325 4.06735 0.0887325 3.80209C 0.0887325 3.44841 0.0887325 3.09473 0.0887325 2.74104C 0.0887325 2.38736 0.0887325 1.94526 0.0887325 1.50315C 0.0887325 1.06105 0.0887322 0.618945 -6.76978e-07 0.176841C 0.0887322 0.0884207 0.0887329 2.69839e-06 0.177466 2.69839e-06C 0.266199 2.69839e-06 0.266199 2.69839e-06 0.354932 2.69839e-06C 0.443665 2.69839e-06 0.443664 0.0884207 0.532397 0.176841C 0.532397 0.265262 0.62113 0.265259 0.62113 0.35368C 0.709863 0.265259 0.976062 0.0884221 1.15353 0.0884221C 1.41973 1.35051e-06 1.59719 2.69839e-06 1.95212 2.69839e-06C 2.21832 2.69839e-06 2.48452 2.69839e-06 2.75072 2.69839e-06C 3.01692 2.69839e-06 3.28312 0.0884207 3.54931 0.176841C 3.81551 0.265262 3.99298 0.353685 4.17044 0.442106C 4.34791 0.530527 4.43664 0.618942 4.43664 0.795784C 4.43664 0.972625 4.34791 1.06105 4.25918 1.23789C 4.08171 1.41473 3.81551 1.50315 3.46058 1.67999C 3.37185 1.67999 3.28312 1.76842 3.19438 1.76842C 3.10565 1.76842 2.92818 1.85683 2.75072 1.94526C 2.57325 1.94526 2.39579 1.94525 2.21832 2.03367C 2.04086 2.1221 1.86339 2.1221 1.77466 2.21052C 1.59719 2.29894 1.50846 2.29894 1.33099 2.38736C 1.24226 2.47578 1.15353 2.47578 1.06479 2.47578L 1.06479 2.5642C 1.06479 2.5642 1.15353 2.65262 1.24226 2.65262C 1.33099 2.74104 1.41973 2.82946 1.59719 2.91788C 1.77466 3.0063 1.95212 3.18315 2.21832 3.27157C 2.48452 3.44841 2.83945 3.62525 3.28312 3.89051C 3.72678 4.15577 4.17044 4.42103 4.79157 4.77471C 4.79157 4.77471 4.88031 4.77472 4.88031 4.86314L 4.96904 4.95156L 5.05777 5.03998L 5.05777 5.1284C 5.05777 5.21682 5.05777 5.21682 4.96904 5.21682C 4.96904 5.21682 4.88031 5.30524 4.79157 5.30524C 4.70284 5.30524 4.70284 5.30524 4.61411 5.30524C 4.52538 5.30524 4.52537 5.30524 4.43664 5.30524C 4.34791 5.30524 4.25918 5.30524 4.08171 5.21682C 3.90425 5.1284 3.72678 5.03998 3.54931 4.86314C 3.37185 4.6863 3.10565 4.59788 2.83945 4.42104C 2.57325 4.2442 2.30705 4.06735 2.12959 3.89051C 1.95212 3.71367 1.68592 3.53683 1.41973 3.35999C 1.15353 3.18314 0.976062 3.09472 0.798596 3.0063L 0.798596 5.21682ZM 0.798596 0.88421C 0.798596 0.97263 0.709863 1.06105 0.709863 1.14947C 0.709863 1.23789 0.709863 1.32631 0.709863 1.41473C 0.709863 1.50315 0.709864 1.59157 0.798596 1.67999C 0.798596 1.76841 0.887328 1.85684 0.887328 1.85684C 0.976061 1.85684 1.06479 1.85684 1.15353 1.85684C 1.24226 1.85684 1.41973 1.76842 1.59719 1.76842C 1.77466 1.68 1.95212 1.67999 2.21832 1.59157C 2.39579 1.50315 2.66199 1.41473 2.83945 1.32631C 3.01692 1.23789 3.19438 1.14947 3.37185 1.06105C 3.54931 0.972628 3.63805 0.884204 3.72678 0.795784C 3.81551 0.707363 3.81551 0.618945 3.72678 0.618945C 3.72678 0.530524 3.54931 0.530527 3.37185 0.442106C 3.28312 0.442106 3.19438 0.442101 3.01692 0.35368C 2.83945 0.35368 2.75072 0.35368 2.57325 0.35368C 2.39579 0.35368 2.21832 0.35368 2.04086 0.35368C 1.86339 0.35368 1.68592 0.353685 1.50846 0.442106C 1.33099 0.442106 1.24226 0.530526 1.06479 0.530526C 0.976061 0.795788 0.887329 0.795789 0.798596 0.88421Z"/>
<path id="path22_fill" d="M 0.532398 5.48208L 0.443663 5.48208C 0.443663 5.48208 0.354933 5.48208 0.2662 5.48208C 0.177467 5.48208 0.177466 5.39366 0.0887335 5.39366L -1.35396e-06 5.30524C -1.35396e-06 5.21682 0.0887322 5.1284 0.177465 4.95156C 0.266198 4.77472 0.266199 4.59788 0.354931 4.42104C 0.443664 4.2442 0.532396 3.97893 0.621129 3.71367C 0.709862 3.44841 0.798594 3.18314 0.887327 3.0063C 0.97606 2.74104 1.0648 2.47578 1.15353 2.29894C 1.24226 2.1221 1.33099 1.85683 1.41973 1.59157C 1.50846 1.41473 1.59719 1.23789 1.59719 1.06105C 1.68593 0.884207 1.68592 0.795785 1.77466 0.707364C 1.77466 0.618944 1.86339 0.530527 1.86339 0.442106C 1.86339 0.353685 1.86339 0.265261 1.95212 0.265261C 2.04085 0.265261 2.04086 0.176843 2.04086 0.088422C 2.12959 0.088422 2.21832 2.69839e-06 2.30705 2.69839e-06C 2.48452 0.176844 2.66198 0.353684 2.83945 0.530526C 3.01692 0.707367 3.10565 0.972625 3.19438 1.23789C 3.28312 1.50315 3.37185 1.67999 3.46058 1.85684C 3.54931 2.03368 3.63805 2.21052 3.72678 2.38736C 3.72678 2.47578 3.81551 2.47578 3.90425 2.47578C 3.99298 2.47578 3.99298 2.47578 4.08171 2.47578C 4.17044 2.47578 4.25918 2.47578 4.34791 2.38736C 4.43664 2.38736 4.52538 2.38736 4.52538 2.38736C 4.52538 2.38736 4.61411 2.38736 4.70284 2.38736L 4.79157 2.47578C 4.79157 2.5642 4.79157 2.65262 4.79157 2.65262C 4.79157 2.74104 4.70284 2.74104 4.61411 2.74104C 4.52537 2.74104 4.52537 2.82946 4.43664 2.82946C 4.34791 2.82946 4.25918 2.82946 4.25918 2.82946C 4.17045 2.82946 4.17044 2.82946 4.08171 2.82946C 4.08171 2.82946 3.99298 2.82946 3.99298 2.91788C 4.08171 3.09472 4.08171 3.27156 4.17044 3.4484C 4.25918 3.62525 4.25918 3.80209 4.34791 3.97893C 4.43664 4.15578 4.52537 4.33262 4.61411 4.50946C 4.70284 4.6863 4.79157 4.86314 4.88031 4.95156C 4.88031 5.03998 4.88031 5.03998 4.79157 5.1284C 4.79157 5.21682 4.70284 5.21682 4.61411 5.30524C 4.52537 5.30524 4.52537 5.39366 4.43664 5.39366C 4.34791 5.39366 4.34791 5.39366 4.34791 5.39366L 3.19438 3.0063L 1.24226 3.62525C 1.24226 3.71367 1.15353 3.80209 1.15353 3.97893C 1.15353 4.15578 1.06479 4.33262 0.976062 4.50946C 0.887329 4.6863 0.887329 4.86314 0.798596 5.03998C 0.709863 5.21682 0.621131 5.39366 0.532398 5.48208ZM 2.30705 0.88421C 2.21832 1.06105 2.21832 1.32631 2.12959 1.50315C 2.04086 1.67999 1.95212 1.85683 1.86339 2.12209C 1.77466 2.29894 1.68593 2.47578 1.59719 2.65262C 1.50846 2.82946 1.41973 3.00631 1.41973 3.09473C 1.59719 3.09473 1.68592 3.09472 1.86339 3.0063C 2.04086 3.0063 2.12959 2.91788 2.30705 2.91788C 2.48452 2.91788 2.57325 2.82946 2.75072 2.74104C 2.92818 2.65262 3.01692 2.65262 3.10565 2.5642C 3.10565 2.47578 3.01692 2.38736 2.92819 2.21052C 2.83945 2.03368 2.83945 1.85683 2.75072 1.67999C 2.66199 1.50315 2.57325 1.32631 2.48452 1.14947C 2.48452 1.06105 2.39579 0.97263 2.30705 0.88421Z"/>
<path id="path23_fill" d="M 6.76978e-07 5.30524C 0.0887335 5.1284 0.0887322 4.86314 0.0887322 4.59788C 0.0887322 4.33261 0.177467 3.97893 0.177467 3.62525C 0.177467 3.27157 0.177467 2.91788 0.177467 2.5642C 0.177467 2.21051 0.177467 1.85683 0.177467 1.50315C 0.177467 1.14947 0.177467 0.884207 0.177467 0.618945C 0.177467 0.353683 0.177467 0.176843 0.177467 0.088422C 0.2662 1.35051e-06 0.443664 2.69839e-06 0.532396 2.69839e-06C 0.621129 2.69839e-06 0.709862 0 0.798594 0.176841L 0.709863 4.77471L 4.08171 4.86314C 4.17044 4.86314 4.25918 4.95156 4.25918 5.03998C 4.25918 5.1284 4.25918 5.21682 4.25918 5.21682C 4.25918 5.21682 4.17044 5.30524 4.08171 5.39366C 3.99298 5.39366 3.90425 5.48208 3.72678 5.39366L 6.76978e-07 5.39366L 6.76978e-07 5.30524Z"/>
<path id="path24_fill" d="M 0 5.30524C 0.0887329 5.1284 0.0887315 4.86314 0.0887315 4.59788C 0.0887315 4.33261 0.177466 3.97893 0.177466 3.62525C 0.177466 3.27157 0.177466 2.91788 0.177466 2.5642C 0.177466 2.21051 0.177466 1.85683 0.177466 1.50315C 0.177466 1.14947 0.177466 0.884207 0.177466 0.618945C 0.177466 0.353683 0.177466 0.176843 0.177466 0.088422C 0.266199 1.35051e-06 0.443663 2.69839e-06 0.532396 2.69839e-06C 0.621129 2.69839e-06 0.709864 0 0.798597 0.176841L 0.709862 4.77471L 4.08171 4.86314C 4.17044 4.86314 4.25918 4.95156 4.25918 5.03998C 4.25918 5.1284 4.25918 5.21682 4.25918 5.21682C 4.25918 5.21682 4.17044 5.30524 4.08171 5.39366C 3.99298 5.39366 3.90425 5.48208 3.72678 5.39366L 0 5.39366L 0 5.30524Z"/>
<path id="path25_fill" d="M 2.12959 5.39366C 2.12959 5.39366 2.04086 5.39366 1.95212 5.39366C 1.86339 5.39366 1.86339 5.39366 1.77466 5.39366C 1.68592 5.39366 1.68592 5.30524 1.59719 5.30524C 1.59719 5.30524 1.50846 5.21682 1.59719 5.1284C 1.59719 5.1284 1.68592 5.03998 1.68592 4.95156C 1.68592 4.86314 1.77466 4.6863 1.77466 4.59787C 1.86339 4.42103 1.86339 4.33261 1.95212 4.15577C 2.04086 3.97893 2.04086 3.80209 2.12959 3.62525C 2.12959 3.44841 2.21832 3.27157 2.21832 3.18315C 2.21832 3.0063 2.30706 2.91788 2.30706 2.82946L 0.0887342 0.442105C 1.35528e-06 0.353684 -6.76978e-07 0.35368 -6.76978e-07 0.265259C -6.76978e-07 0.265259 1.35528e-06 0.17684 0.0887342 0.17684C 0.177467 0.17684 0.177466 0.17684 0.177466 0.17684L 0.266197 0.17684C 0.35493 0.17684 0.443664 0.176839 0.62113 0.265259C 0.709863 0.35368 0.887329 0.442102 1.06479 0.618944C 1.24226 0.795785 1.41973 0.97263 1.68592 1.23789C 1.95212 1.50315 2.21832 1.85683 2.57325 2.29894C 2.75072 1.85683 2.83945 1.41473 3.01692 1.14947C 3.10565 0.884204 3.19438 0.618946 3.28312 0.442105C 3.37185 0.265263 3.46058 0.176841 3.54931 0.0884207C 3.63805 0 3.72678 1.34919e-06 3.81551 1.34919e-06C 3.90424 1.34919e-06 3.90424 1.34919e-06 3.99298 1.34919e-06C 4.08171 1.34919e-06 4.08171 0.0884207 4.08171 0.0884207C 3.99298 0.353683 3.90424 0.618946 3.72678 0.884208C 3.63805 1.14947 3.54931 1.41473 3.46058 1.76842C 3.37185 2.1221 3.28312 2.38736 3.19438 2.74104C 3.10565 3.09472 3.01692 3.35998 2.92818 3.71367C 2.83945 4.06735 2.75072 4.33261 2.57325 4.68629C 2.39579 5.03998 2.30705 5.03998 2.12959 5.39366Z"/>
<path id="path26_fill" d="M 6.76978e-07 3.09472C 6.76978e-07 2.74104 1.34867e-06 2.38736 0.177467 1.94526C 0.2662 1.59157 0.443664 1.23789 0.709863 0.97263C 0.887329 0.707368 1.15353 0.442104 1.50846 0.265262C 1.86339 0.0884207 2.12959 -2.69839e-06 2.48452 -2.69839e-06C 2.75072 -2.69839e-06 3.10565 1.34392e-06 3.37185 0.176843C 3.63805 0.265263 3.90425 0.442104 4.17045 0.707366C 4.43664 0.972628 4.61411 1.23789 4.79157 1.59157C 4.96904 1.94526 5.05777 2.29894 5.05777 2.74104C 5.05777 3.62525 4.8803 4.24419 4.43664 4.6863C 3.99298 5.1284 3.37185 5.30524 2.57325 5.30524C 2.21832 5.30524 1.86339 5.30524 1.59719 5.21682C 1.33099 5.1284 1.06479 5.03998 0.798594 4.86314C 0.532396 4.68629 0.354931 4.42104 0.266199 4.15577C 0.177466 3.89051 6.76978e-07 3.53683 6.76978e-07 3.09472ZM 0.621131 3.0063C 0.621131 3.62525 0.798597 4.06735 1.0648 4.42103C 1.33099 4.77472 1.86339 4.86314 2.48452 4.86314C 2.83945 4.86314 3.10565 4.77472 3.28312 4.6863C 3.54932 4.59788 3.72678 4.42104 3.90424 4.24419C 4.08171 4.06735 4.17044 3.89051 4.25918 3.62525C 4.34791 3.35999 4.34791 3.09473 4.34791 2.82946C 4.34791 2.47578 4.25918 2.21052 4.17045 1.85684C 4.08171 1.59158 3.90425 1.32631 3.72678 1.14947C 3.54932 0.972628 3.37185 0.795786 3.10565 0.707366C 2.83945 0.618945 2.66199 0.530527 2.39579 0.530527C 2.21832 0.530527 2.04085 0.530526 1.86339 0.618946C 1.68592 0.707367 1.50846 0.795784 1.41972 0.884204C 1.24226 0.972625 1.15353 1.14947 1.0648 1.32631C 0.976063 1.50315 0.887327 1.68 0.798594 1.85684C 0.709862 2.03368 0.621131 2.21052 0.621131 2.38736C 0.621131 2.65262 0.621131 2.82946 0.621131 3.0063Z"/>
<path id="path27_fill" d="M 2.83945 4.86314C 2.66199 5.03998 2.48452 5.1284 2.30706 5.21682C 2.12959 5.30524 1.95213 5.39366 1.77466 5.39366C 1.59719 5.39366 1.33099 5.48209 1.15353 5.39366C 0.887327 5.39366 0.709864 5.30524 0.532398 5.1284C 0.354933 4.95156 0.266199 4.86314 0.177466 4.6863C 0.0887328 4.50946 2.70791e-06 4.24419 2.70791e-06 3.97893C 2.70791e-06 3.71367 2.70791e-06 3.44841 2.70791e-06 3.18315C 2.70791e-06 2.91789 1.35528e-06 2.65262 0.0887342 2.29894C 0.177467 1.94526 0.177466 1.76842 0.177466 1.41473C 0.177466 1.14947 0.266197 0.884208 0.266197 0.618946C 0.266197 0.353684 0.354929 0.176839 0.354929 -2.69839e-06L 0.443667 -2.69839e-06C 0.5324 -2.69839e-06 0.532398 -2.69839e-06 0.532398 -2.69839e-06C 0.709864 -2.69839e-06 0.798593 1.34392e-06 0.798593 0.176843C 0.798593 0.265263 0.887326 0.442103 0.798593 0.707366C 0.798593 0.884207 0.709861 1.14947 0.709861 1.41473C 0.621129 1.68 0.621131 1.94526 0.532398 2.29894C 0.443666 2.5642 0.443667 2.91789 0.443667 3.18315C 0.443667 3.44841 0.443667 3.71367 0.443667 3.97893C 0.443667 4.24419 0.532396 4.42104 0.709861 4.59788C 0.887327 4.77472 0.976059 4.86314 1.24226 4.86314C 1.59719 4.86314 1.86339 4.77472 2.12959 4.6863C 2.39578 4.59788 2.57325 4.33262 2.75072 4.15577C 2.92819 3.97893 3.01692 3.62525 3.10565 3.35999C 3.19439 3.09472 3.28312 2.74104 3.28312 2.38736C 3.37185 2.03368 3.37185 1.67999 3.37185 1.32631C 3.37185 0.972625 3.37185 0.618944 3.37185 0.353681C 3.37185 0.265261 3.46058 0.176843 3.46058 0.176843C 3.46058 0.176843 3.54931 0.0884234 3.63805 0.0884234C 3.72678 0.0884234 3.72678 0.0884234 3.81551 0.0884234C 3.90424 0.0884234 3.90425 0.176843 3.99298 0.176843C 3.99298 0.530526 3.99298 0.97263 3.99298 1.41473C 3.99298 1.85684 3.99298 2.29894 3.99298 2.74104C 3.99298 3.18315 3.99298 3.62525 3.90424 4.06735C 3.90424 4.50946 3.90424 4.95156 3.90424 5.30524C 3.90424 5.39366 3.90424 5.39366 3.81551 5.39366C 3.72678 5.39366 3.72678 5.39366 3.63805 5.39366C 3.54931 5.39366 3.46058 5.39366 3.46058 5.39366C 3.46058 5.39366 3.37185 5.39366 3.37185 5.30524L 3.46058 4.33261C 3.19438 4.50945 3.01692 4.68629 2.83945 4.86314Z"/>
<path id="path28_fill" d="M 0.798594 5.21682C 0.798594 5.21682 0.798596 5.30524 0.709863 5.30524L 0.621131 5.30524L 0.5324 5.30524L 0.443662 5.30524C 0.354929 5.30524 0.2662 5.21682 0.177467 5.1284C 0.0887342 5.03998 0.0887356 4.77472 0.0887356 4.59788C 0.0887356 4.33261 0.0887356 4.06735 0.0887356 3.80209C 0.0887356 3.44841 0.0887356 3.09473 0.0887356 2.74104C 0.0887356 2.38736 0.0887356 1.94526 0.0887356 1.50315C 0.0887356 1.06105 0.0887301 0.618945 -2.70791e-06 0.176841C 0.0887301 0.0884207 0.0887342 2.69839e-06 0.177467 2.69839e-06C 0.2662 2.69839e-06 0.266197 2.69839e-06 0.35493 2.69839e-06C 0.443663 2.69839e-06 0.443667 0.0884207 0.5324 0.176841C 0.5324 0.265262 0.621131 0.265259 0.621131 0.35368C 0.709864 0.265259 0.976061 0.088422 1.15353 0.088422C 1.41973 1.35051e-06 1.59719 2.69839e-06 1.95212 2.69839e-06C 2.21832 2.69839e-06 2.48452 2.69839e-06 2.75072 2.69839e-06C 3.01692 2.69839e-06 3.28311 0.0884207 3.54931 0.176841C 3.81551 0.265262 3.99298 0.353685 4.17045 0.442106C 4.34791 0.530527 4.43664 0.618942 4.43664 0.795784C 4.43664 0.972625 4.34791 1.06105 4.25918 1.23789C 4.08171 1.41473 3.81551 1.50315 3.46058 1.67999C 3.37185 1.67999 3.28312 1.76842 3.19439 1.76842C 3.10565 1.76842 2.92819 1.85683 2.75072 1.94526C 2.57326 2.03368 2.39579 2.03367 2.30706 2.12209C 2.12959 2.21051 1.95213 2.21052 1.86339 2.29894C 1.68593 2.38736 1.59719 2.38736 1.41973 2.47578C 1.331 2.5642 1.24226 2.5642 1.15353 2.5642L 1.15353 2.65262C 1.15353 2.65262 1.24226 2.74104 1.33099 2.74104C 1.41972 2.82946 1.50846 2.91788 1.68592 3.0063C 1.86339 3.09472 2.04086 3.27156 2.30706 3.35999C 2.57326 3.53683 2.92818 3.71367 3.37185 3.97893C 3.81551 4.2442 4.25917 4.50946 4.8803 4.86314C 4.8803 4.86314 4.96904 4.86314 4.96904 4.95156L 5.05777 5.03998L 5.14651 5.1284L 5.14651 5.21682C 5.14651 5.30524 5.14651 5.30524 5.05777 5.30524C 5.05777 5.30524 4.96904 5.39366 4.8803 5.39366C 4.79157 5.39366 4.79157 5.39366 4.70284 5.39366C 4.61411 5.39366 4.61411 5.39366 4.52538 5.39366C 4.43665 5.39366 4.34791 5.39366 4.17045 5.30524C 3.99298 5.21682 3.81552 5.1284 3.63805 4.95156C 3.46058 4.77472 3.19438 4.6863 2.92818 4.50946C 2.66199 4.33262 2.39578 4.15578 2.21832 3.97893C 2.04085 3.80209 1.77466 3.62525 1.50846 3.4484C 1.24226 3.27156 1.06479 3.18315 0.887326 3.09473L 0.798594 5.21682ZM 0.798594 0.88421C 0.798594 0.97263 0.709863 1.06105 0.709863 1.14947C 0.709863 1.23789 0.709863 1.32631 0.709863 1.41473C 0.709863 1.50315 0.709861 1.59157 0.798594 1.67999C 0.798594 1.76841 0.887326 1.85684 0.887326 1.85684C 0.976059 1.85684 1.06479 1.85684 1.15353 1.85684C 1.24226 1.85684 1.41973 1.76842 1.59719 1.76842C 1.77466 1.68 1.95212 1.67999 2.21832 1.59157C 2.39578 1.50315 2.66199 1.41473 2.83945 1.32631C 3.01692 1.23789 3.19438 1.14947 3.37185 1.06105C 3.54931 0.972628 3.63805 0.884204 3.72678 0.795784C 3.81551 0.707363 3.81551 0.618945 3.72678 0.618945C 3.72678 0.530524 3.54931 0.530527 3.37185 0.442106C 3.28312 0.442106 3.19438 0.442101 3.01692 0.35368C 2.83945 0.35368 2.75072 0.35368 2.57325 0.35368C 2.39579 0.35368 2.21832 0.35368 2.04086 0.35368C 1.86339 0.35368 1.68593 0.353685 1.50846 0.442106C 1.33099 0.442106 1.24226 0.530526 1.0648 0.530526C 0.88733 0.795788 0.798594 0.795789 0.798594 0.88421Z"/>
<path id="path29_fill" d="M 1.81409 0.618945L 0.128167 0.530526C 0.128167 0.530526 0.128168 0.530526 0.0394355 0.530526C -0.0492974 0.530526 0.0394355 0.530527 0.0394355 0.442106L 0.0394355 0.35368L 0.0394355 0.265261C 0.0394355 0.17684 0.0394341 0.088422 0.128167 0.088422C 0.2169 1.35051e-06 0.216904 2.69839e-06 0.305637 2.69839e-06C 0.660568 2.69839e-06 1.10423 1.35051e-06 1.45916 0.088422C 1.81409 0.088422 2.25776 0.176841 2.61269 0.176841C 2.96762 0.176841 3.41129 0.176841 3.76622 0.176841C 4.12115 0.176841 4.56481 0.088422 4.91974 0.088422C 4.91974 0.088422 5.00847 0.0884207 5.00847 0.176841C 5.00847 0.176841 5.00848 0.265259 5.09721 0.35368C 5.09721 0.442101 5.09721 0.442105 5.09721 0.530526C 5.09721 0.618946 5.09721 0.618945 5.09721 0.618945C 4.83101 0.707366 4.56481 0.707363 4.38735 0.795784C 4.20988 0.795784 4.03242 0.795784 3.85495 0.795784C 3.67749 0.795784 3.50002 0.795784 3.32256 0.795784C 3.14509 0.795784 2.87889 0.795789 2.61269 0.88421C 2.61269 1.06105 2.61269 1.23789 2.61269 1.41473C 2.61269 1.59157 2.61269 1.94526 2.52396 2.21052C 2.52396 2.47578 2.52396 2.82946 2.43523 3.09473C 2.34649 3.35999 2.43522 3.71367 2.34649 3.97893C 2.34649 4.2442 2.34649 4.50945 2.34649 4.77471C 2.34649 5.03998 2.34649 5.21682 2.34649 5.39366L 1.63663 5.48208L 1.81409 0.618945Z"/>
<path id="path30_fill" d="M 0.798593 5.21682C 0.798593 5.21682 0.798594 5.30524 0.709861 5.30524L 0.62113 5.30524L 0.532398 5.30524L 0.443667 5.30524C 0.354934 5.30524 0.266199 5.21682 0.177466 5.1284C 0.0887329 5.03998 0.0887342 4.77472 0.0887342 4.59788C 0.0887342 4.33261 0.0887342 4.06735 0.0887342 3.80209C 0.0887342 3.44841 0.0887342 3.09473 0.0887342 2.74104C 0.0887342 2.38736 0.0887342 1.94526 0.0887342 1.50315C 0.0887342 1.06105 0.0887356 0.618945 2.70791e-06 0.176841C 0.0887356 0.0884207 0.0887329 2.69839e-06 0.177466 2.69839e-06C 0.266199 2.69839e-06 0.266196 2.69839e-06 0.354929 2.69839e-06C 0.443662 2.69839e-06 0.443666 0.0884207 0.532398 0.176841C 0.532398 0.265262 0.62113 0.265259 0.62113 0.35368C 0.709863 0.265259 0.97606 0.088422 1.15353 0.088422C 1.41972 1.35051e-06 1.59719 2.69839e-06 1.95212 2.69839e-06C 2.21832 2.69839e-06 2.48452 2.69839e-06 2.75072 2.69839e-06C 3.01692 2.69839e-06 3.28312 0.0884207 3.54932 0.176841C 3.81552 0.265262 3.99298 0.353685 4.17044 0.442106C 4.34791 0.530527 4.43665 0.618942 4.43665 0.795784C 4.43665 0.972625 4.34791 1.06105 4.25918 1.23789C 4.08171 1.41473 3.81551 1.50315 3.46058 1.67999C 3.37185 1.67999 3.28312 1.76842 3.19438 1.76842C 3.10565 1.76842 2.92819 1.85683 2.75072 1.94526C 2.57325 2.03368 2.39579 2.03367 2.30706 2.12209C 2.12959 2.21051 1.95212 2.21052 1.86339 2.29894C 1.68593 2.38736 1.59719 2.38736 1.41973 2.47578C 1.33099 2.5642 1.24226 2.5642 1.15353 2.5642L 1.15353 2.65262C 1.15353 2.65262 1.24226 2.74104 1.331 2.74104C 1.41973 2.82946 1.50846 2.91788 1.68592 3.0063C 1.86339 3.09472 2.04086 3.27156 2.30706 3.35999C 2.57325 3.53683 2.92818 3.71367 3.37185 3.97893C 3.81551 4.2442 4.25918 4.50946 4.88031 4.86314C 4.88031 4.86314 4.96904 4.86314 4.96904 4.95156L 5.05777 5.03998L 5.1465 5.1284L 5.1465 5.21682C 5.1465 5.30524 5.14651 5.30524 5.05777 5.30524C 5.05777 5.30524 4.96904 5.39366 4.88031 5.39366C 4.79158 5.39366 4.79157 5.39366 4.70284 5.39366C 4.61411 5.39366 4.61411 5.39366 4.52538 5.39366C 4.43664 5.39366 4.34791 5.39366 4.17044 5.30524C 3.99298 5.21682 3.81551 5.1284 3.63805 4.95156C 3.46058 4.77472 3.19438 4.6863 2.92818 4.50946C 2.66198 4.33262 2.39579 4.15578 2.21832 3.97893C 2.04086 3.80209 1.77466 3.62525 1.50846 3.4484C 1.24226 3.27156 1.0648 3.18315 0.887331 3.09473L 0.798593 5.21682ZM 0.798593 0.88421C 0.798593 0.97263 0.709861 1.06105 0.709861 1.14947C 0.709861 1.23789 0.709861 1.32631 0.709861 1.41473C 0.709861 1.50315 0.70986 1.59157 0.798593 1.67999C 0.798593 1.76841 0.887331 1.85684 0.887331 1.85684C 0.976064 1.85684 1.06479 1.85684 1.15353 1.85684C 1.24226 1.85684 1.41972 1.76842 1.59719 1.76842C 1.77466 1.68 1.95213 1.67999 2.21832 1.59157C 2.39579 1.50315 2.66199 1.41473 2.83945 1.32631C 3.01692 1.23789 3.19438 1.14947 3.37185 1.06105C 3.54931 0.972628 3.63805 0.884204 3.72678 0.795784C 3.81551 0.707363 3.81551 0.618945 3.72678 0.618945C 3.72678 0.530524 3.54931 0.530527 3.37185 0.442106C 3.28311 0.442106 3.19438 0.442101 3.01691 0.35368C 2.83945 0.35368 2.75072 0.35368 2.57325 0.35368C 2.39578 0.35368 2.21832 0.35368 2.04085 0.35368C 1.86339 0.35368 1.68592 0.353685 1.50846 0.442106C 1.33099 0.442106 1.24226 0.530526 1.06479 0.530526C 0.887329 0.795788 0.798593 0.795789 0.798593 0.88421Z"/>
<path id="path31_fill" d="M 0.532398 5.48208L 0.443667 5.48208C 0.443667 5.48208 0.35493 5.48208 0.266197 5.48208C 0.177464 5.48208 0.177467 5.39366 0.0887342 5.39366L 2.70791e-06 5.30524C 2.70791e-06 5.21682 0.0887329 5.1284 0.177466 4.95156C 0.266199 4.77472 0.266196 4.59788 0.354929 4.42104C 0.443662 4.2442 0.532397 3.97893 0.62113 3.71367C 0.709863 3.44841 0.798598 3.18314 0.887331 3.0063C 0.976064 2.74104 1.06479 2.47578 1.15353 2.29894C 1.24226 2.1221 1.33099 1.85683 1.41973 1.59157C 1.50846 1.41473 1.59719 1.23789 1.59719 1.06105C 1.68592 0.884207 1.68593 0.795785 1.77466 0.707364C 1.77466 0.618944 1.86339 0.530527 1.86339 0.442106C 1.86339 0.353685 1.86339 0.265261 1.95212 0.265261C 2.04086 0.265261 2.04085 0.176843 2.04085 0.088422C 2.12959 0.088422 2.21832 2.69839e-06 2.30706 2.69839e-06C 2.48452 0.176844 2.66199 0.353684 2.83945 0.530526C 3.01692 0.707367 3.10565 0.972625 3.19438 1.23789C 3.28312 1.50315 3.37185 1.67999 3.46058 1.85684C 3.54931 2.03368 3.63805 2.21052 3.72678 2.38736C 3.72678 2.47578 3.81551 2.47578 3.90424 2.47578C 3.99298 2.47578 3.99298 2.47578 4.08171 2.47578C 4.17044 2.47578 4.25917 2.47578 4.34791 2.38736C 4.43664 2.38736 4.52538 2.38736 4.52538 2.38736C 4.52538 2.38736 4.61411 2.38736 4.70284 2.38736L 4.79157 2.47578C 4.79157 2.5642 4.79157 2.65262 4.79157 2.65262C 4.79157 2.74104 4.70284 2.74104 4.61411 2.74104C 4.52538 2.74104 4.52538 2.82946 4.43665 2.82946C 4.34791 2.82946 4.25918 2.82946 4.25918 2.82946C 4.17044 2.82946 4.17044 2.82946 4.08171 2.82946C 4.08171 2.82946 3.99298 2.82946 3.99298 2.91788C 4.08171 3.09472 4.08171 3.27156 4.17044 3.4484C 4.25918 3.62525 4.25917 3.80209 4.34791 3.97893C 4.43664 4.15578 4.52538 4.33262 4.61411 4.50946C 4.70284 4.6863 4.79158 4.86314 4.88031 4.95156C 4.88031 5.03998 4.8803 5.03998 4.79157 5.1284C 4.79157 5.21682 4.70284 5.21682 4.61411 5.30524C 4.52538 5.30524 4.52538 5.39366 4.43665 5.39366C 4.34791 5.39366 4.34791 5.39366 4.34791 5.39366L 3.19438 3.0063L 1.06479 3.53683C 1.06479 3.62525 0.976063 3.71367 0.976063 3.89051C 0.976063 4.06735 0.887326 4.2442 0.798593 4.42104C 0.70986 4.59788 0.709863 4.77472 0.62113 4.95156C 0.532397 5.1284 0.621131 5.39366 0.532398 5.48208ZM 2.30706 0.88421C 2.21832 1.06105 2.21832 1.32631 2.12959 1.50315C 2.04085 1.67999 1.95212 1.85683 1.86339 2.12209C 1.77466 2.29894 1.68592 2.47578 1.59719 2.65262C 1.50846 2.82946 1.41973 3.00631 1.41973 3.09473C 1.59719 3.09473 1.68593 3.09472 1.86339 3.0063C 2.04086 3.0063 2.12959 2.91788 2.30706 2.91788C 2.48452 2.91788 2.57325 2.82946 2.75072 2.74104C 2.92819 2.65262 3.01692 2.65262 3.10565 2.5642C 3.10565 2.47578 3.01692 2.38736 2.92818 2.21052C 2.83945 2.03368 2.83945 1.85683 2.75072 1.67999C 2.66199 1.50315 2.57325 1.32631 2.48452 1.14947C 2.48452 1.06105 2.39579 0.97263 2.30706 0.88421Z"/>
<path id="path32_fill" d="M 2.04086 5.30524C 1.95212 5.1284 1.86339 4.86314 1.77465 4.59788C 1.68592 4.33262 1.50846 3.97893 1.33099 3.62525C 1.15352 3.27157 0.976059 2.91788 0.887326 2.5642C 0.798593 2.21052 0.532394 1.85683 0.443662 1.59157C 0.266196 1.32631 0.177468 1.06105 0.0887356 0.795785C 2.70395e-06 0.530523 -2.70791e-06 0.442102 -2.70791e-06 0.353681C -2.70791e-06 0.353681 2.70395e-06 0.265262 0.0887356 0.265262C 0.0887356 0.265262 0.177466 0.176843 0.266199 0.176843C 0.354931 0.176843 0.354929 0.0884234 0.443662 0.0884234C 0.621127 0.442106 0.798598 0.795785 0.976064 1.23789C 1.15353 1.67999 1.33099 2.03368 1.50846 2.47578C 1.68593 2.82946 1.86339 3.27156 2.04086 3.53683C 2.21832 3.89051 2.39579 4.15577 2.48452 4.33261C 2.48452 4.33261 2.57325 4.2442 2.66198 4.06735C 2.75072 3.89051 2.83945 3.71367 2.92818 3.44841C 3.01692 3.18314 3.19438 2.91788 3.28312 2.65262C 3.37185 2.38736 3.54932 2.03367 3.63805 1.76841C 3.72678 1.50315 3.90424 1.14947 3.99298 0.884204C 4.08171 0.618942 4.17044 0.353684 4.25918 0.176843C 4.34791 0.088422 4.43664 -2.69839e-06 4.43664 -2.69839e-06C 4.43664 -2.69839e-06 4.52538 -2.69839e-06 4.61411 -2.69839e-06C 4.70284 -2.69839e-06 4.70284 0.0884234 4.79157 0.0884234C 4.79157 0.176844 4.8803 0.176841 4.8803 0.265262L 2.66198 5.30524C 2.66198 5.30524 2.57325 5.39367 2.48452 5.39367C 2.39579 5.39367 2.39579 5.39367 2.30706 5.39367C 2.21832 5.39367 2.21832 5.39367 2.12959 5.39367C 2.04085 5.39367 2.04086 5.39366 2.04086 5.30524Z"/>
<path id="path33_fill" d="M 0.0887328 2.69839e-06C 0.177466 2.69839e-06 0.354931 0.088422 0.532397 0.088422C 0.709863 0.088422 0.976059 0.088422 1.15352 0.088422C 1.41972 0.088422 1.59719 0.088422 1.86339 0.088422C 2.12959 0.088422 2.39579 0.088422 2.57326 0.088422C 2.75072 0.088422 3.01692 0.088422 3.19438 0.088422C 3.37185 0.088422 3.54931 0.0884207 3.63805 0.176841L 3.63805 0.530526C 3.46058 0.530526 3.28312 0.530526 3.01692 0.530526C 2.75072 0.530526 2.48452 0.530526 2.21832 0.530526C 1.95212 0.530526 1.68593 0.530526 1.33099 0.530526C 1.0648 0.530526 0.798594 0.618945 0.621129 0.618945C 0.621129 0.795786 0.532397 0.972628 0.532397 1.06105C 0.532397 1.14947 0.532397 1.23789 0.532397 1.32631C 0.532397 1.41473 0.532397 1.50315 0.532397 1.59157C 0.532397 1.67999 0.532397 1.76842 0.532397 1.85684C 0.532397 1.94526 0.532397 2.03367 0.532397 2.12209C 0.532397 2.21051 0.532397 2.38736 0.532397 2.5642C 0.798596 2.5642 1.0648 2.5642 1.33099 2.5642C 1.59719 2.5642 1.86339 2.47578 2.12959 2.47578C 2.39579 2.47578 2.66198 2.38736 2.92818 2.38736C 3.19438 2.38736 3.46058 2.38736 3.72678 2.38736L 3.72678 2.82946L 0.70986 3.18315L 0.70986 4.77471C 1.06479 4.77471 1.50846 4.77471 1.77466 4.77471C 2.12959 4.77471 2.39579 4.6863 2.66199 4.6863C 2.92819 4.6863 3.19438 4.59788 3.54931 4.59788C 3.81551 4.59788 4.17044 4.59788 4.43664 4.59788C 4.43664 4.6863 4.43664 4.68629 4.43664 4.77471C 4.43664 4.86314 4.34791 4.86314 4.34791 4.95156C 4.34791 5.03998 4.25918 5.03998 4.17044 5.03998C 4.08171 5.03998 4.08171 5.03998 3.99298 5.03998C 3.72678 5.03998 3.37185 5.1284 3.01692 5.1284C 2.66199 5.1284 2.30705 5.21682 1.95212 5.21682C 1.59719 5.21682 1.24226 5.30524 0.88733 5.30524C 0.532398 5.30524 0.2662 5.39366 1.35396e-06 5.39366L 0.0887328 2.69839e-06Z"/>
<path id="path34_fill" d="M 1.35396e-06 5.30524C 0.0887342 5.1284 0.0887329 4.86314 0.0887329 4.59788C 0.0887329 4.33261 0.177464 3.97893 0.177464 3.62525C 0.177464 3.27157 0.177464 2.91788 0.177464 2.5642C 0.177464 2.21051 0.177464 1.85683 0.177464 1.50315C 0.177464 1.14947 0.177464 0.884207 0.177464 0.618945C 0.177464 0.353683 0.177464 0.176843 0.177464 0.088422C 0.266197 1.35051e-06 0.443664 2.69839e-06 0.532397 2.69839e-06C 0.62113 2.69839e-06 0.709866 0 0.798598 0.176841L 0.70986 4.77471L 4.08171 4.86314C 4.17044 4.86314 4.25917 4.95156 4.25917 5.03998C 4.25917 5.1284 4.25917 5.21682 4.25917 5.21682C 4.25917 5.21682 4.17044 5.30524 4.08171 5.39366C 3.99298 5.39366 3.90424 5.48208 3.72678 5.39366L 1.35396e-06 5.39366L 1.35396e-06 5.30524Z"/>
<path id="path35_fill" d="M 3.72678 5.39367C 3.54932 5.03998 3.28312 4.6863 3.01692 4.33261C 2.75072 3.97893 2.48452 3.62525 2.21832 3.27157C 1.95212 2.91788 1.68592 2.5642 1.41972 2.21051C 1.15352 1.85683 0.88733 1.50315 0.709864 1.14947C 0.709864 1.50315 0.709864 1.76841 0.709864 2.21051C 0.709864 2.5642 0.709864 2.91788 0.709864 3.35999C 0.709864 3.71367 0.709864 4.06735 0.709864 4.42103C 0.709864 4.77471 0.709865 5.03998 0.621133 5.30524C 0.5324 5.39366 0.443663 5.39367 0.443663 5.39367C 0.35493 5.39367 0.354933 5.39367 0.2662 5.39367C 0.177467 5.39367 0.0887301 5.39367 0.0887301 5.39367C -2.71056e-06 5.39367 -1.35396e-06 5.30524 -1.35396e-06 5.1284C -1.35396e-06 4.95156 0.0887301 4.68629 0.0887301 4.42103C 0.0887301 4.15577 0.0887301 3.89051 0.0887301 3.53683C 0.0887301 3.27156 0.0887301 2.91788 0.0887301 2.65262C 0.0887301 2.29894 0.0887301 2.03367 0.0887301 1.76841C 0.0887301 1.50315 0.0887301 1.14947 0.0887301 0.884204C 0.0887301 0.618942 0.0887301 0.353684 0.0887301 0.176843C 0.177463 0.088422 0.2662 -2.69839e-06 0.2662 -2.69839e-06C 0.354933 -2.69839e-06 0.443661 2.69443e-06 0.532394 0.0884234C 0.621127 0.176844 0.798594 0.265259 0.887327 0.442101C 0.97606 0.618942 1.24226 0.884207 1.50846 1.14947C 1.77466 1.41473 2.04086 1.85684 2.39579 2.29894C 2.75072 2.74104 3.19439 3.35998 3.72678 3.97893L 3.72678 0.353681C 3.81552 0.265261 3.81551 0.176843 3.90425 0.176843C 3.99298 0.176843 4.08171 0.0884234 4.17045 0.0884234C 4.25918 0.0884234 4.34791 0.088422 4.34791 0.176843C 4.34791 0.265263 4.43664 0.35368 4.43664 0.442101C 4.43664 0.530522 4.43664 0.618945 4.43664 0.707366C 4.43664 0.795786 4.43664 0.884204 4.43664 0.884204C 4.43664 1.06105 4.43664 1.23789 4.43664 1.50315C 4.43664 1.76842 4.43664 2.03368 4.43664 2.38736C 4.43664 2.65262 4.43664 3.0063 4.43664 3.35999C 4.43664 3.71367 4.43664 3.97893 4.43664 4.24419C 4.43664 4.50946 4.43664 4.77472 4.43664 5.03998C 4.43664 5.30524 4.34791 5.39366 4.34791 5.48208L 3.72678 5.39367Z"/>
<path id="path36_fill" d="M 0.0887315 2.69839e-06C 0.177464 2.69839e-06 0.35493 0.088422 0.532396 0.088422C 0.709861 0.088422 0.976064 0.088422 1.15353 0.088422C 1.41973 0.088422 1.5972 0.088422 1.8634 0.088422C 2.12959 0.088422 2.39578 0.088422 2.57325 0.088422C 2.75071 0.088422 3.01692 0.088422 3.19439 0.088422C 3.37185 0.088422 3.54932 0.0884207 3.63805 0.176841L 3.63805 0.530526C 3.46059 0.530526 3.28311 0.530526 3.01691 0.530526C 2.75071 0.530526 2.48452 0.530526 2.21832 0.530526C 1.95212 0.530526 1.68592 0.530526 1.33099 0.530526C 1.06479 0.530526 0.798593 0.618945 0.621127 0.618945C 0.621127 0.795786 0.532396 0.972628 0.532396 1.06105C 0.532396 1.14947 0.532396 1.23789 0.532396 1.32631C 0.532396 1.41473 0.532396 1.50315 0.532396 1.59157C 0.532396 1.67999 0.532396 1.76842 0.532396 1.85684C 0.532396 1.94526 0.532396 2.03367 0.532396 2.12209C 0.532396 2.21051 0.532396 2.38736 0.532396 2.5642C 0.798594 2.5642 1.06479 2.5642 1.33099 2.5642C 1.59719 2.5642 1.86338 2.47578 2.12958 2.47578C 2.39578 2.47578 2.66199 2.38736 2.92819 2.38736C 3.19439 2.38736 3.46058 2.38736 3.72678 2.38736L 3.72678 2.82946L 0.709865 3.18315L 0.709865 4.77471C 1.0648 4.77471 1.50846 4.77471 1.77466 4.77471C 2.12959 4.77471 2.39579 4.6863 2.66199 4.6863C 2.92818 4.6863 3.19438 4.59788 3.54931 4.59788C 3.81551 4.59788 4.17044 4.59788 4.43664 4.59788C 4.43664 4.6863 4.43664 4.68629 4.43664 4.77471C 4.43664 4.86314 4.3479 4.86314 4.3479 4.95156C 4.3479 5.03998 4.25917 5.03998 4.17044 5.03998C 4.08171 5.03998 4.08171 5.03998 3.99298 5.03998C 3.72678 5.03998 3.37184 5.1284 3.01691 5.1284C 2.66198 5.1284 2.30705 5.21682 1.95212 5.21682C 1.59719 5.21682 1.24226 5.30524 0.887328 5.30524C 0.532397 5.30524 0.266199 5.39366 -3.78291e-14 5.39366L 0.0887315 2.69839e-06Z"/>
<path id="path37_fill" d="M 0.0887328 2.69839e-06C 0.177466 2.69839e-06 0.354931 0.088422 0.532397 0.088422C 0.709863 0.088422 0.976059 0.088422 1.15352 0.088422C 1.41972 0.088422 1.59719 0.088422 1.86339 0.088422C 2.12959 0.088422 2.39579 0.088422 2.57326 0.088422C 2.75072 0.088422 3.01692 0.088422 3.19438 0.088422C 3.37185 0.088422 3.54931 0.0884207 3.63805 0.176841L 3.63805 0.530526C 3.46058 0.530526 3.28312 0.530526 3.01692 0.530526C 2.75072 0.530526 2.48451 0.530526 2.21832 0.530526C 1.95212 0.530526 1.68592 0.530526 1.33099 0.530526C 1.06479 0.530526 0.798601 0.618945 0.621135 0.618945C 0.621135 0.795786 0.532397 0.972628 0.532397 1.06105C 0.532397 1.14947 0.532397 1.23789 0.532397 1.32631C 0.532397 1.41473 0.532397 1.50315 0.532397 1.59157C 0.532397 1.67999 0.532397 1.76842 0.532397 1.85684C 0.532397 1.94526 0.532397 2.03367 0.532397 2.12209C 0.532397 2.21051 0.532397 2.38736 0.532397 2.5642C 0.798596 2.5642 1.06479 2.5642 1.33099 2.5642C 1.59719 2.5642 1.86339 2.47578 2.12959 2.47578C 2.39579 2.47578 2.66198 2.38736 2.92818 2.38736C 3.19438 2.38736 3.46059 2.38736 3.72678 2.38736L 3.72678 2.82946L 0.70986 3.18315L 0.70986 4.77471C 1.06479 4.77471 1.50845 4.77471 1.77465 4.77471C 2.12958 4.77471 2.39578 4.6863 2.66198 4.6863C 2.92818 4.6863 3.19438 4.59788 3.54931 4.59788C 3.81551 4.59788 4.17044 4.59788 4.43664 4.59788C 4.43664 4.6863 4.43664 4.68629 4.43664 4.77471C 4.43664 4.86314 4.34791 4.86314 4.34791 4.95156C 4.34791 5.03998 4.25918 5.03998 4.17045 5.03998C 4.08172 5.03998 4.08171 5.03998 3.99297 5.03998C 3.72677 5.03998 3.37185 5.1284 3.01692 5.1284C 2.66199 5.1284 2.30706 5.21682 1.95213 5.21682C 1.5972 5.21682 1.24225 5.30524 0.887323 5.30524C 0.532392 5.30524 0.266193 5.39366 -5.41582e-06 5.39366L 0.0887328 2.69839e-06Z"/>
<path id="path38_fill" d="M -5.41582e-06 -2.69839e-06L 0.0887328 -2.69839e-06C 0.177466 -2.69839e-06 0.177463 -2.69839e-06 0.266196 -2.69839e-06C 0.354929 -2.69839e-06 0.354926 2.69443e-06 0.443659 0.0884234C 0.532392 0.0884234 0.532397 0.176843 0.532397 0.176843C 0.709863 0.088422 0.887326 0.0884234 1.15352 0.0884234C 1.41972 0.0884234 1.68592 0.0884234 2.04085 0.0884234C 2.39578 0.0884234 2.66199 0.176841 3.01692 0.265262C 3.37185 0.353683 3.63805 0.442105 3.90425 0.618946C 4.17045 0.795788 4.34791 0.972626 4.52537 1.23789C 4.70284 1.50315 4.79158 1.76841 4.79158 2.1221C 4.79158 2.38736 4.70285 2.65262 4.61411 2.82946C 4.52538 3.09473 4.34791 3.27156 4.17045 3.53683C 3.99298 3.80209 3.81551 3.97893 3.54931 4.15577C 3.28311 4.33262 3.01692 4.50946 2.83946 4.6863C 2.57326 4.86314 2.30705 4.95156 2.04085 5.1284C 1.77465 5.21682 1.50846 5.30524 1.24226 5.39367C 0.976064 5.48209 0.798596 5.48208 0.532397 5.48208C 0.354931 5.48208 0.17746 5.48209 -5.41582e-06 5.39367L -5.41582e-06 -2.69839e-06ZM 4.25917 2.21051C 4.25917 1.94525 4.17044 1.76842 3.99297 1.50315C 3.81551 1.32631 3.63805 1.14947 3.46058 1.06105C 3.28312 0.972629 3.01692 0.795785 2.75072 0.795785C 2.48452 0.707364 2.21833 0.707367 1.95213 0.618946C 1.68593 0.618946 1.41973 0.618946 1.24226 0.618946C 0.976064 0.618946 0.798601 0.707364 0.621135 0.795785L 0.70986 4.95156C 0.887326 4.95156 1.06479 4.95156 1.33099 4.86314C 1.59719 4.77471 1.86339 4.6863 2.12959 4.59788C 2.39579 4.50946 2.66198 4.33262 2.92818 4.15577C 3.19438 3.97893 3.46058 3.80209 3.63805 3.62525C 3.81551 3.44841 3.99298 3.18314 4.17045 3.0063C 4.17045 2.65262 4.25917 2.38736 4.25917 2.21051Z"/>
<path id="path39_fill" d="M 0.0887301 4.77472C 0.0887301 4.6863 0.0887356 4.6863 0.177468 4.59788C 0.266201 4.50946 0.266193 4.50945 0.266193 4.42103C 0.354926 4.42103 0.354937 4.33261 0.44367 4.33261C 0.532403 4.33261 0.532394 4.24419 0.532394 4.24419C 0.532394 4.42103 0.62113 4.59788 0.798596 4.6863C 0.887329 4.77472 1.06479 4.86314 1.24226 4.86314C 1.41973 4.86314 1.68592 4.86314 1.86339 4.86314C 2.04085 4.86314 2.30705 4.77472 2.57325 4.6863C 2.83945 4.59788 3.01692 4.50945 3.28312 4.42103C 3.46058 4.33261 3.72677 4.24419 3.81551 4.15577C 3.90424 4.06735 4.08171 3.97893 4.17045 3.89051C 4.25918 3.80209 4.25918 3.71367 4.17045 3.62525L 0.887334 2.29894C 0.887334 2.29894 0.79859 2.29894 0.709857 2.21051C 0.621125 2.21051 0.621127 2.1221 0.532394 2.1221C 0.443662 2.1221 0.443664 2.03368 0.354931 2.03368C 0.354931 1.94526 0.266193 1.94526 0.266193 1.85684C 0.266193 1.68 0.354937 1.50315 0.44367 1.32631C 0.532403 1.14947 0.798593 0.972625 0.976059 0.884204C 1.15352 0.795784 1.41973 0.618948 1.77466 0.530527C 2.04086 0.442106 2.30705 0.353683 2.57325 0.265262C 2.83945 0.176841 3.10565 0.176844 3.28312 0.0884234C 3.46058 2.69443e-06 3.63805 -2.69839e-06 3.72678 -2.69839e-06C 3.81552 -2.69839e-06 3.90425 -2.69839e-06 3.90425 -2.69839e-06C 3.90425 -2.69839e-06 4.08171 2.69443e-06 4.08171 0.0884234C 4.17044 0.0884234 4.17044 0.176843 4.25917 0.176843C 4.25917 0.265263 4.25917 0.265261 4.25917 0.353681C 4.25917 0.442102 4.17044 0.442106 4.08171 0.530527C 3.99298 0.618948 3.81551 0.618945 3.63804 0.707366C 3.46058 0.707366 3.28312 0.795785 3.10566 0.795785C 2.92819 0.795785 2.66198 0.884204 2.48451 0.884204C 2.30705 0.884204 2.04085 0.972629 1.86339 1.06105C 1.68592 1.14947 1.50846 1.14947 1.331 1.23789C 1.15353 1.32631 1.06479 1.41473 0.976059 1.41473C 0.887326 1.41473 0.887334 1.59157 0.887334 1.67999C 0.976067 1.67999 1.15353 1.76842 1.331 1.85684C 1.50846 1.94526 1.77465 2.03367 2.04085 2.1221C 2.30705 2.21052 2.57326 2.29894 2.83945 2.38736C 3.10565 2.47578 3.37185 2.5642 3.63804 2.74104C 3.90424 2.82946 4.08171 2.91788 4.25917 3.0063C 4.43664 3.09472 4.52538 3.18315 4.61411 3.27157C 4.70284 3.44841 4.79157 3.53683 4.70284 3.71367C 4.70284 3.89051 4.61411 3.97893 4.52537 4.15577C 4.43664 4.24419 4.25917 4.42104 4.08171 4.50946C 3.90424 4.59788 3.72679 4.77471 3.54932 4.86314C 3.37185 4.95156 3.10564 5.03998 2.92818 5.1284C 2.75071 5.21682 2.48452 5.30524 2.30705 5.30524C 2.12959 5.39366 1.95213 5.39367 1.77466 5.39367C 1.5972 5.39367 1.50846 5.39367 1.331 5.39367C 1.24227 5.39367 1.15353 5.39367 1.0648 5.39367C 0.976064 5.39367 0.887329 5.39366 0.798596 5.30524C 0.709863 5.30524 0.621135 5.21682 0.44367 5.21682C 0.354937 5.21682 0.266201 5.1284 0.177468 5.03998C 0.0887356 4.95156 5.41582e-06 4.95156 5.41582e-06 4.86314C 0.0887383 4.86314 0.0887301 4.86314 0.0887301 4.77472Z"/>
<path id="path40_fill" d="M 0.266204 4.95156C 0.354937 4.95156 0.354934 4.95156 0.443667 4.95156C 0.5324 4.95156 0.532392 4.95156 0.532392 5.03998L 0.62113 5.1284L 0.62113 5.21682C 0.62113 5.30524 0.5324 5.39367 0.443667 5.48209C 0.354934 5.57051 0.266204 5.57051 0.266204 5.57051L 0.0887274 5.57051C -5.4145e-06 5.57051 2.70791e-06 5.48209 2.70791e-06 5.48209C 2.70791e-06 5.48209 2.70791e-06 5.39366 2.70791e-06 5.30524C 0.0887356 5.1284 0.177471 5.03998 0.266204 4.95156ZM 0.532392 4.06735C 0.532392 4.15577 0.443667 4.15577 0.443667 4.24419C 0.354934 4.24419 0.354937 4.24419 0.266204 4.24419C 0.177471 4.24419 0.17746 4.2442 0.0887274 4.15578L 2.70791e-06 4.06735C 2.70791e-06 3.80209 2.70791e-06 3.53683 2.70791e-06 3.27157C 2.70791e-06 3.09473 2.70791e-06 2.82946 2.70791e-06 2.65262C 2.70791e-06 2.47578 2.70791e-06 2.29894 2.70791e-06 2.1221C 2.70791e-06 1.94526 2.70791e-06 1.76842 2.70791e-06 1.59157C 2.70791e-06 1.41473 2.70791e-06 1.23789 2.70791e-06 0.972625C 2.70791e-06 0.795784 2.70791e-06 0.530527 2.70791e-06 0.176844C 0.0887356 0.0884234 0.177466 0.0884194 0.177466 -1.34919e-06C 0.266199 -1.34919e-06 0.266196 -1.34919e-06 0.354929 -1.34919e-06L 0.443667 0.088418L 0.532392 0.176844L 0.532392 4.06735Z"/>
</defs>
</svg>
